<?xml version="1.0" encoding="utf-8"?>
<!-- Generator: Adobe Illustrator 27.6.1, SVG Export Plug-In . SVG Version: 6.00 Build 0)  -->
<svg version="1.1" id="Layer_1" xmlns="http://www.w3.org/2000/svg" xmlns:xlink="http://www.w3.org/1999/xlink" x="0px" y="0px"
	 viewBox="0 0 1920 1080" style="enable-background:new 0 0 1920 1080;" xml:space="preserve">
<style type="text/css">
	.st0{fill:#FFFFFF;stroke:#CCCCCC;stroke-width:0.5;stroke-miterlimit:10;}
	.st1{fill:#E7A425;}
	.st2{fill:#8A3882;}
	.st3{fill:#FFFFFF;}
	.st4{fill:#231F20;}
	.st5{fill:url(#SVGID_1_);}
	.st6{fill:url(#SVGID_00000157991560203413272210000015598065562592384696_);}
	.st7{fill:none;stroke:#1A2E35;stroke-linecap:round;stroke-linejoin:round;stroke-miterlimit:10;}
	.st8{fill:#1A2E35;}
	.st9{opacity:0.65;fill:#FFFFFF;}
	.st10{fill:none;stroke:#CCCCCC;stroke-width:1.252;stroke-linecap:round;stroke-linejoin:round;stroke-miterlimit:10;}
	.st11{opacity:0.65;fill:#E5E5E5;}
	.st12{fill:#FFFFFF;stroke:#1A2E35;stroke-linecap:round;stroke-linejoin:round;stroke-miterlimit:10;}
	
		.st13{opacity:0.24;clip-path:url(#XMLID_00000047766257229062023390000011107981876314747041_);stroke:#1A2E35;stroke-linecap:round;stroke-linejoin:round;stroke-miterlimit:10;}
	.st14{fill:#1A2E35;stroke:#1A2E35;stroke-linecap:round;stroke-linejoin:round;stroke-miterlimit:10;}
	
		.st15{opacity:0.24;clip-path:url(#XMLID_00000111899409297841729560000008330695486336098975_);stroke:#1A2E35;stroke-linecap:round;stroke-linejoin:round;stroke-miterlimit:10;}
	.st16{fill:#8A3882;stroke:#1A2E35;stroke-linecap:round;stroke-linejoin:round;stroke-miterlimit:10;}
	.st17{fill:none;stroke:#FFFFFF;stroke-linecap:round;stroke-linejoin:round;stroke-miterlimit:10;}
</style>
<g>
	<rect x="0.5" y="0.5" class="st0" width="66.2" height="63.5"/>
	<rect x="66.7" y="0.5" class="st0" width="66.2" height="63.5"/>
	<rect x="132.8" y="0.5" class="st0" width="66.2" height="63.5"/>
	<rect x="199" y="0.5" class="st0" width="66.2" height="63.5"/>
	<rect x="265.2" y="0.5" class="st0" width="66.2" height="63.5"/>
	<rect x="331.4" y="0.5" class="st0" width="66.2" height="63.5"/>
	<rect x="397.5" y="0.5" class="st0" width="66.2" height="63.5"/>
	<rect x="463.7" y="0.5" class="st0" width="66.2" height="63.5"/>
	<rect x="529.9" y="0.5" class="st0" width="66.2" height="63.5"/>
	<rect x="596.1" y="0.5" class="st0" width="66.2" height="63.5"/>
	<rect x="662.2" y="0.5" class="st0" width="66.2" height="63.5"/>
	<rect x="728.4" y="0.5" class="st0" width="66.2" height="63.5"/>
	<rect x="794.6" y="0.5" class="st0" width="66.2" height="63.5"/>
	<rect x="860.7" y="0.5" class="st0" width="66.2" height="63.5"/>
	<rect x="926.9" y="0.5" class="st0" width="66.2" height="63.5"/>
	<rect x="993.1" y="0.5" class="st0" width="66.2" height="63.5"/>
	<rect x="1059.3" y="0.5" class="st0" width="66.2" height="63.5"/>
	<rect x="1125.4" y="0.5" class="st0" width="66.2" height="63.5"/>
	<rect x="1191.6" y="0.5" class="st0" width="66.2" height="63.5"/>
	<rect x="1257.8" y="0.5" class="st0" width="66.2" height="63.5"/>
	<rect x="1323.9" y="0.5" class="st0" width="66.2" height="63.5"/>
	<rect x="1390.1" y="0.5" class="st0" width="66.2" height="63.5"/>
	<rect x="1456.3" y="0.5" class="st0" width="66.2" height="63.5"/>
	<rect x="1522.5" y="0.5" class="st0" width="66.2" height="63.5"/>
	<rect x="1588.6" y="0.5" class="st0" width="66.2" height="63.5"/>
	<rect x="1654.8" y="0.5" class="st0" width="66.2" height="63.5"/>
	<rect x="1721" y="0.5" class="st0" width="66.2" height="63.5"/>
	<rect x="1787.2" y="0.5" class="st0" width="66.2" height="63.5"/>
	<rect x="1853.3" y="0.5" class="st0" width="66.2" height="63.5"/>
	<rect x="0.5" y="64" class="st0" width="66.2" height="63.5"/>
	<rect x="66.7" y="64" class="st0" width="66.2" height="63.5"/>
	<rect x="132.8" y="64" class="st0" width="66.2" height="63.5"/>
	<rect x="199" y="64" class="st0" width="66.2" height="63.5"/>
	<rect x="265.2" y="64" class="st0" width="66.2" height="63.5"/>
	<rect x="331.4" y="64" class="st0" width="66.2" height="63.5"/>
	<rect x="397.5" y="64" class="st0" width="66.2" height="63.5"/>
	<rect x="463.7" y="64" class="st0" width="66.2" height="63.5"/>
	<rect x="529.9" y="64" class="st0" width="66.2" height="63.5"/>
	<rect x="596.1" y="64" class="st0" width="66.2" height="63.5"/>
	<rect x="662.2" y="64" class="st0" width="66.2" height="63.5"/>
	<rect x="728.4" y="64" class="st0" width="66.2" height="63.5"/>
	<rect x="794.6" y="64" class="st0" width="66.2" height="63.5"/>
	<rect x="860.7" y="64" class="st0" width="66.2" height="63.5"/>
	<rect x="926.9" y="64" class="st0" width="66.2" height="63.5"/>
	<rect x="993.1" y="64" class="st0" width="66.2" height="63.5"/>
	<rect x="1059.3" y="64" class="st0" width="66.2" height="63.5"/>
	<rect x="1125.4" y="64" class="st0" width="66.2" height="63.5"/>
	<rect x="1191.6" y="64" class="st0" width="66.2" height="63.5"/>
	<rect x="1257.8" y="64" class="st0" width="66.2" height="63.5"/>
	<rect x="1323.9" y="64" class="st0" width="66.2" height="63.5"/>
	<rect x="1390.1" y="64" class="st0" width="66.2" height="63.5"/>
	<rect x="1456.3" y="64" class="st0" width="66.2" height="63.5"/>
	<rect x="1522.5" y="64" class="st0" width="66.2" height="63.5"/>
	<rect x="1588.6" y="64" class="st0" width="66.2" height="63.5"/>
	<rect x="1654.8" y="64" class="st0" width="66.2" height="63.5"/>
	<rect x="1721" y="64" class="st0" width="66.2" height="63.5"/>
	<rect x="1787.2" y="64" class="st0" width="66.2" height="63.5"/>
	<rect x="1853.3" y="64" class="st0" width="66.2" height="63.5"/>
	<rect x="0.5" y="127.4" class="st0" width="66.2" height="63.5"/>
	<rect x="66.7" y="127.4" class="st0" width="66.2" height="63.5"/>
	<rect x="132.8" y="127.4" class="st0" width="66.2" height="63.5"/>
	<rect x="199" y="127.4" class="st0" width="66.2" height="63.5"/>
	<rect x="265.2" y="127.4" class="st0" width="66.2" height="63.5"/>
	<rect x="331.4" y="127.4" class="st0" width="66.2" height="63.5"/>
	<rect x="397.5" y="127.4" class="st0" width="66.2" height="63.5"/>
	<rect x="463.7" y="127.4" class="st0" width="66.2" height="63.5"/>
	<rect x="529.9" y="127.4" class="st0" width="66.2" height="63.5"/>
	<rect x="596.1" y="127.4" class="st0" width="66.2" height="63.5"/>
	<rect x="662.2" y="127.4" class="st0" width="66.2" height="63.5"/>
	<rect x="728.4" y="127.4" class="st0" width="66.2" height="63.5"/>
	<rect x="794.6" y="127.4" class="st0" width="66.2" height="63.5"/>
	<rect x="860.7" y="127.4" class="st0" width="66.2" height="63.5"/>
	<rect x="926.9" y="127.4" class="st0" width="66.2" height="63.5"/>
	<rect x="993.1" y="127.4" class="st0" width="66.2" height="63.5"/>
	<rect x="1059.3" y="127.4" class="st0" width="66.2" height="63.5"/>
	<rect x="1125.4" y="127.4" class="st0" width="66.2" height="63.5"/>
	<rect x="1191.6" y="127.4" class="st0" width="66.2" height="63.5"/>
	<rect x="1257.8" y="127.4" class="st0" width="66.2" height="63.5"/>
	<rect x="1323.9" y="127.4" class="st0" width="66.2" height="63.5"/>
	<rect x="1390.1" y="127.4" class="st0" width="66.2" height="63.5"/>
	<rect x="1456.3" y="127.4" class="st0" width="66.2" height="63.5"/>
	<rect x="1522.5" y="127.4" class="st0" width="66.2" height="63.5"/>
	<rect x="1588.6" y="127.4" class="st0" width="66.2" height="63.5"/>
	<rect x="1654.8" y="127.4" class="st0" width="66.2" height="63.5"/>
	<rect x="1721" y="127.4" class="st0" width="66.2" height="63.5"/>
	<rect x="1787.2" y="127.4" class="st0" width="66.2" height="63.5"/>
	<rect x="1853.3" y="127.4" class="st0" width="66.2" height="63.5"/>
	<rect x="0.5" y="190.9" class="st0" width="66.2" height="63.5"/>
	<rect x="66.7" y="190.9" class="st0" width="66.2" height="63.5"/>
	<rect x="132.8" y="190.9" class="st0" width="66.2" height="63.5"/>
	<rect x="199" y="190.9" class="st0" width="66.2" height="63.5"/>
	<rect x="265.2" y="190.9" class="st0" width="66.2" height="63.5"/>
	<rect x="331.4" y="190.9" class="st0" width="66.2" height="63.5"/>
	<rect x="397.5" y="190.9" class="st0" width="66.2" height="63.5"/>
	<rect x="463.7" y="190.9" class="st0" width="66.2" height="63.5"/>
	<rect x="529.9" y="190.9" class="st0" width="66.2" height="63.5"/>
	<rect x="596.1" y="190.9" class="st0" width="66.2" height="63.5"/>
	<rect x="662.2" y="190.9" class="st0" width="66.2" height="63.5"/>
	<rect x="728.4" y="190.9" class="st0" width="66.2" height="63.5"/>
	<rect x="794.6" y="190.9" class="st0" width="66.2" height="63.5"/>
	<rect x="860.7" y="190.9" class="st0" width="66.2" height="63.5"/>
	<rect x="926.9" y="190.9" class="st0" width="66.2" height="63.5"/>
	<rect x="993.1" y="190.9" class="st0" width="66.2" height="63.5"/>
	<rect x="1059.3" y="190.9" class="st0" width="66.2" height="63.5"/>
	<rect x="1125.4" y="190.9" class="st0" width="66.2" height="63.5"/>
	<rect x="1191.6" y="190.9" class="st0" width="66.2" height="63.5"/>
	<rect x="1257.8" y="190.9" class="st0" width="66.2" height="63.5"/>
	<rect x="1323.9" y="190.9" class="st0" width="66.2" height="63.5"/>
	<rect x="1390.1" y="190.9" class="st0" width="66.2" height="63.5"/>
	<rect x="1456.3" y="190.9" class="st0" width="66.2" height="63.5"/>
	<rect x="1522.5" y="190.9" class="st0" width="66.2" height="63.5"/>
	<rect x="1588.6" y="190.9" class="st0" width="66.2" height="63.5"/>
	<rect x="1654.8" y="190.9" class="st0" width="66.2" height="63.5"/>
	<rect x="1721" y="190.9" class="st0" width="66.2" height="63.5"/>
	<rect x="1787.2" y="190.9" class="st0" width="66.2" height="63.5"/>
	<rect x="1853.3" y="190.9" class="st0" width="66.2" height="63.5"/>
	<rect x="0.5" y="254.4" class="st0" width="66.2" height="63.5"/>
	<rect x="66.7" y="254.4" class="st0" width="66.2" height="63.5"/>
	<rect x="132.8" y="254.4" class="st0" width="66.2" height="63.5"/>
	<rect x="199" y="254.4" class="st0" width="66.2" height="63.5"/>
	<rect x="265.2" y="254.4" class="st0" width="66.2" height="63.5"/>
	<rect x="331.4" y="254.4" class="st0" width="66.2" height="63.5"/>
	<rect x="397.5" y="254.4" class="st0" width="66.2" height="63.5"/>
	<rect x="463.7" y="254.4" class="st0" width="66.2" height="63.5"/>
	<rect x="529.9" y="254.4" class="st0" width="66.2" height="63.5"/>
	<rect x="596.1" y="254.4" class="st0" width="66.2" height="63.5"/>
	<rect x="662.2" y="254.4" class="st0" width="66.2" height="63.5"/>
	<rect x="728.4" y="254.4" class="st0" width="66.2" height="63.5"/>
	<rect x="794.6" y="254.4" class="st0" width="66.2" height="63.5"/>
	<rect x="860.7" y="254.4" class="st0" width="66.2" height="63.5"/>
	<rect x="926.9" y="254.4" class="st0" width="66.2" height="63.5"/>
	<rect x="993.1" y="254.4" class="st0" width="66.2" height="63.5"/>
	<rect x="1059.3" y="254.4" class="st0" width="66.2" height="63.5"/>
	<rect x="1125.4" y="254.4" class="st0" width="66.2" height="63.5"/>
	<rect x="1191.6" y="254.4" class="st0" width="66.2" height="63.5"/>
	<rect x="1257.8" y="254.4" class="st0" width="66.2" height="63.5"/>
	<rect x="1323.9" y="254.4" class="st0" width="66.2" height="63.5"/>
	<rect x="1390.1" y="254.4" class="st0" width="66.2" height="63.5"/>
	<rect x="1456.3" y="254.4" class="st0" width="66.2" height="63.5"/>
	<rect x="1522.5" y="254.4" class="st0" width="66.2" height="63.5"/>
	<rect x="1588.6" y="254.4" class="st0" width="66.2" height="63.5"/>
	<rect x="1654.8" y="254.4" class="st0" width="66.2" height="63.5"/>
	<rect x="1721" y="254.4" class="st0" width="66.2" height="63.5"/>
	<rect x="1787.2" y="254.4" class="st0" width="66.2" height="63.5"/>
	<rect x="1853.3" y="254.4" class="st0" width="66.2" height="63.5"/>
	<rect x="0.5" y="317.9" class="st0" width="66.2" height="63.5"/>
	<rect x="66.7" y="317.9" class="st0" width="66.2" height="63.5"/>
	<rect x="132.8" y="317.9" class="st0" width="66.2" height="63.5"/>
	<rect x="199" y="317.9" class="st0" width="66.2" height="63.5"/>
	<rect x="265.2" y="317.9" class="st0" width="66.2" height="63.5"/>
	<rect x="331.4" y="317.9" class="st0" width="66.2" height="63.5"/>
	<rect x="397.5" y="317.9" class="st0" width="66.2" height="63.5"/>
	<rect x="463.7" y="317.9" class="st0" width="66.2" height="63.5"/>
	<rect x="529.9" y="317.9" class="st0" width="66.2" height="63.5"/>
	<rect x="596.1" y="317.9" class="st0" width="66.2" height="63.5"/>
	<rect x="662.2" y="317.9" class="st0" width="66.2" height="63.5"/>
	<rect x="728.4" y="317.9" class="st0" width="66.2" height="63.5"/>
	<rect x="794.6" y="317.9" class="st0" width="66.2" height="63.5"/>
	<rect x="860.7" y="317.9" class="st0" width="66.2" height="63.5"/>
	<rect x="926.9" y="317.9" class="st0" width="66.2" height="63.5"/>
	<rect x="993.1" y="317.9" class="st0" width="66.2" height="63.5"/>
	<rect x="1059.3" y="317.9" class="st0" width="66.2" height="63.5"/>
	<rect x="1125.4" y="317.9" class="st0" width="66.2" height="63.5"/>
	<rect x="1191.6" y="317.9" class="st0" width="66.2" height="63.5"/>
	<rect x="1257.8" y="317.9" class="st0" width="66.2" height="63.5"/>
	<rect x="1323.9" y="317.9" class="st0" width="66.2" height="63.5"/>
	<rect x="1390.1" y="317.9" class="st0" width="66.2" height="63.5"/>
	<rect x="1456.3" y="317.9" class="st0" width="66.2" height="63.5"/>
	<rect x="1522.5" y="317.9" class="st0" width="66.2" height="63.5"/>
	<rect x="1588.6" y="317.9" class="st0" width="66.2" height="63.5"/>
	<rect x="1654.8" y="317.9" class="st0" width="66.2" height="63.5"/>
	<rect x="1721" y="317.9" class="st0" width="66.2" height="63.5"/>
	<rect x="1787.2" y="317.9" class="st0" width="66.2" height="63.5"/>
	<rect x="1853.3" y="317.9" class="st0" width="66.2" height="63.5"/>
	<rect x="0.5" y="381.3" class="st0" width="66.2" height="63.5"/>
	<rect x="66.7" y="381.3" class="st0" width="66.2" height="63.5"/>
	<rect x="132.8" y="381.3" class="st0" width="66.2" height="63.5"/>
	<rect x="199" y="381.3" class="st0" width="66.2" height="63.5"/>
	<rect x="265.2" y="381.3" class="st0" width="66.2" height="63.5"/>
	<rect x="331.4" y="381.3" class="st0" width="66.2" height="63.5"/>
	<rect x="397.5" y="381.3" class="st0" width="66.2" height="63.5"/>
	<rect x="463.7" y="381.3" class="st0" width="66.2" height="63.5"/>
	<rect x="529.9" y="381.3" class="st0" width="66.2" height="63.5"/>
	<rect x="596.1" y="381.3" class="st0" width="66.2" height="63.5"/>
	<rect x="662.2" y="381.3" class="st0" width="66.2" height="63.5"/>
	<rect x="728.4" y="381.3" class="st0" width="66.2" height="63.5"/>
	<rect x="794.6" y="381.3" class="st0" width="66.2" height="63.5"/>
	<rect x="860.7" y="381.3" class="st0" width="66.2" height="63.5"/>
	<rect x="926.9" y="381.3" class="st0" width="66.2" height="63.5"/>
	<rect x="993.1" y="381.3" class="st0" width="66.2" height="63.5"/>
	<rect x="1059.3" y="381.3" class="st0" width="66.2" height="63.5"/>
	<rect x="1125.4" y="381.3" class="st0" width="66.2" height="63.5"/>
	<rect x="1191.6" y="381.3" class="st0" width="66.2" height="63.5"/>
	<rect x="1257.8" y="381.3" class="st0" width="66.2" height="63.5"/>
	<rect x="1323.9" y="381.3" class="st0" width="66.2" height="63.5"/>
	<rect x="1390.1" y="381.3" class="st0" width="66.2" height="63.5"/>
	<rect x="1456.3" y="381.3" class="st0" width="66.2" height="63.5"/>
	<rect x="1522.5" y="381.3" class="st0" width="66.2" height="63.5"/>
	<rect x="1588.6" y="381.3" class="st0" width="66.2" height="63.5"/>
	<rect x="1654.8" y="381.3" class="st0" width="66.2" height="63.5"/>
	<rect x="1721" y="381.3" class="st0" width="66.2" height="63.5"/>
	<rect x="1787.2" y="381.3" class="st0" width="66.2" height="63.5"/>
	<rect x="1853.3" y="381.3" class="st0" width="66.2" height="63.5"/>
	<rect x="0.5" y="444.8" class="st0" width="66.2" height="63.5"/>
	<rect x="66.7" y="444.8" class="st0" width="66.2" height="63.5"/>
	<rect x="132.8" y="444.8" class="st0" width="66.2" height="63.5"/>
	<rect x="199" y="444.8" class="st0" width="66.2" height="63.5"/>
	<rect x="265.2" y="444.8" class="st0" width="66.2" height="63.5"/>
	<rect x="331.4" y="444.8" class="st0" width="66.2" height="63.5"/>
	<rect x="397.5" y="444.8" class="st0" width="66.2" height="63.5"/>
	<rect x="463.7" y="444.8" class="st0" width="66.2" height="63.5"/>
	<rect x="529.9" y="444.8" class="st0" width="66.2" height="63.5"/>
	<rect x="596.1" y="444.8" class="st0" width="66.2" height="63.5"/>
	<rect x="662.2" y="444.8" class="st0" width="66.2" height="63.5"/>
	<rect x="728.4" y="444.8" class="st0" width="66.2" height="63.5"/>
	<rect x="794.6" y="444.8" class="st0" width="66.2" height="63.5"/>
	<rect x="860.7" y="444.8" class="st0" width="66.2" height="63.5"/>
	<rect x="926.9" y="444.8" class="st0" width="66.2" height="63.5"/>
	<rect x="993.1" y="444.8" class="st0" width="66.2" height="63.5"/>
	<rect x="1059.3" y="444.8" class="st0" width="66.2" height="63.5"/>
	<rect x="1125.4" y="444.8" class="st0" width="66.2" height="63.5"/>
	<rect x="1191.6" y="444.8" class="st0" width="66.2" height="63.5"/>
	<rect x="1257.8" y="444.8" class="st0" width="66.2" height="63.5"/>
	<rect x="1323.9" y="444.8" class="st0" width="66.2" height="63.5"/>
	<rect x="1390.1" y="444.8" class="st0" width="66.2" height="63.5"/>
	<rect x="1456.3" y="444.8" class="st0" width="66.2" height="63.5"/>
	<rect x="1522.5" y="444.8" class="st0" width="66.2" height="63.5"/>
	<rect x="1588.6" y="444.8" class="st0" width="66.2" height="63.5"/>
	<rect x="1654.8" y="444.8" class="st0" width="66.2" height="63.5"/>
	<rect x="1721" y="444.8" class="st0" width="66.2" height="63.5"/>
	<rect x="1787.2" y="444.8" class="st0" width="66.2" height="63.5"/>
	<rect x="1853.3" y="444.8" class="st0" width="66.2" height="63.5"/>
	<rect x="0.5" y="508.3" class="st0" width="66.2" height="63.5"/>
	<rect x="66.7" y="508.3" class="st0" width="66.2" height="63.5"/>
	<rect x="132.8" y="508.3" class="st0" width="66.2" height="63.5"/>
	<rect x="199" y="508.3" class="st0" width="66.2" height="63.5"/>
	<rect x="265.2" y="508.3" class="st0" width="66.2" height="63.5"/>
	<rect x="331.4" y="508.3" class="st0" width="66.2" height="63.5"/>
	<rect x="397.5" y="508.3" class="st0" width="66.2" height="63.5"/>
	<rect x="463.7" y="508.3" class="st0" width="66.2" height="63.5"/>
	<rect x="529.9" y="508.3" class="st0" width="66.2" height="63.5"/>
	<rect x="596.1" y="508.3" class="st0" width="66.2" height="63.5"/>
	<rect x="662.2" y="508.3" class="st0" width="66.2" height="63.5"/>
	<rect x="728.4" y="508.3" class="st0" width="66.2" height="63.5"/>
	<rect x="794.6" y="508.3" class="st0" width="66.2" height="63.5"/>
	<rect x="860.7" y="508.3" class="st0" width="66.2" height="63.5"/>
	<rect x="926.9" y="508.3" class="st0" width="66.2" height="63.5"/>
	<rect x="993.1" y="508.3" class="st0" width="66.2" height="63.5"/>
	<rect x="1059.3" y="508.3" class="st0" width="66.2" height="63.5"/>
	<rect x="1125.4" y="508.3" class="st0" width="66.2" height="63.5"/>
	<rect x="1191.6" y="508.3" class="st0" width="66.2" height="63.5"/>
	<rect x="1257.8" y="508.3" class="st0" width="66.2" height="63.5"/>
	<rect x="1323.9" y="508.3" class="st0" width="66.2" height="63.5"/>
	<rect x="1390.1" y="508.3" class="st0" width="66.2" height="63.5"/>
	<rect x="1456.3" y="508.3" class="st0" width="66.2" height="63.5"/>
	<rect x="1522.5" y="508.3" class="st0" width="66.2" height="63.5"/>
	<rect x="1588.6" y="508.3" class="st0" width="66.2" height="63.5"/>
	<rect x="1654.8" y="508.3" class="st0" width="66.2" height="63.5"/>
	<rect x="1721" y="508.3" class="st0" width="66.2" height="63.5"/>
	<rect x="1787.2" y="508.3" class="st0" width="66.2" height="63.5"/>
	<rect x="1853.3" y="508.3" class="st0" width="66.2" height="63.5"/>
	<rect x="0.5" y="571.7" class="st0" width="66.2" height="63.5"/>
	<rect x="66.7" y="571.7" class="st0" width="66.2" height="63.5"/>
	<rect x="132.8" y="571.7" class="st0" width="66.2" height="63.5"/>
	<rect x="199" y="571.7" class="st0" width="66.2" height="63.5"/>
	<rect x="265.2" y="571.7" class="st0" width="66.2" height="63.5"/>
	<rect x="331.4" y="571.7" class="st0" width="66.2" height="63.5"/>
	<rect x="397.5" y="571.7" class="st0" width="66.2" height="63.5"/>
	<rect x="463.7" y="571.7" class="st0" width="66.2" height="63.5"/>
	<rect x="529.9" y="571.7" class="st0" width="66.2" height="63.5"/>
	<rect x="596.1" y="571.7" class="st0" width="66.2" height="63.5"/>
	<rect x="662.2" y="571.7" class="st0" width="66.2" height="63.5"/>
	<rect x="728.4" y="571.7" class="st0" width="66.2" height="63.5"/>
	<rect x="794.6" y="571.7" class="st0" width="66.2" height="63.5"/>
	<rect x="860.7" y="571.7" class="st0" width="66.2" height="63.5"/>
	<rect x="926.9" y="571.7" class="st0" width="66.2" height="63.5"/>
	<rect x="993.1" y="571.7" class="st0" width="66.2" height="63.5"/>
	<rect x="1059.3" y="571.7" class="st0" width="66.2" height="63.5"/>
	<rect x="1125.4" y="571.7" class="st0" width="66.2" height="63.5"/>
	<rect x="1191.6" y="571.7" class="st0" width="66.2" height="63.5"/>
	<rect x="1257.8" y="571.7" class="st0" width="66.2" height="63.5"/>
	<rect x="1323.9" y="571.7" class="st0" width="66.2" height="63.5"/>
	<rect x="1390.1" y="571.7" class="st0" width="66.2" height="63.5"/>
	<rect x="1456.3" y="571.7" class="st0" width="66.2" height="63.5"/>
	<rect x="1522.5" y="571.7" class="st0" width="66.2" height="63.5"/>
	<rect x="1588.6" y="571.7" class="st0" width="66.2" height="63.5"/>
	<rect x="1654.8" y="571.7" class="st0" width="66.2" height="63.5"/>
	<rect x="1721" y="571.7" class="st0" width="66.2" height="63.5"/>
	<rect x="1787.2" y="571.7" class="st0" width="66.2" height="63.5"/>
	<rect x="1853.3" y="571.7" class="st0" width="66.2" height="63.5"/>
	<rect x="0.5" y="635.2" class="st0" width="66.2" height="63.5"/>
	<rect x="66.7" y="635.2" class="st0" width="66.2" height="63.5"/>
	<rect x="132.8" y="635.2" class="st0" width="66.2" height="63.5"/>
	<rect x="199" y="635.2" class="st0" width="66.2" height="63.5"/>
	<rect x="265.2" y="635.2" class="st0" width="66.2" height="63.5"/>
	<rect x="331.4" y="635.2" class="st0" width="66.2" height="63.5"/>
	<rect x="397.5" y="635.2" class="st0" width="66.2" height="63.5"/>
	<rect x="463.7" y="635.2" class="st0" width="66.2" height="63.5"/>
	<rect x="529.9" y="635.2" class="st0" width="66.2" height="63.5"/>
	<rect x="596.1" y="635.2" class="st0" width="66.2" height="63.5"/>
	<rect x="662.2" y="635.2" class="st0" width="66.2" height="63.5"/>
	<rect x="728.4" y="635.2" class="st0" width="66.2" height="63.5"/>
	<rect x="794.6" y="635.2" class="st0" width="66.2" height="63.5"/>
	<rect x="860.7" y="635.2" class="st0" width="66.2" height="63.5"/>
	<rect x="926.9" y="635.2" class="st0" width="66.2" height="63.5"/>
	<rect x="993.1" y="635.2" class="st0" width="66.2" height="63.5"/>
	<rect x="1059.3" y="635.2" class="st0" width="66.2" height="63.5"/>
	<rect x="1125.4" y="635.2" class="st0" width="66.2" height="63.5"/>
	<rect x="1191.6" y="635.2" class="st0" width="66.2" height="63.5"/>
	<rect x="1257.8" y="635.2" class="st0" width="66.2" height="63.5"/>
	<rect x="1323.9" y="635.2" class="st0" width="66.2" height="63.5"/>
	<rect x="1390.1" y="635.2" class="st0" width="66.2" height="63.5"/>
	<rect x="1456.3" y="635.2" class="st0" width="66.2" height="63.5"/>
	<rect x="1522.5" y="635.2" class="st0" width="66.2" height="63.5"/>
	<rect x="1588.6" y="635.2" class="st0" width="66.2" height="63.5"/>
	<rect x="1654.8" y="635.2" class="st0" width="66.2" height="63.5"/>
	<rect x="1721" y="635.2" class="st0" width="66.2" height="63.5"/>
	<rect x="1787.2" y="635.2" class="st0" width="66.2" height="63.5"/>
	<rect x="1853.3" y="635.2" class="st0" width="66.2" height="63.5"/>
	<rect x="0.5" y="698.7" class="st0" width="66.2" height="63.5"/>
	<rect x="66.7" y="698.7" class="st0" width="66.2" height="63.5"/>
	<rect x="132.8" y="698.7" class="st0" width="66.2" height="63.5"/>
	<rect x="199" y="698.7" class="st0" width="66.2" height="63.5"/>
	<rect x="265.2" y="698.7" class="st0" width="66.2" height="63.5"/>
	<rect x="331.4" y="698.7" class="st0" width="66.2" height="63.5"/>
	<rect x="397.5" y="698.7" class="st0" width="66.2" height="63.5"/>
	<rect x="463.7" y="698.7" class="st0" width="66.2" height="63.5"/>
	<rect x="529.9" y="698.7" class="st0" width="66.2" height="63.5"/>
	<rect x="596.1" y="698.7" class="st0" width="66.2" height="63.5"/>
	<rect x="662.2" y="698.7" class="st0" width="66.2" height="63.5"/>
	<rect x="728.4" y="698.7" class="st0" width="66.2" height="63.5"/>
	<rect x="794.6" y="698.7" class="st0" width="66.2" height="63.5"/>
	<rect x="860.7" y="698.7" class="st0" width="66.2" height="63.5"/>
	<rect x="926.9" y="698.7" class="st0" width="66.2" height="63.5"/>
	<rect x="993.1" y="698.7" class="st0" width="66.2" height="63.5"/>
	<rect x="1059.3" y="698.7" class="st0" width="66.2" height="63.5"/>
	<rect x="1125.4" y="698.7" class="st0" width="66.2" height="63.5"/>
	<rect x="1191.6" y="698.7" class="st0" width="66.2" height="63.5"/>
	<rect x="1257.8" y="698.7" class="st0" width="66.2" height="63.5"/>
	<rect x="1323.9" y="698.7" class="st0" width="66.2" height="63.5"/>
	<rect x="1390.1" y="698.7" class="st0" width="66.2" height="63.5"/>
	<rect x="1456.3" y="698.7" class="st0" width="66.2" height="63.5"/>
	<rect x="1522.5" y="698.7" class="st0" width="66.2" height="63.5"/>
	<rect x="1588.6" y="698.7" class="st0" width="66.2" height="63.5"/>
	<rect x="1654.8" y="698.7" class="st0" width="66.2" height="63.5"/>
	<rect x="1721" y="698.7" class="st0" width="66.2" height="63.5"/>
	<rect x="1787.2" y="698.7" class="st0" width="66.2" height="63.5"/>
	<rect x="1853.3" y="698.7" class="st0" width="66.2" height="63.5"/>
	<rect x="0.5" y="762.1" class="st0" width="66.2" height="63.5"/>
	<rect x="66.7" y="762.1" class="st0" width="66.2" height="63.5"/>
	<rect x="132.8" y="762.1" class="st0" width="66.2" height="63.5"/>
	<rect x="199" y="762.1" class="st0" width="66.2" height="63.5"/>
	<rect x="265.2" y="762.1" class="st0" width="66.2" height="63.5"/>
	<rect x="331.4" y="762.1" class="st0" width="66.2" height="63.5"/>
	<rect x="397.5" y="762.1" class="st0" width="66.2" height="63.5"/>
	<rect x="463.7" y="762.1" class="st0" width="66.2" height="63.5"/>
	<rect x="529.9" y="762.1" class="st0" width="66.2" height="63.5"/>
	<rect x="596.1" y="762.1" class="st0" width="66.2" height="63.5"/>
	<rect x="662.2" y="762.1" class="st0" width="66.2" height="63.5"/>
	<rect x="728.4" y="762.1" class="st0" width="66.2" height="63.5"/>
	<rect x="794.6" y="762.1" class="st0" width="66.2" height="63.5"/>
	<rect x="860.7" y="762.1" class="st0" width="66.2" height="63.5"/>
	<rect x="926.9" y="762.1" class="st0" width="66.2" height="63.5"/>
	<rect x="993.1" y="762.1" class="st0" width="66.2" height="63.5"/>
	<rect x="1059.3" y="762.1" class="st0" width="66.2" height="63.5"/>
	<rect x="1125.4" y="762.1" class="st0" width="66.2" height="63.5"/>
	<rect x="1191.6" y="762.1" class="st0" width="66.2" height="63.5"/>
	<rect x="1257.8" y="762.1" class="st0" width="66.2" height="63.5"/>
	<rect x="1323.9" y="762.1" class="st0" width="66.2" height="63.5"/>
	<rect x="1390.1" y="762.1" class="st0" width="66.2" height="63.5"/>
	<rect x="1456.3" y="762.1" class="st0" width="66.2" height="63.5"/>
	<rect x="1522.5" y="762.1" class="st0" width="66.2" height="63.5"/>
	<rect x="1588.6" y="762.1" class="st0" width="66.2" height="63.5"/>
	<rect x="1654.8" y="762.1" class="st0" width="66.2" height="63.5"/>
	<rect x="1721" y="762.1" class="st0" width="66.2" height="63.5"/>
	<rect x="1787.2" y="762.1" class="st0" width="66.2" height="63.5"/>
	<rect x="1853.3" y="762.1" class="st0" width="66.2" height="63.5"/>
	<rect x="0.5" y="825.6" class="st0" width="66.2" height="63.5"/>
	<rect x="66.7" y="825.6" class="st0" width="66.2" height="63.5"/>
	<rect x="132.8" y="825.6" class="st0" width="66.2" height="63.5"/>
	<rect x="199" y="825.6" class="st0" width="66.2" height="63.5"/>
	<rect x="265.2" y="825.6" class="st0" width="66.2" height="63.5"/>
	<rect x="331.4" y="825.6" class="st0" width="66.2" height="63.5"/>
	<rect x="397.5" y="825.6" class="st0" width="66.2" height="63.5"/>
	<rect x="463.7" y="825.6" class="st0" width="66.2" height="63.5"/>
	<rect x="529.9" y="825.6" class="st0" width="66.2" height="63.5"/>
	<rect x="596.1" y="825.6" class="st0" width="66.2" height="63.5"/>
	<rect x="662.2" y="825.6" class="st0" width="66.2" height="63.5"/>
	<rect x="728.4" y="825.6" class="st0" width="66.2" height="63.5"/>
	<rect x="794.6" y="825.6" class="st0" width="66.2" height="63.5"/>
	<rect x="860.7" y="825.6" class="st0" width="66.2" height="63.5"/>
	<rect x="926.9" y="825.6" class="st0" width="66.2" height="63.5"/>
	<rect x="993.1" y="825.6" class="st0" width="66.2" height="63.5"/>
	<rect x="1059.3" y="825.6" class="st0" width="66.2" height="63.5"/>
	<rect x="1125.4" y="825.6" class="st0" width="66.2" height="63.5"/>
	<rect x="1191.6" y="825.6" class="st0" width="66.2" height="63.5"/>
	<rect x="1257.8" y="825.6" class="st0" width="66.2" height="63.5"/>
	<rect x="1323.9" y="825.6" class="st0" width="66.2" height="63.5"/>
	<rect x="1390.1" y="825.6" class="st0" width="66.2" height="63.5"/>
	<rect x="1456.3" y="825.6" class="st0" width="66.2" height="63.5"/>
	<rect x="1522.5" y="825.6" class="st0" width="66.2" height="63.5"/>
	<rect x="1588.6" y="825.6" class="st0" width="66.2" height="63.5"/>
	<rect x="1654.8" y="825.6" class="st0" width="66.2" height="63.5"/>
	<rect x="1721" y="825.6" class="st0" width="66.2" height="63.5"/>
	<rect x="1787.2" y="825.6" class="st0" width="66.2" height="63.5"/>
	<rect x="1853.3" y="825.6" class="st0" width="66.2" height="63.5"/>
	<rect x="0.5" y="889.1" class="st0" width="66.2" height="63.5"/>
	<rect x="66.7" y="889.1" class="st0" width="66.2" height="63.5"/>
	<rect x="132.8" y="889.1" class="st0" width="66.2" height="63.5"/>
	<rect x="199" y="889.1" class="st0" width="66.2" height="63.5"/>
	<rect x="265.2" y="889.1" class="st0" width="66.2" height="63.5"/>
	<rect x="331.4" y="889.1" class="st0" width="66.2" height="63.5"/>
	<rect x="397.5" y="889.1" class="st0" width="66.2" height="63.5"/>
	<rect x="463.7" y="889.1" class="st0" width="66.2" height="63.5"/>
	<rect x="529.9" y="889.1" class="st0" width="66.2" height="63.5"/>
	<rect x="596.1" y="889.1" class="st0" width="66.2" height="63.5"/>
	<rect x="662.2" y="889.1" class="st0" width="66.2" height="63.5"/>
	<rect x="728.4" y="889.1" class="st0" width="66.2" height="63.5"/>
	<rect x="794.6" y="889.1" class="st0" width="66.2" height="63.5"/>
	<rect x="860.7" y="889.1" class="st0" width="66.2" height="63.5"/>
	<rect x="926.9" y="889.1" class="st0" width="66.2" height="63.5"/>
	<rect x="993.1" y="889.1" class="st0" width="66.2" height="63.5"/>
	<rect x="1059.3" y="889.1" class="st0" width="66.2" height="63.5"/>
	<rect x="1125.4" y="889.1" class="st0" width="66.2" height="63.5"/>
	<rect x="1191.6" y="889.1" class="st0" width="66.2" height="63.5"/>
	<rect x="1257.8" y="889.1" class="st0" width="66.2" height="63.5"/>
	<rect x="1323.9" y="889.1" class="st0" width="66.2" height="63.5"/>
	<rect x="1390.1" y="889.1" class="st0" width="66.2" height="63.5"/>
	<rect x="1456.3" y="889.1" class="st0" width="66.2" height="63.5"/>
	<rect x="1522.5" y="889.1" class="st0" width="66.2" height="63.5"/>
	<rect x="1588.6" y="889.1" class="st0" width="66.2" height="63.5"/>
	<rect x="1654.8" y="889.1" class="st0" width="66.2" height="63.5"/>
	<rect x="1721" y="889.1" class="st0" width="66.2" height="63.5"/>
	<rect x="1787.2" y="889.1" class="st0" width="66.2" height="63.5"/>
	<rect x="1853.3" y="889.1" class="st0" width="66.2" height="63.5"/>
	<rect x="0.5" y="952.6" class="st0" width="66.2" height="63.5"/>
	<rect x="66.7" y="952.6" class="st0" width="66.2" height="63.5"/>
	<rect x="132.8" y="952.6" class="st0" width="66.2" height="63.5"/>
	<rect x="199" y="952.6" class="st0" width="66.2" height="63.5"/>
	<rect x="265.2" y="952.6" class="st0" width="66.2" height="63.5"/>
	<rect x="331.4" y="952.6" class="st0" width="66.2" height="63.5"/>
	<rect x="397.5" y="952.6" class="st0" width="66.2" height="63.5"/>
	<rect x="463.7" y="952.6" class="st0" width="66.2" height="63.5"/>
	<rect x="529.9" y="952.6" class="st0" width="66.2" height="63.5"/>
	<rect x="596.1" y="952.6" class="st0" width="66.2" height="63.5"/>
	<rect x="662.2" y="952.6" class="st0" width="66.2" height="63.5"/>
	<rect x="728.4" y="952.6" class="st0" width="66.2" height="63.5"/>
	<rect x="794.6" y="952.6" class="st0" width="66.2" height="63.5"/>
	<rect x="860.7" y="952.6" class="st0" width="66.2" height="63.5"/>
	<rect x="926.9" y="952.6" class="st0" width="66.2" height="63.5"/>
	<rect x="993.1" y="952.6" class="st0" width="66.2" height="63.5"/>
	<rect x="1059.3" y="952.6" class="st0" width="66.2" height="63.5"/>
	<rect x="1125.4" y="952.6" class="st0" width="66.2" height="63.5"/>
	<rect x="1191.6" y="952.6" class="st0" width="66.2" height="63.5"/>
	<rect x="1257.8" y="952.6" class="st0" width="66.2" height="63.5"/>
	<rect x="1323.9" y="952.6" class="st0" width="66.2" height="63.5"/>
	<rect x="1390.1" y="952.6" class="st0" width="66.2" height="63.5"/>
	<rect x="1456.3" y="952.6" class="st0" width="66.2" height="63.5"/>
	<rect x="1522.5" y="952.6" class="st0" width="66.2" height="63.5"/>
	<rect x="1588.6" y="952.6" class="st0" width="66.2" height="63.5"/>
	<rect x="1654.8" y="952.6" class="st0" width="66.2" height="63.5"/>
	<rect x="1721" y="952.6" class="st0" width="66.2" height="63.5"/>
	<rect x="1787.2" y="952.6" class="st0" width="66.2" height="63.5"/>
	<rect x="1853.3" y="952.6" class="st0" width="66.2" height="63.5"/>
	<rect x="0.5" y="1016" class="st0" width="66.2" height="63.5"/>
	<rect x="66.7" y="1016" class="st0" width="66.2" height="63.5"/>
	<rect x="132.8" y="1016" class="st0" width="66.2" height="63.5"/>
	<rect x="199" y="1016" class="st0" width="66.2" height="63.5"/>
	<rect x="265.2" y="1016" class="st0" width="66.2" height="63.5"/>
	<rect x="331.4" y="1016" class="st0" width="66.2" height="63.5"/>
	<rect x="397.5" y="1016" class="st0" width="66.2" height="63.5"/>
	<rect x="463.7" y="1016" class="st0" width="66.2" height="63.5"/>
	<rect x="529.9" y="1016" class="st0" width="66.2" height="63.5"/>
	<rect x="596.1" y="1016" class="st0" width="66.2" height="63.5"/>
	<rect x="662.2" y="1016" class="st0" width="66.2" height="63.5"/>
	<rect x="728.4" y="1016" class="st0" width="66.2" height="63.5"/>
	<rect x="794.6" y="1016" class="st0" width="66.2" height="63.5"/>
	<rect x="860.7" y="1016" class="st0" width="66.2" height="63.5"/>
	<rect x="926.9" y="1016" class="st0" width="66.2" height="63.5"/>
	<rect x="993.1" y="1016" class="st0" width="66.2" height="63.5"/>
	<rect x="1059.3" y="1016" class="st0" width="66.2" height="63.5"/>
	<rect x="1125.4" y="1016" class="st0" width="66.2" height="63.5"/>
	<rect x="1191.6" y="1016" class="st0" width="66.2" height="63.5"/>
	<rect x="1257.8" y="1016" class="st0" width="66.2" height="63.5"/>
	<rect x="1323.9" y="1016" class="st0" width="66.2" height="63.5"/>
	<rect x="1390.1" y="1016" class="st0" width="66.2" height="63.5"/>
	<rect x="1456.3" y="1016" class="st0" width="66.2" height="63.5"/>
	<rect x="1522.5" y="1016" class="st0" width="66.2" height="63.5"/>
	<rect x="1588.6" y="1016" class="st0" width="66.2" height="63.5"/>
	<rect x="1654.8" y="1016" class="st0" width="66.2" height="63.5"/>
	<rect x="1721" y="1016" class="st0" width="66.2" height="63.5"/>
	<rect x="1787.2" y="1016" class="st0" width="66.2" height="63.5"/>
	<rect x="1853.3" y="1016" class="st0" width="66.2" height="63.5"/>
</g>
<g id="Layer_1-2_00000045618246832969959780000008622810737628066213_">
	<g>
		<g>
			<g>
				<path class="st1" d="M746.6,908.9c0.5,0.4,1.1,0.6,1.7,0.7c0.4,0.1,0.8,0.2,1,0.4c1,0.7,2.2,0.8,3.4,0.9c0.2,0,0.3,0,0.5,0.1
					c0,0,0.1,0.1,0.2,0.1c-0.8,0.2-1.5,0.3-2.2,0.6c-0.8,0.3-1.7,0.6-2.5,1.1c-0.8,0.4-0.8,1.2,0,1.6c0.8,0.4,1.7,0.9,2.6,1.1
					c1.6,0.4,3.3,0.8,5,1c1.6,0.3,3.2,0.4,4.8,0.6c2,0.2,4,0.4,6,0.5c1,0.1,2,0.1,2.9,0.1c5.5,0.1,11.1,0.2,16.6,0.1
					c3.3,0,6.5-0.3,9.8-0.5c2.1-0.2,4.3-0.4,6.4-0.8c2-0.3,4-0.7,5.9-1.1c0.9-0.2,1.7-0.6,2.5-1c0.8-0.5,0.9-1.2,0-1.7
					c-0.8-0.4-1.6-0.8-2.4-1c-0.8-0.3-1.6-0.4-2.4-0.6c-0.1,0-0.1-0.1-0.2-0.1c0.4-0.6,0.8-1.1,1.1-1.7c0.1-0.2,0.2-0.4,0.2-0.7
					c-0.1-1.2,0.3-2.3,0.5-3.5c0.1-0.9,0.2-1.7,0.3-2.5l0,0c0.6-1.9,0.2-6.3,0-7.5l0,0c0-0.2,0-0.3,0-0.3l0,0
					c-0.1-0.9-0.3-1.8-0.4-2.7c-0.7-3.4-2-6.5-3.7-9.5c-0.5-1-0.9-2-1.5-2.9c-0.7-1-1.2-2-1.6-3.1c-0.5-1.2-1.4-2.1-2.5-2.8
					c-0.3-0.2-0.5-0.4-0.7-0.6c-0.5-0.5-0.9-1-0.9-1.7c0-0.2-0.1-0.4-0.2-0.7c-0.6,0.2-1.2,0.3-1.8,0.5c-0.5,0.2-0.5,0.2-0.7-0.3
					c-0.3-0.6-0.3-1.2-0.2-1.9c0.1-0.3,0.1-0.6,0.1-0.9c0.2-2.8,0.3-5.5,0.4-8.3c0.1-1.9-0.7-3.5-2-4.9c-0.1-0.1-0.1-0.1-0.1-0.3
					c0.2,0.1,0.3,0.2,0.5,0.3c-0.8-1.6-1.8-2.5-3.7-2.3c0.2-0.4,0.3-0.7,0.4-0.9c0,0,0-0.1,0-0.1c-0.3,0.2-0.5,0.4-0.8,0.6
					c-0.4-0.4-0.9-0.8-1.3-1.1c-0.5-0.4-1.2-0.6-1.9-0.5c-1.3,0.1-2.6-0.2-3.8-0.7c-0.1,0-0.1,0-0.3,0c0.3,0.3,0.5,0.6,0.8,0.9
					c-1.1-0.3-1.9,0.3-2.8,0.5c-0.2,0.1-0.5,0.2-0.7,0.2c-0.8,0.1-1.1-0.2-1.5-0.9c-0.7,0.2-1.2,0.8-1.4,1.7
					c-0.1-0.2-0.1-0.3-0.2-0.5c-0.7,0.2-1.1,0.7-1.3,1.4c-0.2,0.6-0.3,1.2-0.5,1.8c-0.3,1-1,1.4-2,1.5c-0.2,0-0.4,0-0.7,0
					c0.1,0.7,0.4,1.2,0.9,1.6c0.2,0.1,0.2,0.2,0.1,0.4c-0.6,1.3-0.6,2.6,0.1,3.9c0.2,0.4,0.3,0.8,0.5,1.2c0.4-0.1,0.5-0.2,1-1.1
					c0,0,0.1,0.1,0.1,0.1c-0.1,2.3,0.8,4.1,2.2,5.8c0,0,0,0,0,0c0.8,0.6,0.8,1.4,0.7,2.3c0,0.4,0.1,0.7,0.1,1.1c0,0.2,0,0.4,0,0.5
					c-0.1,0-0.1,0.1-0.1,0.1c-0.2,0-0.5-0.1-0.5,0.3c0,0.2,0.2,0.3,0.4,0.4c0.2,0.1,0.4,0.1,0.7,0.1c0.5,0,0.7,0.1,0.8,0.6
					c0,0.3,0,0.5,0.1,0.8c0.3,0,0.5,0.1,0.8,0.1c0.1,0.5,0.3,0.9,1,0.8c0.1,0,0.2,0.2,0.3,0.3c0.2,0.3,0.4,0.7,0.6,1
					c0.2,0.4,0.6,0.6,1.1,0.4c0.8-0.3,1.6-0.7,2.3-1.1c0.6-0.3,1.1-0.8,1.7-1.2c0.2-0.2,0.4-0.2,0.5,0.1c0.1,0.2,0.3,0.5,0.4,0.7
					c0,0.1-0.1,0.3-0.2,0.5c-0.1,0.2-0.3,0.4-0.3,0.7c0,0.7-0.1,1.4-0.6,2c-0.3,0.4-0.3,0.9-0.4,1.4c-0.2,1.1-0.2,2.3-0.4,3.4
					c-0.3,1.3-0.8,2.5-1.2,3.7c-0.1,0.3-0.5,0.5-0.8,0.8c-0.1,0.1-0.3,0.2-0.4,0.2c-0.7-0.4-1.1,0.2-1.7,0.3
					c0.1,0.4,0.1,0.8,0.2,1.3c-1-0.1-1.9-0.1-2.8-0.2c0-0.1,0-0.1,0-0.2h2.2c-0.1-0.8,0.2-1.4,1-1.8c0.2-0.1,0.4-0.2,0.6-0.3
					c0.2-0.1,0.5-0.1,0.7,0c0.2-0.1,0.4-0.3,0.6-0.4c-1.6-1.6-3.2-3.1-5.1-4.3c-1.7-1-3.4-0.9-5,0.1c-1.4,0.9-2.5,2.1-3.6,3.4
					c1.2,0.6,2.4,1.2,3.5,1.7c0,0.1,0,0.1-0.1,0.2c-0.4-0.1-0.8-0.1-1.1-0.3c-1.7-0.9-3.5-1.7-5.4-2.3c-0.8-0.3-1.6-0.3-2.3-0.4
					c-0.4-0.1-0.9-0.1-1.3-0.1l-0.8-0.2l0,0l-2.7-2.3c0,0-0.1-0.1-0.1-0.1c0,0,0,0,0,0l-2.9-2.5c-1.7-1.5-3.4-2.9-5-4.4
					c-0.2,0.3-0.3,0.5,0,0.8c0.9,0.8,1.8,1.5,2.6,2.3c0.1,0.1,0.1,0.2,0.2,0.2l0,0c-0.5-0.4-1.1-0.8-1.6-1.2c-0.6-0.5-1.2-1-2-1.6
					c-0.1,0.6-0.1,1.1-0.2,1.5c-0.2,0.7-0.3,1.4-0.5,2.1c-0.1,0.3-0.1,0.6,0.2,0.8c2.7,1.9,5.3,3.8,7.9,5.7c0.3,0.2,0.5,0.5,0.6,0.9
					c0.2,1.2,0.7,2.4,1.4,3.4c0.1,0.1,0.3,0.3,0.4,0.3c0.7,0,1.4,0,2-0.1c0.7-0.1,1.3-0.3,2-0.4c0.5,0,1.1,0.1,1.5,0.3
					c0.9,0.4,1.8,0.9,2.7,1.4c0.1,0,0.1,0.1,0.2,0.2c-1.7-0.5-3.1-1.7-5-1.2c0.6,0.5,1.2,1,1.7,1.5c-0.8,1.4-1.5,2.8-2.3,4.2
					c-1.1,2.1-2.3,4.2-3.4,6.2c-0.5,1-1.2,1.9-2.2,2.4c-0.2,0.1-0.3,0.1-0.5,0.2c-0.2,0.1-0.3,0.1-0.5,0.2c-0.6,0.1-2.1,0.2-3,0.3
					c-0.2,0-0.4,0-0.7,0.1c-1,0.2-2.1,0.4-3.1,0.7c-0.8,0.2-1.5,0.1-2.3-0.2c-0.5-0.2-1-0.3-1.5-0.5c-0.5,1-0.2,1.9,0.7,2.5
					L746.6,908.9z M762.6,909.7c0.1-1.2,0.5-2.2,1.2-3c1.9-2.2,4-4.1,6.2-5.8c1.7-1.4,3.6-2.5,4.8-4.5c0.9,1.3,1.8,2.6,2.7,3.8
					c0.1,0.1,0.1,0.3,0,0.4c-0.3,1.2-0.7,2.4-1,3.6c-0.1,0.3-0.1,0.5,0.3,0.7c1.2,0.8,2.4,1.6,3.5,2.4c0.7,0.5,1.4,1.1,2.1,1.7
					c0,0.1,0,0.1-0.1,0.1C775.9,909,769.3,909.1,762.6,909.7L762.6,909.7z"/>
			</g>
			<g>
				<path class="st1" d="M761.9,884.2c-1.2-1-2.4-2.1-3.6-3.1c-1.4-1.2-2.7-2.4-4.1-3.6c0.2-0.2,0.3-0.3,0.4-0.4
					c0.6-0.4,1-0.4,1.4,0c2.2,1.9,4.4,3.8,6.6,5.8c0.8,0.7,1.6,1.4,2.5,2.1c-0.8-0.1-1.6-0.3-2.3-0.3
					C762.5,884.7,762.2,884.5,761.9,884.2z"/>
			</g>
		</g>
		<g>
			<ellipse class="st1" cx="779.3" cy="913.4" rx="74.3" ry="4.4"/>
		</g>
		<g>
			<path class="st2" d="M184.5,863c7.4,6.6,13.6,18.2,10.5,28.3c-2.9,9.5-14.2,14.9-23.5,15c-10,0-19.5-4.8-27.2-11.1
				C132.2,885,123.7,871,118.9,856c-4.8-15-6-31.1-5-46.8c2.2,9,5.2,17.8,8.9,26.2c0.4,0.9,0.9,2,1.9,2.2c0.8,0.2,1.7-0.2,2.5-0.7
				c10.5-6.1,20.9-12.3,31.4-18.4c5.9-3.4,12-7,18.8-7.2c8-0.3,15.5,3.9,22.4,8c14,8.3,27.9,16.6,41.9,24.8
				c4.9,2.9,10.1,6.1,12.5,11.3c1.8,3.8,1.8,8.2,1.9,12.4c0,19,0.1,38.1,0.1,57.1c0,5.8-0.1,12.2-3.8,16.7
				c-4.4,5.5-12.4,6.4-19.5,5.9c-22.7-1.6-44.3-13.9-57.2-32.8c11.4-0.4,23.6-7.2,25-19.4C202,879.3,192.1,864.6,184.5,863
				 M160.9,860.6c-7.2-0.1-13.4,6-13.5,13.4c-0.2,7.5,6.2,14.2,13.7,14.3c7.4,0.1,14.1-6.6,14-14
				C174.9,866.5,168.9,860.7,160.9,860.6"/>
		</g>
		<g>
			<path class="st1" d="M265.1,956.5c-2.9,2.7-5.7,3.1-8.4,3.7c-12,2.7-24.2,4-36.4,4.9c-3.9,0.3-7.2,1.6-10.4,3.5
				c-7,4.1-14.1,8.1-21.2,12.1c-6.7,3.7-13.6,3.7-20.2,0.1c-18.7-10.2-37.1-21.1-55.5-31.9c-9-5.3-12.4-13.1-12.3-23.1
				c0.1-19.9,0.1-39.7,0.2-59.6c0-6.8,1.8-13.1,7.3-17.7c2.2-1.8,3.5-2,4,1.3c3.3,19.6,11.1,37.2,23.8,52.5
				c5.9,7.1,13.4,12.6,20.8,18.1c12.6,9.3,26,17.2,40.5,23c20,8,40.7,12.9,62.4,12.9C261.1,956.3,262.7,956.4,265.1,956.5"/>
		</g>
		<g>
			<path class="st1" d="M791.9,827.6c0,0,0.1-0.1,0.2-0.2C792.1,827.5,792.1,827.6,791.9,827.6L791.9,827.6L791.9,827.6L791.9,827.6
				L791.9,827.6"/>
		</g>
		<g>
			<path class="st1" d="M831.6,811.1c0.1,0,0.3,0.1,0.3,0.1c0.1,0,0,0.2,0.1,0.3C831.9,811.4,831.7,811.2,831.6,811.1L831.6,811.1"
				/>
		</g>
		<g>
			<path class="st3" d="M787,877.7c0-0.4,0.1-0.7,0.1-1.1c0.1,0.1,0.3,0.1,0.3,0.2C787.6,877.3,787.3,877.5,787,877.7L787,877.7"/>
		</g>
		<g>
			<path class="st3" d="M791.9,827.6c0,0,0.1-0.1,0.2-0.2C792.1,827.5,792.1,827.6,791.9,827.6L791.9,827.6L791.9,827.6L791.9,827.6
				L791.9,827.6"/>
		</g>
		<g>
			<path class="st3" d="M806.9,816.4l-0.2,0.1C806.6,816.5,806.8,816.4,806.9,816.4L806.9,816.4L806.9,816.4z"/>
		</g>
		<g>
			<path class="st3" d="M791.8,827.7c-0.4,0.2-0.9,0.4-1.3,0.7c0-0.2-0.1-0.4-0.1-0.5C790.8,827.7,791.3,827.7,791.8,827.7"/>
		</g>
		<g>
			<polygon class="st1" points="828.7,801.7 831.4,805.4 836,805.3 833.3,809 834.9,813.4 830.5,812 826.9,814.8 826.8,810.2 
				823,807.6 827.4,806.2 			"/>
		</g>
		<g>
			<polygon class="st1" points="803.9,841.3 805.7,843.7 808.6,843.6 806.9,846 807.8,848.7 805.1,847.8 802.8,849.6 802.7,846.7 
				800.3,845.1 803.1,844.1 			"/>
		</g>
		<g>
			<polygon class="st1" points="812.8,852.5 812.7,855.4 815.1,857.1 812.3,858 811.4,860.8 809.7,858.3 806.8,858.4 808.6,856 
				807.7,853.3 810.4,854.2 			"/>
		</g>
		<g>
			<path class="st1" d="M829.7,827.9c-0.1,1.5-0.5,2.1-3,2.5c-26.5,1.8-35.5,7.3-40.2,10.2c3.5-3.6,21.3-14.6,40.6-15.7
				C828.7,825.1,829.8,826.4,829.7,827.9z"/>
		</g>
		<g>
			<path class="st1" d="M778.6,820.2c0.9,1.2,1.1,1.9-0.5,3.9c-18.2,19.4-21.1,29.5-22.4,34.8c0.1-5,5.7-25.2,19.1-39.2
				C775.9,818.8,777.6,819,778.6,820.2L778.6,820.2z"/>
		</g>
		<g>
			<path class="st1" d="M760.1,857.4c3.9-10.3,10.8-19.2,18.5-27c2.6-2.6,5.3-5.1,8.2-7.4c5.8-4.5,11.7-9,17.9-13
				c5-3.3,10.4-6.1,16-8.3c1.6-0.7,3.2-0.3,4.8,0.7l0.2,0.5c-0.3,1.4-0.8,2.3-1.7,3.1c-0.7,0.6-1.6,0.9-2.4,1.3
				c-1.6,0.8-3.3,1.5-4.9,2.2c-3.3,1.5-6.6,2.9-9.8,4.4c-6.5,3-12.9,6.6-18.5,11.1c-2.7,2.2-5.7,4.6-8.3,6.9
				C772.1,839.3,764.7,847.6,760.1,857.4L760.1,857.4L760.1,857.4z"/>
		</g>
		<g>
			<path class="st1" d="M762.1,858.9c6.7-11.1,17.9-21.3,29-28c3.3-1.9,6.7-3.8,10.1-5.6c0.7-0.4,2.7-1.4,3.4-1.8
				c0.8-0.4,2.7-1.3,3.5-1.7c5.5-2.5,11.2-4.5,17.1-5.6c1.6-0.3,3,0.3,4.2,1.6l0.1,0.5c-0.5,1.2-1.1,2.1-2,2.7
				c-0.7,0.5-1.6,0.5-2.4,0.8c-1.2,0.3-2.4,0.6-3.6,0.9c-4,1-8,2-12,3.1c-2.7,0.8-5.6,1.8-8.2,2.8c-3.8,1.5-7.6,3.5-11.1,5.7
				C779.6,840.8,769.5,848.8,762.1,858.9L762.1,858.9L762.1,858.9z"/>
		</g>
		<g>
			<path class="st1" d="M760.3,859.5c6-10.1,13.7-19.2,22.3-27.1c7.6-6.8,16.3-12.3,25.4-17c3.1-1.5,6.3-2.7,9.7-3.5
				c1.9-0.6,3.9-0.6,5.5,0.9l0.1,0.6c-0.6,1.5-1.6,2.5-3.1,2.9c-1.1,0.4-2.3,0.8-3.4,1.2c-5.3,1.9-10.8,3.6-15.8,6.3
				C785.1,832.7,771.3,845.1,760.3,859.5L760.3,859.5L760.3,859.5z"/>
		</g>
		<g>
			<g>
				<path class="st4" d="M395.2,932.5h6.9c2.8,0,4.7,1.7,4.7,4.2c0,2.2-1.5,3.9-3.8,4.1l4.8,7.7h-2.5l-4.8-7.7h-3.3v7.7h-2.1V932.5z
					 M402.1,939c1.6,0,2.6-0.9,2.6-2.3s-1-2.3-2.6-2.3h-4.8v4.6H402.1z"/>
			</g>
			<g>
				<path class="st4" d="M409.2,942.5v-10h2.1v10c0,2.6,1.8,4.4,4.3,4.4c2.5,0,4.2-1.9,4.2-4.4v-10h2.1v10c0,3.6-2.7,6.2-6.3,6.2
					C411.9,948.8,409.2,946.2,409.2,942.5z"/>
			</g>
			<g>
				<path class="st4" d="M425.1,932.5h2.3l9,13.1v-13.1h2.1v16h-2.3l-9-13.1v13.1h-2.1V932.5z"/>
			</g>
			<g>
				<path class="st4" d="M447.4,932.5h6.9c2.9,0,4.7,1.6,4.7,4c0,1.2-0.7,2.5-1.7,3.2c1.8,0.7,3,2.4,3,4.3c0,2.7-2,4.6-5,4.6h-8
					V932.5z M454.3,939c1.6,0,2.6-0.9,2.6-2.3s-1.1-2.3-2.6-2.3h-4.8v4.6H454.3z M455.4,946.7c1.7,0,2.9-1.1,2.9-2.9
					c0-1.8-1.1-2.9-2.8-2.9h-5.9v5.8H455.4z"/>
			</g>
			<g>
				<path class="st4" d="M465.3,943l-5.2-10.5h2.3l4,8.2l3.9-8.2h2.3l-5.2,10.5v5.5h-2.1V943z"/>
			</g>
			<g>
				<path class="st4" d="M480.4,932.5h2.1v16h-2.1V932.5z"/>
			</g>
			<g>
				<path class="st4" d="M486.2,932.5h2.1v16h-2.1V932.5z"/>
			</g>
			<g>
				<path class="st4" d="M491.6,932.5h2.8l5.7,13.4l5.7-13.4h2.8v16h-2.1v-13.5l-5.6,13.5h-1.6l-5.6-13.5v13.5h-2.1V932.5z"/>
			</g>
			<g>
				<path class="st4" d="M526.5,943.2h-6.6l-2.1,5.4h-2.2l6.6-16h2.2l6.6,16h-2.2L526.5,943.2z M525.7,941.3l-2.5-6.4l-2.5,6.4
					H525.7z"/>
			</g>
			<g>
				<path class="st4" d="M532.6,932.5h2.1v14.2h8.3v1.9h-10.4V932.5z"/>
			</g>
			<g>
				<path class="st4" d="M545.2,942.5v-10h2.1v10c0,2.6,1.8,4.4,4.3,4.4c2.5,0,4.2-1.9,4.2-4.4v-10h2.1v10c0,3.6-2.7,6.2-6.3,6.2
					C547.9,948.8,545.2,946.2,545.2,942.5z"/>
			</g>
			<g>
				<path class="st4" d="M561.2,932.5h2.8l5.7,13.4l5.7-13.4h2.8v16h-2.1v-13.5l-5.6,13.5h-1.6l-5.6-13.5v13.5h-2.1V932.5z"/>
			</g>
			<g>
				<path class="st4" d="M581.5,932.5h2.3l9,13.1v-13.1h2.1v16h-2.3l-9-13.1v13.1h-2.1V932.5z"/>
			</g>
			<g>
				<path class="st4" d="M598.7,932.5h2.1v16h-2.1V932.5z"/>
			</g>
		</g>
		<g>
			<g>
				<path class="st2" d="M305.4,864.2v48.4c0,0.4-0.4,0.8-0.8,0.8h-9.1c-0.4,0-0.8-0.4-0.8-0.8v-48.4c0-0.4,0.4-0.8,0.8-0.8h9.1
					C305.1,863.4,305.4,863.8,305.4,864.2z"/>
			</g>
			<g>
				<path class="st2" d="M349,873.7c1,2.3,1.5,4.5,1.5,6.8c0,2.3-0.5,4.5-1.5,6.7c-0.9,2.1-2.2,3.9-3.9,5.4
					c-3.4,3.3-7.6,4.9-12.5,4.9h-5.5c-0.4,0-0.8,0.4-0.8,0.8v14.2c0,0.4-0.4,0.8-0.8,0.8h-9.1c-0.4,0-0.8-0.4-0.8-0.8v-48.4
					c0-0.4,0.4-0.8,0.8-0.8h16.1c4.9,0,9.1,1.6,12.5,4.9C346.8,869.9,348.1,871.7,349,873.7z M332.6,886.9c2,0,3.7-0.6,5.1-1.9
					s2.1-2.8,2.1-4.5c0-1.8-0.7-3.3-2.1-4.6c-1.4-1.3-3.1-1.9-5.1-1.9h-5.5c-0.4,0-0.8,0.4-0.8,0.8v11.3c0,0.4,0.4,0.8,0.8,0.8
					H332.6z"/>
			</g>
			<g>
				<path class="st2" d="M383.9,892l23.9-28.3c0.4-0.5,1.2-0.2,1.2,0.4v48.6c0,0.4-0.3,0.7-0.7,0.7H399c-0.4,0-0.7-0.3-0.7-0.7
					v-19.5c0-0.6-0.8-0.9-1.2-0.4l-13.2,15.7c-0.3,0.3-0.7,0.3-1,0l-13.2-15.7c-0.4-0.5-1.2-0.2-1.2,0.4v19.5c0,0.4-0.3,0.7-0.7,0.7
					h-9.4c-0.4,0-0.7-0.3-0.7-0.7v-48.7c0-0.6,0.8-0.9,1.2-0.4l23.9,28.3C383.2,892.3,383.7,892.3,383.9,892z"/>
			</g>
			<g>
				<path class="st2" d="M450.2,899.4c3,3,6.6,4.5,10.9,4.5c4.1,0,7.6-1.3,10.5-4c0.3-0.2,0.7-0.3,0.9,0l6.6,6.5
					c0.3,0.3,0.3,0.7,0,1c-2.3,2.2-5.1,4-8.2,5.2c-3.1,1.3-6.4,1.9-9.8,1.9c-3.3,0-6.6-0.6-9.9-1.9c-3.2-1.3-6.1-3.2-8.6-5.7
					c-2.5-2.5-4.4-5.4-5.7-8.6c-1.3-3.2-1.9-6.5-1.9-9.9s0.6-6.6,1.9-9.9c1.3-3.2,3.2-6.1,5.7-8.6c2.5-2.5,5.4-4.4,8.6-5.7
					c3.2-1.3,6.5-1.9,9.9-1.9c3.4,0,6.6,0.6,9.8,1.9c3.1,1.3,5.8,3,8.2,5.2c0.3,0.3,0.3,0.7,0,1l-6.6,6.6c-0.3,0.3-0.7,0.3-0.9,0
					c-2.9-2.7-6.4-4-10.5-4c-4.3,0-7.9,1.5-10.9,4.5c-3,3-4.5,6.6-4.5,10.9C445.7,892.6,447.2,896.3,450.2,899.4z"/>
			</g>
			<g>
				<path class="st2" d="M519.5,913l-3.2-6.7c-0.1-0.2-0.4-0.4-0.6-0.4h-17.5c-0.3,0-0.5,0.1-0.6,0.4l-3.3,6.7
					c-0.1,0.2-0.4,0.4-0.6,0.4h-10.3c-0.5,0-0.8-0.5-0.6-1l23.6-48.8c0.2-0.5,1-0.5,1.2,0l23.5,48.8c0.2,0.5-0.1,1-0.6,1h-10.3
					C519.9,913.4,519.6,913.3,519.5,913z M502.9,897.4h8c0.5,0,0.8-0.5,0.6-1l-4-8.3c-0.2-0.5-1-0.5-1.2,0l-4,8.3
					C502,896.9,502.3,897.4,502.9,897.4z"/>
			</g>
			<g>
				<path class="st2" d="M565.9,894.6l9.7,17.8c0.3,0.5-0.1,1-0.6,1h-10.6c-0.2,0-0.5-0.1-0.6-0.4l-14.7-26.6c-0.3-0.5,0.1-1,0.6-1
					h7.3c1.9,0,3.7-0.6,4.9-2.1c0.9-1,1.3-2.3,1.3-3.7c0-1.6-0.6-2.9-1.7-4c-1.1-1.1-2.4-1.7-4-1.7h-9.2c-0.4,0-0.7,0.3-0.7,0.7v38
					c0,0.4-0.3,0.7-0.7,0.7h-9.3c-0.4,0-0.7-0.3-0.7-0.7v-48.6c0-0.4,0.3-0.7,0.7-0.7l19.6,0c4.1,0,8.2,1.4,11.2,4.2
					c3.6,3.4,5.4,7.4,5.4,12.1c0,4.5-1.6,8.4-4.9,11.6c-0.9,0.9-1.9,1.7-3,2.4C565.8,893.9,565.7,894.3,565.9,894.6z"/>
			</g>
			<g>
				<path class="st2" d="M594,902.7h19.6c0.4,0,0.7,0.3,0.7,0.7v9.3c0,0.4-0.3,0.7-0.7,0.7h-30.2c-0.4,0-0.7-0.3-0.7-0.7v-48.6
					c0-0.4,0.3-0.7,0.7-0.7h28.8c0.4,0,0.7,0.3,0.7,0.7v9.3c0,0.4-0.3,0.7-0.7,0.7H594c-0.4,0-0.7,0.3-0.7,0.7v6.5
					c0,0.4,0.3,0.7,0.7,0.7h16.6c0.4,0,0.7,0.3,0.7,0.7v9.3c0,0.4-0.3,0.7-0.7,0.7H594c-0.4,0-0.7,0.3-0.7,0.7v8.8
					C593.3,902.4,593.6,902.7,594,902.7z"/>
			</g>
			<g>
				<path class="st2" d="M633.3,902.7h19.6c0.4,0,0.7,0.3,0.7,0.7v9.3c0,0.4-0.3,0.7-0.7,0.7h-30.2c-0.4,0-0.7-0.3-0.7-0.7v-48.6
					c0-0.4,0.3-0.7,0.7-0.7h28.8c0.4,0,0.7,0.3,0.7,0.7v9.3c0,0.4-0.3,0.7-0.7,0.7h-18.1c-0.4,0-0.7,0.3-0.7,0.7v6.5
					c0,0.4,0.3,0.7,0.7,0.7H650c0.4,0,0.7,0.3,0.7,0.7v9.3c0,0.4-0.3,0.7-0.7,0.7h-16.6c-0.4,0-0.7,0.3-0.7,0.7v8.8
					C632.6,902.4,632.9,902.7,633.3,902.7z"/>
			</g>
			<g>
				<path class="st2" d="M690.2,894.6l9.7,17.8c0.3,0.5-0.1,1-0.6,1h-10.6c-0.2,0-0.5-0.1-0.6-0.4l-14.7-26.6c-0.3-0.5,0.1-1,0.6-1
					h7.3c1.9,0,3.7-0.6,4.9-2.1c0.9-1,1.3-2.3,1.3-3.7c0-1.6-0.6-2.9-1.7-4c-1.1-1.1-2.4-1.7-4-1.7h-9.2c-0.4,0-0.7,0.3-0.7,0.7v38
					c0,0.4-0.3,0.7-0.7,0.7H662c-0.4,0-0.7-0.3-0.7-0.7v-48.6c0-0.4,0.3-0.7,0.7-0.7l19.6,0c4.1,0,8.2,1.4,11.2,4.2
					c3.6,3.4,5.4,7.4,5.4,12.1c0,4.5-1.6,8.4-4.9,11.6c-0.9,0.9-1.9,1.7-3,2.4C690.1,893.9,690,894.3,690.2,894.6z"/>
			</g>
			<g>
				<path class="st2" d="M734.2,884.7c2.1,1.3,3.7,2.9,4.7,5c1.1,2.2,1.7,4.7,1.7,7.6c0,2.3-0.5,4.6-1.5,6.8c-1,2.2-2.4,4-4,5.5
					c-3.7,3.3-8.1,4.9-13.4,4.9c-3.3,0-6.5-0.7-9.4-2c-2.9-1.3-5.4-3-7.6-5.3c-0.3-0.3-0.3-0.7,0-1l6.7-6.4c0.3-0.3,0.7-0.2,0.9,0
					c2.7,2.6,5.8,3.9,9.3,3.9c2.6,0,4.7-0.7,6.2-2.2c1.4-1.2,2.1-2.6,2.1-4.3s-0.4-2.9-1.3-3.5c-0.9-0.6-3.1-1.3-6.7-1.9
					c-4.6-0.9-7.8-1.9-9.9-3.2c-4.2-2.5-6.3-6.3-6.3-11.7c0-4.5,1.5-8.1,4.5-10.8c2.8-2.6,6.6-3.9,11.4-3.9c2.5,0,5.3,0.4,8.3,1.3
					c2.7,0.8,5.1,1.9,7.2,3.4c0.3,0.2,0.4,0.7,0.1,1l-5.7,7.4c-0.2,0.3-0.6,0.3-0.9,0.1c-1-0.7-2.2-1.2-3.7-1.7
					c-1.8-0.5-3.6-0.8-5.3-0.8c-2.1,0-3.5,0.4-4.3,1.2c-0.6,0.6-1,1.6-1,2.9c0,0.4,0,0.7,0,1c0,0.3,0.1,0.5,0.2,0.7
					c0.1,0.2,0.2,0.3,0.3,0.4c0.1,0.1,0.2,0.2,0.3,0.3c0.1,0.1,0.2,0.2,0.3,0.3c0.9,0.5,3,1.1,6.3,1.7
					C728.5,882.2,732,883.3,734.2,884.7z"/>
			</g>
		</g>
	</g>
</g>
<linearGradient id="SVGID_1_" gradientUnits="userSpaceOnUse" x1="1771.5327" y1="531.0813" x2="871.0665" y2="578.2341">
	<stop  offset="0" style="stop-color:#8A3882"/>
	<stop  offset="1" style="stop-color:#E7A425"/>
</linearGradient>
<path class="st5" d="M1754.1,425.2v527.3h-595.6V425.2c0-164.5,133.3-297.8,297.8-297.8c11.2,0,22.2,0.6,33.1,1.8
	c69,7.6,130.9,38.8,177.5,85.4C1720.7,268.5,1754.1,343,1754.1,425.2z"/>
<linearGradient id="SVGID_00000044177998315050443500000016573120608698276741_" gradientUnits="userSpaceOnUse" x1="1845.4106" y1="531.2266" x2="1062.9773" y2="565.0982">
	<stop  offset="0" style="stop-color:#8A3882"/>
	<stop  offset="1" style="stop-color:#E7A425"/>
</linearGradient>
<path style="fill:url(#SVGID_00000044177998315050443500000016573120608698276741_);" d="M1754.1,425.2v527.3h-529.4V425.2
	c0-153.3,115.8-279.5,264.7-296c69,7.6,130.9,38.8,177.5,85.4C1720.7,268.5,1754.1,343,1754.1,425.2z"/>
<g>
	<g>
		<path class="st7" d="M1458.9,447.3l-19.5,81.2c0,0,6.7,9.4,9.4,12.1c2.7,2.7,8.7,2.7,10.7,2.7s77.8,1.3,77.8,1.3l14.9-99.3"/>
		<line class="st7" x1="1475.1" y1="432" x2="1468.9" y2="431.9"/>
		<polyline class="st7" points="1443.5,529.8 1525.3,529.5 1542.7,433.2 1482.7,432.1 		"/>
		<polyline class="st7" points="1448.2,530.5 1454.9,537.9 1533.4,539.9 1547.6,453.8 1541.4,445.3 		"/>
		<path class="st8" d="M1461.9,534.7h11.4c0,0-1.9,9-2.8,17.5c-0.9,8.5-1.4,19.4-1.4,19.4l-6.6-12.3l-8,10.4L1461.9,534.7z"/>
	</g>
	<g>
		<path class="st7" d="M983.1,552.5l48.4-19.5c0,0,2.4-6.8,2.7-9.2c0.4-2.3-1.8-5.4-2.5-6.4c-0.7-1-27.5-40.1-27.5-40.1l-56,28.4"/>
		<line class="st7" x1="969.4" y1="549.8" x2="971.6" y2="553"/>
		<polyline class="st7" points="1030.7,530.5 1000.9,488.9 945.5,514.9 966.7,545.9 		"/>
		<polyline class="st7" points="1029.3,527.9 1030.7,521.8 1003.3,481.1 954.3,505 952.2,511.2 		"/>
		<path class="st8" d="M1026.5,519.3l-4.1-5.8c0,0,5.3-2.3,9.9-4.9c4.7-2.6,10.4-6.3,10.4-6.3l-3.9,7.8l8.2,0.3L1026.5,519.3z"/>
	</g>
	<g>
		<polyline class="st7" points="981.9,628.5 978.1,630.4 1012,695.3 1068.7,634.9 1138,613.5 1103.4,558.2 1100.3,558.4 		"/>
		<path class="st7" d="M1032.6,573.7l30.2,54.5c0,0-13.3-2.9-16.2,9.6c-2.9,12.5-16.2,28.7-22.1,36.1c-5.9,7.4-11.8,12.5-11.8,12.5
			l-32.4-61.9c0,0,15.5-12.5,22.9-30.2C1010.5,576.6,1022.3,571.5,1032.6,573.7z"/>
		<path class="st7" d="M1062.8,628.2c0,0,3.7-11.1,12.5-11.8c8.8-0.7,25.1,2.2,39.1-2.2c14-4.4,16.2-5.9,16.2-5.9l-33.9-55.3
			c0,0-8.1,6.6-28.7,6.6c-20.6,0-33.2,3.7-35.4,14L1062.8,628.2z"/>
		<path class="st7" d="M1065.1,634.1c0,0-5.2,2.2-10.3,6.6c-5.2,4.4-9.6,12.5-18.4,23.6"/>
		<path class="st7" d="M1071,629.7c0,0,5.2-6.6,13.3-7.4c8.1-0.7,22.1-0.7,45-9.6"/>
		<path class="st7" d="M991.3,632.7c0,0,7.4-8.1,17.7-22.9s17.7-20.6,25.8-20.6"/>
		<path class="st7" d="M997.2,642.2c0,0,7.4-8.1,17.7-22.9c10.3-14.7,17.7-20.6,25.8-20.6"/>
		<path class="st7" d="M1003.1,651.8c0,0,7.4-8.1,17.7-22.9c10.3-14.7,17.7-20.6,25.8-20.6"/>
		<path class="st7" d="M1009,661.4c0,0,7.4-8.1,17.7-22.9c10.3-14.7,17.7-20.6,25.8-20.6"/>
		<path class="st7" d="M1045.2,584.7c0,0,2.9-8.1,14-8.1c11.1,0,35.5-1,38.3-9.6"/>
		<path class="st7" d="M1051.8,595.8c0,0,5.2-6.6,19.2-6.6s26.5-2.9,34.6-11.1"/>
		<path class="st7" d="M1056.2,606.9c0,0,4.4-9.6,17-9.6c12.5,0,28-2.2,36.9-8.8"/>
		<path class="st7" d="M1061.4,615c0,0,2.2-7.4,14.7-8.1c12.5-0.7,28-3.7,39.8-8.8"/>
	</g>
	<g>
		<polyline class="st7" points="1383.3,297.2 1381.3,295 1344.1,328.8 1394.1,356.1 1420.3,398.5 1451.1,365.9 1450.4,363.9 		"/>
		<path class="st7" d="M1428.6,321.5l-31.1,29.6c0,0-0.3-9.3-9.2-9.1c-8.8,0.2-21.9-5.8-27.9-8.5c-5.9-2.6-10.4-5.7-10.4-5.7
			l35.6-32.3c0,0,11,8.1,24.1,10C1422.8,307.3,1428.2,314.2,1428.6,321.5z"/>
		<path class="st7" d="M1397.5,351c0,0,8,0.5,10,6.3c2,5.8,2.9,17.1,8.2,25.6c5.4,8.6,6.7,9.8,6.7,9.8l30.9-32.1c0,0-5.8-4.2-9.4-18
			c-3.6-13.7-8.2-21.4-15.4-21.1L1397.5,351z"/>
		<path class="st7" d="M1394,353.5c0,0-2.4-3.1-6.2-5.7c-3.8-2.7-10-4.2-18.9-8.2"/>
		<path class="st7" d="M1397.9,356.7c0,0,5.3,2.3,7.2,7.6c1.9,5.3,4.3,14.6,14.2,28.3"/>
		<path class="st7" d="M1382.2,304.2c0,0,6.7,3.5,18.3,7.8c11.6,4.3,16.8,8.2,18.2,13.6"/>
		<path class="st7" d="M1376.8,309.8c0,0,6.7,3.5,18.3,7.8c11.6,4.3,16.8,8.2,18.2,13.6"/>
		<path class="st7" d="M1371.5,315.4c0,0,6.7,3.5,18.3,7.8c11.6,4.3,16.8,8.2,18.2,13.6"/>
		<path class="st7" d="M1366.1,321c0,0,6.7,3.5,18.3,7.8c11.6,4.3,16.8,8.2,18.2,13.6"/>
		<path class="st7" d="M1423.4,331.7c0,0,5.9,0.6,7.8,7.9c1.9,7.4,6.8,23.4,13,23.8"/>
		<path class="st7" d="M1417.2,338.1c0,0,5.3,2.3,7.7,11.6c2.4,9.3,6.6,17.1,13.4,21.1"/>
		<path class="st7" d="M1410.6,342.9c0,0,7.1,1.3,9.3,9.6c2.2,8.3,6.3,18.3,12.3,23"/>
		<path class="st7" d="M1406.1,347.8c0,0,5.3,0.2,7.9,8.4s7.3,18,12.8,25"/>
	</g>
	<g>
		<polyline class="st7" points="1113.7,370.6 1082.7,419.1 1089.4,420.8 1120.4,374.8 1169.8,403.2 1176.4,396.5 1122,368.1 		"/>
		<polyline class="st7" points="1120.4,374.8 1133.8,455.1 1174.8,478.6 1168.9,407.4 		"/>
		<polyline class="st7" points="1174.8,478.6 1181.5,466 1176.4,396.5 		"/>
		<polyline class="st7" points="1133.8,455.1 1106.1,492.8 1091.9,427.5 		"/>
		<polyline class="st7" points="1082.7,419.1 1098.6,491.9 1106.1,492.8 		"/>
		<line class="st7" x1="1122" y1="402.4" x2="1100.3" y2="432.5"/>
		<line class="st7" x1="1123.7" y1="416.6" x2="1102" y2="446.7"/>
		<line class="st7" x1="1125.4" y1="430.8" x2="1103.6" y2="461"/>
		<line class="st7" x1="1127.1" y1="445.1" x2="1105.3" y2="475.2"/>
		<line class="st7" x1="1131.2" y1="403.2" x2="1160.5" y2="420"/>
		<line class="st7" x1="1131.2" y1="416.6" x2="1160.5" y2="433.4"/>
		<line class="st7" x1="1135.4" y1="430.8" x2="1164.7" y2="447.6"/>
		<line class="st7" x1="1136.3" y1="445.1" x2="1165.6" y2="461.8"/>
	</g>
	<g>
		<polyline class="st7" points="1537.7,723 1563.7,671.6 1556.8,670.6 1530.7,719.5 1478.7,696.2 1472.7,703.5 1529.7,726.4 		"/>
		<polyline class="st7" points="1530.7,719.5 1509.2,640.9 1466.1,621.7 1479.1,691.9 		"/>
		<polyline class="st7" points="1466.1,621.7 1460.7,634.9 1472.7,703.5 		"/>
		<polyline class="st7" points="1509.2,640.9 1532.9,600.7 1553.7,664.2 		"/>
		<polyline class="st7" points="1563.7,671.6 1540.5,600.7 1532.9,600.7 		"/>
		<line class="st7" x1="1526.2" y1="692.2" x2="1544.8" y2="660"/>
		<line class="st7" x1="1523.1" y1="678.2" x2="1541.7" y2="646.1"/>
		<line class="st7" x1="1520" y1="664.2" x2="1538.6" y2="632.1"/>
		<line class="st7" x1="1516.9" y1="650.2" x2="1535.5" y2="618.1"/>
		<line class="st7" x1="1517" y1="692.3" x2="1486.1" y2="678.6"/>
		<line class="st7" x1="1515.6" y1="679" x2="1484.8" y2="665.3"/>
		<line class="st7" x1="1510" y1="665.2" x2="1479.2" y2="651.5"/>
		<line class="st7" x1="1507.8" y1="651.2" x2="1476.9" y2="637.5"/>
	</g>
</g>
<g>
	<g>
		<g>
			<path class="st2" d="M1425.3,749.7c-5.2,12.8-10.5,2.5-9.7-51.3c0.4-25.2,2.2-76.7,30.1-65.4c26.8,10.9-8.5,87.1-8.5,87.1
				L1425.3,749.7z M1463.6,757.4c0,0,58.1-60.6,36.3-79.6c-22.7-19.8-41.1,28.4-49.7,52.1c-18.3,50.6-16.6,62.1-7.5,51.7
				L1463.6,757.4z M1475.9,811.7c0,0,53.2-37.9,39.3-55.6c-14.5-18.4-35.5,15.7-45.5,32.6c-21.3,36.1-21.7,45.1-13.2,38.4
				L1475.9,811.7z M1490.3,865.9c0,0,53.2-37.9,39.3-55.6c-14.5-18.4-35.5,15.7-45.5,32.6c-21.3,36.1-21.7,45.1-13.2,38.4
				L1490.3,865.9z M1397.3,756.9c0,0-74.5-38.8-86.6-12.5c-12.6,27.3,38.8,31.5,64,33c53.7,3.3,64.3-1.5,51.7-7.3L1397.3,756.9z
				 M1407.8,799.6c0,0-80.7-23.2-87.4,5c-6.9,29.3,44.3,23.1,69.2,19.7c53.3-7.4,62.7-14.3,49.2-17.5L1407.8,799.6z M1426.3,846.2
				c0,0-68.8-17.7-73.8,6.2c-5.2,24.9,38,18.5,59,15c44.9-7.5,52.7-13.5,41.2-15.9L1426.3,846.2z M1437.1,884.6
				c0,0-66.5-24.9-74-1.6c-7.8,24.2,35.8,22.5,57.1,21.2c45.4-2.7,53.8-7.9,42.7-11.4L1437.1,884.6z M1392.5,690
				c0,0-30.4-94.4-64.8-77.2c-35.9,17.8,5.6,60.4,26.3,80.8c44.2,43.5,57.9,46.5,52.1,31.3L1392.5,690z"/>
			<path class="st9" d="M1425.3,749.7c-5.2,12.8-10.5,2.5-9.7-51.3c0.4-25.2,2.2-76.7,30.1-65.4c26.8,10.9-8.5,87.1-8.5,87.1
				L1425.3,749.7z M1463.6,757.4c0,0,58.1-60.6,36.3-79.6c-22.7-19.8-41.1,28.4-49.7,52.1c-18.3,50.6-16.6,62.1-7.5,51.7
				L1463.6,757.4z M1475.9,811.7c0,0,53.2-37.9,39.3-55.6c-14.5-18.4-35.5,15.7-45.5,32.6c-21.3,36.1-21.7,45.1-13.2,38.4
				L1475.9,811.7z M1490.3,865.9c0,0,53.2-37.9,39.3-55.6c-14.5-18.4-35.5,15.7-45.5,32.6c-21.3,36.1-21.7,45.1-13.2,38.4
				L1490.3,865.9z M1397.3,756.9c0,0-74.5-38.8-86.6-12.5c-12.6,27.3,38.8,31.5,64,33c53.7,3.3,64.3-1.5,51.7-7.3L1397.3,756.9z
				 M1407.8,799.6c0,0-80.7-23.2-87.4,5c-6.9,29.3,44.3,23.1,69.2,19.7c53.3-7.4,62.7-14.3,49.2-17.5L1407.8,799.6z M1426.3,846.2
				c0,0-68.8-17.7-73.8,6.2c-5.2,24.9,38,18.5,59,15c44.9-7.5,52.7-13.5,41.2-15.9L1426.3,846.2z M1437.1,884.6
				c0,0-66.5-24.9-74-1.6c-7.8,24.2,35.8,22.5,57.1,21.2c45.4-2.7,53.8-7.9,42.7-11.4L1437.1,884.6z M1392.5,690
				c0,0-30.4-94.4-64.8-77.2c-35.9,17.8,5.6,60.4,26.3,80.8c44.2,43.5,57.9,46.5,52.1,31.3L1392.5,690z"/>
			<path class="st10" d="M1342.1,646.4c0,0,76.3,93,94.5,139.6c21,53.5,35.2,113.8,38.1,163.7"/>
			<line class="st10" x1="1421.4" y1="755.6" x2="1432" y2="666.9"/>
			<line class="st10" x1="1436.6" y1="786" x2="1475" y2="711.4"/>
			<line class="st10" x1="1431" y1="774.9" x2="1350.7" y2="758.6"/>
			<line class="st10" x1="1451.7" y1="828.3" x2="1499" y2="774.5"/>
			<line class="st10" x1="1445.1" y1="810.6" x2="1384.5" y2="810.1"/>
			<line class="st10" x1="1456.8" y1="854.6" x2="1410.3" y2="856.5"/>
			<line class="st10" x1="1466.3" y1="882.7" x2="1491.3" y2="849.5"/>
			<line class="st10" x1="1468.2" y1="895.1" x2="1413.8" y2="892.4"/>
		</g>
	</g>
	<g>
		<g>
			<path class="st2" d="M1572,823.2c-9.4,3.5-6.5-4.4,22.5-30.4c13.6-12.2,41.9-36.6,49.6-16.2c7.4,19.6-50.5,38.3-50.5,38.3
				L1572,823.2z M1586.8,847.3c0,0,60.8,1.1,60.2-19.8c-0.6-21.8-35.3-7.9-52.1-0.8c-35.9,15.2-41.2,21.7-31.2,21.4L1586.8,847.3z
				 M1563.9,880.6c0,0,46.3,9.7,48.9-6.4c2.7-16.8-25.8-11.2-39.7-8.2c-29.6,6.4-34.6,10.6-26.9,11.9L1563.9,880.6z M1542.1,914.9
				c0,0,46.3,9.7,48.9-6.4c2.7-16.8-25.8-11.2-39.7-8.2c-29.6,6.4-34.6,10.6-26.9,11.9L1542.1,914.9z M1554.4,811.9
				c0,0-16-58.7-35.9-52.2c-20.7,6.7,2.3,36.1,13.9,50.3c24.6,30.2,32.4,33.4,29.3,23.9L1554.4,811.9z M1536.8,838.4
				c0,0-27.3-54.3-45.6-44c-19,10.7,9.4,34.9,23.6,46.5c30.2,24.7,38.4,26.3,33.5,17.6L1536.8,838.4z M1521.2,871.1
				c0,0-24.4-45.3-39.6-36.2c-15.8,9.5,8.8,29.3,21,38.8c26.1,20.2,33.1,21.4,28.7,14.1L1521.2,871.1z M1506,895.7
				c0,0-19.4-47.6-35.5-40.2c-16.7,7.8,5.6,30.1,16.8,40.8c23.8,22.8,30.6,24.8,27,17.1L1506,895.7z M1587.7,776.4
				c0,0,35.3-62.5,9.2-72.4c-27.1-10.3-29.4,32.7-30,53.7c-1.4,44.9,3.7,53.7,8.9,43.1L1587.7,776.4z"/>
			<path class="st11" d="M1572,823.2c-9.4,3.5-6.5-4.4,22.5-30.4c13.6-12.2,41.9-36.6,49.6-16.2c7.4,19.6-50.5,38.3-50.5,38.3
				L1572,823.2z M1586.8,847.3c0,0,60.8,1.1,60.2-19.8c-0.6-21.8-35.3-7.9-52.1-0.8c-35.9,15.2-41.2,21.7-31.2,21.4L1586.8,847.3z
				 M1563.9,880.6c0,0,46.3,9.7,48.9-6.4c2.7-16.8-25.8-11.2-39.7-8.2c-29.6,6.4-34.6,10.6-26.9,11.9L1563.9,880.6z M1542.1,914.9
				c0,0,46.3,9.7,48.9-6.4c2.7-16.8-25.8-11.2-39.7-8.2c-29.6,6.4-34.6,10.6-26.9,11.9L1542.1,914.9z M1554.4,811.9
				c0,0-16-58.7-35.9-52.2c-20.7,6.7,2.3,36.1,13.9,50.3c24.6,30.2,32.4,33.4,29.3,23.9L1554.4,811.9z M1536.8,838.4
				c0,0-27.3-54.3-45.6-44c-19,10.7,9.4,34.9,23.6,46.5c30.2,24.7,38.4,26.3,33.5,17.6L1536.8,838.4z M1521.2,871.1
				c0,0-24.4-45.3-39.6-36.2c-15.8,9.5,8.8,29.3,21,38.8c26.1,20.2,33.1,21.4,28.7,14.1L1521.2,871.1z M1506,895.7
				c0,0-19.4-47.6-35.5-40.2c-16.7,7.8,5.6,30.1,16.8,40.8c23.8,22.8,30.6,24.8,27,17.1L1506,895.7z M1587.7,776.4
				c0,0,35.3-62.5,9.2-72.4c-27.1-10.3-29.4,32.7-30,53.7c-1.4,44.9,3.7,53.7,8.9,43.1L1587.7,776.4z"/>
			<path class="st10" d="M1586.1,728.2c0,0-12,86.3-27.8,118.9c-18.2,37.5-45.6,77.3-70.7,103.4"/>
			<line class="st10" x1="1567" y1="824" x2="1619.4" y2="786.1"/>
			<line class="st10" x1="1558.3" y1="847.1" x2="1616.8" y2="830.8"/>
			<line class="st10" x1="1561.4" y1="838.6" x2="1530.6" y2="787.9"/>
			<line class="st10" x1="1543.2" y1="875.9" x2="1595" y2="874.6"/>
			<line class="st10" x1="1549.4" y1="863.7" x2="1519.8" y2="831.1"/>
			<line class="st10" x1="1531.7" y1="891.5" x2="1507.8" y2="867.7"/>
			<line class="st10" x1="1521.4" y1="910.4" x2="1551.3" y2="907.3"/>
			<line class="st10" x1="1515.7" y1="917.4" x2="1490.4" y2="887.2"/>
		</g>
	</g>
</g>
<g>
	<g>
		<g>
			<path class="st2" d="M1124.7,749.7c5.2,12.8,10.5,2.5,9.7-51.3c-0.4-25.2-2.2-76.7-30.1-65.4c-26.8,10.9,8.5,87.1,8.5,87.1
				L1124.7,749.7z M1086.4,757.4c0,0-58.1-60.6-36.3-79.6c22.7-19.8,41.1,28.4,49.7,52.1c18.3,50.6,16.6,62.1,7.5,51.7L1086.4,757.4
				z M1074.1,811.7c0,0-53.2-37.9-39.3-55.6c14.5-18.4,35.5,15.7,45.5,32.6c21.3,36.1,21.7,45.1,13.2,38.4L1074.1,811.7z
				 M1059.7,865.9c0,0-53.2-37.9-39.3-55.6c14.5-18.4,35.5,15.7,45.5,32.6c21.3,36.1,21.7,45.1,13.2,38.4L1059.7,865.9z
				 M1152.7,756.9c0,0,74.5-38.8,86.6-12.5c12.6,27.3-38.8,31.5-64,33c-53.7,3.3-64.3-1.5-51.7-7.3L1152.7,756.9z M1142.2,799.6
				c0,0,80.7-23.2,87.4,5c6.9,29.3-44.3,23.1-69.2,19.7c-53.3-7.4-62.7-14.3-49.2-17.5L1142.2,799.6z M1123.7,846.2
				c0,0,68.8-17.7,73.8,6.2c5.2,24.9-38,18.5-59,15c-44.9-7.5-52.7-13.5-41.2-15.9L1123.7,846.2z M1112.9,884.6
				c0,0,66.5-24.9,74-1.6c7.8,24.2-35.8,22.5-57.1,21.2c-45.4-2.7-53.8-7.9-42.7-11.4L1112.9,884.6z M1157.5,690
				c0,0,30.4-94.4,64.8-77.2c35.9,17.8-5.6,60.4-26.3,80.8c-44.2,43.5-57.9,46.5-52.1,31.3L1157.5,690z"/>
			<path class="st9" d="M1124.7,749.7c5.2,12.8,10.5,2.5,9.7-51.3c-0.4-25.2-2.2-76.7-30.1-65.4c-26.8,10.9,8.5,87.1,8.5,87.1
				L1124.7,749.7z M1086.4,757.4c0,0-58.1-60.6-36.3-79.6c22.7-19.8,41.1,28.4,49.7,52.1c18.3,50.6,16.6,62.1,7.5,51.7L1086.4,757.4
				z M1074.1,811.7c0,0-53.2-37.9-39.3-55.6c14.5-18.4,35.5,15.7,45.5,32.6c21.3,36.1,21.7,45.1,13.2,38.4L1074.1,811.7z
				 M1059.7,865.9c0,0-53.2-37.9-39.3-55.6c14.5-18.4,35.5,15.7,45.5,32.6c21.3,36.1,21.7,45.1,13.2,38.4L1059.7,865.9z
				 M1152.7,756.9c0,0,74.5-38.8,86.6-12.5c12.6,27.3-38.8,31.5-64,33c-53.7,3.3-64.3-1.5-51.7-7.3L1152.7,756.9z M1142.2,799.6
				c0,0,80.7-23.2,87.4,5c6.9,29.3-44.3,23.1-69.2,19.7c-53.3-7.4-62.7-14.3-49.2-17.5L1142.2,799.6z M1123.7,846.2
				c0,0,68.8-17.7,73.8,6.2c5.2,24.9-38,18.5-59,15c-44.9-7.5-52.7-13.5-41.2-15.9L1123.7,846.2z M1112.9,884.6
				c0,0,66.5-24.9,74-1.6c7.8,24.2-35.8,22.5-57.1,21.2c-45.4-2.7-53.8-7.9-42.7-11.4L1112.9,884.6z M1157.5,690
				c0,0,30.4-94.4,64.8-77.2c35.9,17.8-5.6,60.4-26.3,80.8c-44.2,43.5-57.9,46.5-52.1,31.3L1157.5,690z"/>
			<path class="st10" d="M1207.9,646.4c0,0-76.3,93-94.5,139.6c-21,53.5-35.2,113.8-38.1,163.7"/>
			<line class="st10" x1="1128.5" y1="755.6" x2="1117.9" y2="666.9"/>
			<line class="st10" x1="1113.4" y1="786" x2="1075" y2="711.4"/>
			<line class="st10" x1="1119" y1="774.9" x2="1199.3" y2="758.6"/>
			<line class="st10" x1="1098.3" y1="828.3" x2="1051" y2="774.5"/>
			<line class="st10" x1="1104.9" y1="810.6" x2="1165.5" y2="810.1"/>
			<line class="st10" x1="1093.2" y1="854.6" x2="1139.7" y2="856.5"/>
			<line class="st10" x1="1083.6" y1="882.7" x2="1058.7" y2="849.5"/>
			<line class="st10" x1="1081.8" y1="895.1" x2="1136.2" y2="892.4"/>
		</g>
	</g>
	<g>
		<g>
			<path class="st2" d="M978,823.2c9.4,3.5,6.5-4.4-22.5-30.4c-13.6-12.2-41.9-36.6-49.6-16.2c-7.4,19.6,50.5,38.3,50.5,38.3
				L978,823.2z M963.2,847.3c0,0-60.8,1.1-60.2-19.8c0.6-21.8,35.3-7.9,52.1-0.8c35.9,15.2,41.2,21.7,31.2,21.4L963.2,847.3z
				 M986.1,880.6c0,0-46.3,9.7-48.9-6.4c-2.7-16.8,25.8-11.2,39.7-8.2c29.6,6.4,34.6,10.6,26.9,11.9L986.1,880.6z M1007.9,914.9
				c0,0-46.3,9.7-48.9-6.4c-2.7-16.8,25.8-11.2,39.7-8.2c29.6,6.4,34.6,10.6,26.9,11.9L1007.9,914.9z M995.6,811.9
				c0,0,16-58.7,35.9-52.2c20.7,6.7-2.3,36.1-13.9,50.3c-24.6,30.2-32.4,33.4-29.3,23.9L995.6,811.9z M1013.1,838.4
				c0,0,27.3-54.3,45.6-44c19,10.7-9.4,34.9-23.6,46.5c-30.2,24.7-38.4,26.3-33.5,17.6L1013.1,838.4z M1028.8,871.1
				c0,0,24.4-45.3,39.6-36.2c15.8,9.5-8.8,29.3-21,38.8c-26.1,20.2-33.1,21.4-28.7,14.1L1028.8,871.1z M1043.9,895.7
				c0,0,19.4-47.6,35.5-40.2c16.7,7.8-5.6,30.1-16.8,40.8c-23.8,22.8-30.6,24.8-27,17.1L1043.9,895.7z M962.3,776.4
				c0,0-35.3-62.5-9.2-72.4c27.1-10.3,29.4,32.7,30,53.7c1.4,44.9-3.7,53.7-8.9,43.1L962.3,776.4z"/>
			<path class="st11" d="M978,823.2c9.4,3.5,6.5-4.4-22.5-30.4c-13.6-12.2-41.9-36.6-49.6-16.2c-7.4,19.6,50.5,38.3,50.5,38.3
				L978,823.2z M963.2,847.3c0,0-60.8,1.1-60.2-19.8c0.6-21.8,35.3-7.9,52.1-0.8c35.9,15.2,41.2,21.7,31.2,21.4L963.2,847.3z
				 M986.1,880.6c0,0-46.3,9.7-48.9-6.4c-2.7-16.8,25.8-11.2,39.7-8.2c29.6,6.4,34.6,10.6,26.9,11.9L986.1,880.6z M1007.9,914.9
				c0,0-46.3,9.7-48.9-6.4c-2.7-16.8,25.8-11.2,39.7-8.2c29.6,6.4,34.6,10.6,26.9,11.9L1007.9,914.9z M995.6,811.9
				c0,0,16-58.7,35.9-52.2c20.7,6.7-2.3,36.1-13.9,50.3c-24.6,30.2-32.4,33.4-29.3,23.9L995.6,811.9z M1013.1,838.4
				c0,0,27.3-54.3,45.6-44c19,10.7-9.4,34.9-23.6,46.5c-30.2,24.7-38.4,26.3-33.5,17.6L1013.1,838.4z M1028.8,871.1
				c0,0,24.4-45.3,39.6-36.2c15.8,9.5-8.8,29.3-21,38.8c-26.1,20.2-33.1,21.4-28.7,14.1L1028.8,871.1z M1043.9,895.7
				c0,0,19.4-47.6,35.5-40.2c16.7,7.8-5.6,30.1-16.8,40.8c-23.8,22.8-30.6,24.8-27,17.1L1043.9,895.7z M962.3,776.4
				c0,0-35.3-62.5-9.2-72.4c27.1-10.3,29.4,32.7,30,53.7c1.4,44.9-3.7,53.7-8.9,43.1L962.3,776.4z"/>
			<path class="st10" d="M963.9,728.2c0,0,12,86.3,27.8,118.9c18.2,37.5,45.6,77.3,70.7,103.4"/>
			<line class="st10" x1="983" y1="824" x2="930.6" y2="786.1"/>
			<line class="st10" x1="991.7" y1="847.1" x2="933.2" y2="830.8"/>
			<line class="st10" x1="988.6" y1="838.6" x2="1019.4" y2="787.9"/>
			<line class="st10" x1="1006.8" y1="875.9" x2="955" y2="874.6"/>
			<line class="st10" x1="1000.6" y1="863.7" x2="1030.2" y2="831.1"/>
			<line class="st10" x1="1018.3" y1="891.5" x2="1042.2" y2="867.7"/>
			<line class="st10" x1="1028.6" y1="910.4" x2="998.7" y2="907.3"/>
			<line class="st10" x1="1034.2" y1="917.4" x2="1059.5" y2="887.2"/>
		</g>
	</g>
</g>
<g>
	<g>
		<g>
			<g>
				<rect x="1150.9" y="743.4" class="st12" width="195.9" height="40.1"/>
				<g>
					<line class="st7" x1="1152.9" y1="753.8" x2="1187.3" y2="753.8"/>
					<line class="st7" x1="1198.8" y1="764.8" x2="1203.5" y2="764.8"/>
					<line class="st7" x1="1152.4" y1="764.8" x2="1191" y2="764.8"/>
					<line class="st7" x1="1153.2" y1="776.1" x2="1169.1" y2="776.1"/>
				</g>
			</g>
			<g>
				<defs>
					<path id="XMLID_1_" d="M1306.6,744.8c0,0-5.5,17.1,0,37.8h79c0,0-8.3-24,0-37.8H1306.6z"/>
				</defs>
				<use xlink:href="#XMLID_1_"  style="overflow:visible;fill:#FFFFFF;"/>
				<clipPath id="XMLID_00000121279039358101888920000017240856709684771226_">
					<use xlink:href="#XMLID_1_"  style="overflow:visible;"/>
				</clipPath>
				
					<path style="opacity:0.24;clip-path:url(#XMLID_00000121279039358101888920000017240856709684771226_);stroke:#1A2E35;stroke-linecap:round;stroke-linejoin:round;stroke-miterlimit:10;" d="
					M1306.6,744.8c0,0-5.5,17.1,0,37.8h79c0,0-8.3-24,0-37.8H1306.6z"/>
				
					<use xlink:href="#XMLID_1_"  style="overflow:visible;fill:none;stroke:#1A2E35;stroke-linecap:round;stroke-linejoin:round;stroke-miterlimit:10;"/>
			</g>
			<path class="st14" d="M1153.2,776.1v-27.4c0-1.4,1.1-2.5,2.5-2.5h233c1.1,0,1.9-0.9,1.9-1.9l0,0c0-1.1-0.9-1.9-1.9-1.9h-239.3
				c-1.4,0-2.5,1.1-2.5,2.5V780c0,2.3,1.8,4.1,4.1,4.1h237.7c1.1,0,1.9-0.9,1.9-1.9l0,0c0-1.1-0.9-1.9-1.9-1.9h-231.4
				C1155.1,780.2,1153.2,778.4,1153.2,776.1z"/>
		</g>
		<g>
			<g>
				<rect x="1150.9" y="826.2" class="st12" width="195.9" height="40.1"/>
				<g>
					<line class="st7" x1="1154.2" y1="833.9" x2="1188.6" y2="833.9"/>
					<line class="st7" x1="1200" y1="844.9" x2="1204.7" y2="844.9"/>
					<line class="st7" x1="1153.7" y1="844.9" x2="1192.2" y2="844.9"/>
					<line class="st7" x1="1154.5" y1="856.2" x2="1170.3" y2="856.2"/>
				</g>
			</g>
			<g>
				<defs>
					<path id="XMLID_2_" d="M1307.9,827.6c0,0-5.5,17.1,0,37.8h77.7c0,0-8.3-24,0-37.8H1307.9z"/>
				</defs>
				<use xlink:href="#XMLID_2_"  style="overflow:visible;fill:#FFFFFF;"/>
				<clipPath id="XMLID_00000108295835636509744870000014738720608693716903_">
					<use xlink:href="#XMLID_2_"  style="overflow:visible;"/>
				</clipPath>
				
					<path style="opacity:0.24;clip-path:url(#XMLID_00000108295835636509744870000014738720608693716903_);stroke:#1A2E35;stroke-linecap:round;stroke-linejoin:round;stroke-miterlimit:10;" d="
					M1307.9,827.6c0,0-5.5,17.1,0,37.8h77.7c0,0-8.3-24,0-37.8H1307.9z"/>
				
					<use xlink:href="#XMLID_2_"  style="overflow:visible;fill:none;stroke:#1A2E35;stroke-linecap:round;stroke-linejoin:round;stroke-miterlimit:10;"/>
			</g>
			<path class="st14" d="M1153.2,858.9v-27.4c0-1.4,1.1-2.5,2.5-2.5h233c1.1,0,1.9-0.9,1.9-1.9l0,0c0-1.1-0.9-1.9-1.9-1.9h-239.3
				c-1.4,0-2.5,1.1-2.5,2.5v35.1c0,2.3,1.8,4.1,4.1,4.1h237.7c1.1,0,1.9-0.9,1.9-1.9l0,0c0-1.1-0.9-1.9-1.9-1.9h-231.4
				C1155.1,863,1153.2,861.2,1153.2,858.9z"/>
		</g>
		<g>
			<g>
				<path class="st12" d="M1153.4,904.5c1.4-4.6,6.4-23.6,0.2-35.8h225.5v35.8H1153.4z"/>
				<g>
					<line class="st7" x1="1288" y1="876.6" x2="1253.6" y2="876.6"/>
					<line class="st7" x1="1242.2" y1="887.6" x2="1237.5" y2="887.6"/>
					<line class="st7" x1="1288.6" y1="887.6" x2="1250" y2="887.6"/>
					<line class="st7" x1="1287.7" y1="898.9" x2="1271.9" y2="898.9"/>
				</g>
			</g>
			<path class="st14" d="M1289.3,900.9v-27.4c0-1.4-1.1-2.5-2.5-2.5h-137.9c-1.1,0-1.9-0.9-1.9-1.9l0,0c0-1.1,0.9-1.9,1.9-1.9h239.3
				c1.4,0,2.5,1.1,2.5,2.5v35.1c0,2.3-1.8,4.1-4.1,4.1h-237.7c-1.1,0-1.9-0.9-1.9-1.9l0,0c0-1.1,0.9-1.9,1.9-1.9h136.4
				C1287.5,905,1289.3,903.2,1289.3,900.9z"/>
		</g>
		<g>
			<g>
				<path class="st12" d="M1153.4,946.5c1.4-4.6,6.4-23.6,0.2-35.8h225.5v35.8H1153.4z"/>
				<g>
					<line class="st7" x1="1287.9" y1="918.9" x2="1253.5" y2="918.9"/>
					<line class="st7" x1="1242.1" y1="929.8" x2="1237.4" y2="929.8"/>
					<line class="st7" x1="1288.4" y1="929.8" x2="1249.9" y2="929.8"/>
					<line class="st7" x1="1287.6" y1="941.2" x2="1271.8" y2="941.2"/>
				</g>
			</g>
			<path class="st16" d="M1289.3,942.9v-27.4c0-1.4-1.1-2.5-2.5-2.5h-137.9c-1.1,0-1.9-0.9-1.9-1.9l0,0c0-1.1,0.9-1.9,1.9-1.9h239.3
				c1.4,0,2.5,1.1,2.5,2.5v35.1c0,2.3-1.8,4.1-4.1,4.1h-237.7c-1.1,0-1.9-0.9-1.9-1.9l0,0c0-1.1,0.9-1.9,1.9-1.9h136.4
				C1287.5,947,1289.3,945.2,1289.3,942.9z"/>
		</g>
		<g>
			<g>
				<path class="st12" d="M1153.4,820.5c1.4-4.6,6.4-23.6,0.2-35.8h225.5v35.8H1153.4z"/>
				<g>
					<line class="st7" x1="1288.5" y1="792.7" x2="1254.1" y2="792.7"/>
					<line class="st7" x1="1242.7" y1="803.6" x2="1238" y2="803.6"/>
					<line class="st7" x1="1289" y1="803.6" x2="1250.5" y2="803.6"/>
					<line class="st7" x1="1288.2" y1="815" x2="1272.4" y2="815"/>
				</g>
			</g>
			<path class="st16" d="M1289.3,816.9v-27.4c0-1.4-1.1-2.5-2.5-2.5h-137.9c-1.1,0-1.9-0.9-1.9-1.9l0,0c0-1.1,0.9-1.9,1.9-1.9h239.3
				c1.4,0,2.5,1.1,2.5,2.5v35.1c0,2.3-1.8,4.1-4.1,4.1h-237.7c-1.1,0-1.9-0.9-1.9-1.9l0,0c0-1.1,0.9-1.9,1.9-1.9h136.4
				C1287.5,821,1289.3,819.2,1289.3,816.9z"/>
		</g>
	</g>
	<g>
		<path class="st14" d="M1236.2,653.7c0,0-19.2,0.6-47-6.2c-27.8-6.8-50.7-1.9-55,24.7c-4.3,26.6,66.7,53.7,116.1,63.6
			c49.4,9.9,98.8,14.2,122.9,3.7c24.1-10.5,23.5-48.2,14.2-65.5c-9.3-17.3-40.2-19.8-56.2-17.3
			C1315.3,659.3,1236.2,653.7,1236.2,653.7z"/>
		<path class="st14" d="M1361,537.6c-2.7-17.8-5.3-35.6-7.9-53.4c-2.5-16.5-3.5-34.2-7.8-50.4c-5.6-24.1-13.9-37.1-38.9-41.7
			c-25-4.6-52.8,22.2-52.8,34.3c0,12,8.6,39.2-4.6,82c-4.5,14.6,13,16.7,34.1,10.2L1361,537.6z"/>
		<g>
			<path class="st16" d="M1293.8,500.5c0,0-30.6,4.2-44.9,7.9c-14.4,3.7-19.5,9-24.6,18.7c-5.1,9.7-12.9,46.2-20.3,61.5
				c-7.4,15.3-20.9,19.4-23.2,35.6c-2.3,16.2,10.7,21.8,20.4,23.6c9.7,1.9,21.8,2.3,21.8,2.3s15.8,37.1,46.3,39.8
				c30.6,2.8,53.3-18.5,67.2-26.4c13.9-7.9,14.8-25.9,15.3-46.8c0.5-20.8,12.8-67.7,9.5-80.7c-3.2-13-8.1-15.1-29.1-25.9
				C1323.1,505.6,1306.8,499.6,1293.8,500.5z"/>
			<path class="st12" d="M1197.7,598.2c-7.1,8.5-15.2,13.8-16.9,26.1c-0.4,2.8-0.3,5.2,0.1,7.3c1.9,2.9,7.7,9.6,19,6.4
				c14.2-4,12.6-23.8,4-35.9C1202.2,599.6,1200,598.4,1197.7,598.2z"/>
		</g>
		<path class="st12" d="M1291.6,563.1c13-5.9,20-16.2,25.9-35.6c2.8-9.1,4.4-16.3,5.3-21.4c-8.8-3.4-19.8-6.2-29-5.6
			c0,0-13.2,1.8-26.3,4.1c-1.1,6.8-3.7,26.2-0.7,40.7C1270.6,563.1,1278.7,569,1291.6,563.1z"/>
		<path class="st7" d="M1230.3,630.7c0,0,9.3-23.2,9.3-29.7c0-6.5-4.2-13-7.4-21.3c-3.2-8.3,5.1-22.2,5.1-22.2s5.3-40.3,10.1-47.3"
			/>
		<path class="st12" d="M1186.3,585.3l6.9-7.4c0,0,4.3,2.7,14.4,6c18.8,6.3,27.3,10.2,28.3,21.3c0,0,12.5-7.9,25-6.5
			c12.5,1.4,23.6,6.5,27.3,6.9c3.7,0.5,3.7,0.5,3.7,0.5l0.9,6.5l-6.9,36.6l-54.2-5.6l-37.1-32.4L1186.3,585.3z"/>
		<polygon class="st14" points="1184,583.9 1228,621.4 1232.6,614 1295.7,612.6 1291.9,653.4 1232.2,650.6 1228,653.4 1195.6,629.3 
					"/>
		<g>
			<path class="st12" d="M1337.4,571.4l-0.9,52.8c0,0-27.3,15.3-42.6,19.5s-24.6,4.2-25.9,4.2s-7.4-9.7-10.7-13s-5.9-3.3-11.8-6.3
				c-8.3-4.1-11.8-4.9-11.4-3c0.5,1.9,0.9,3.7,5.1,6c4.2,2.3,6.9,4.2,6.9,4.2l0.9,1.9c0,0-10.2-1.4-14.4-2.3s-14.8-8.3-14.8-8.3
				s-4.5-0.3-1.3,5.3s6.4,5.8,6.4,5.8s0.9,5.6,4.6,8.8c3.7,3.2,6.5,5.1,6.5,5.1s-8.8-2.3-7.9,0c0.9,2.3,6.5,3.2,13.4,6.5
				c6.9,3.2,22.7,3.7,31.5,5.1c8.8,1.4,29.7,2.8,48.2,0.9c18.5-1.9,46.3-14.4,51.4-18.5c5.1-4.2,1.9-51,0.5-61.6
				c-1.4-10.7-4.2-30.6-6-39.8c-1.9-9.3-9.3-22.2-13.9-25C1346.6,516.7,1338.3,525.5,1337.4,571.4z"/>
			<g>
				<path class="st12" d="M1222.9,638.1c0,0,11,6.5,19.3,8.4"/>
				<path class="st12" d="M1234,652c0,0,5.9,2.3,10.9,2.3"/>
				<path class="st12" d="M1224.3,642.8c0,0,7.8,6,19.3,8.7"/>
			</g>
		</g>
		<path class="st16" d="M1324.8,663.7c18.1-3.4,41.3-14,45.9-17.7c5.1-4.2,1.9-51,0.5-61.6c-1.4-10.7-4.2-30.6-6-39.8
			c-1.9-9.3-9.3-22.2-13.9-25c-4.6-2.8-13,6-13.9,51.9l-0.9,52.8c0,0-10.6,5.9-22.3,11.4C1318.6,640.6,1326.2,650.9,1324.8,663.7z"
			/>
		<g>
			<path class="st12" d="M1277.4,495c0,0-4.1,24-4.6,38.9c-0.4,14.9,10.8,29.8,26.5,10.8c15.7-19.1,13.3-50.5,13.3-50.5
				S1296.4,502.9,1277.4,495z"/>
			<path class="st7" d="M1278.6,505.4c0,0,0.8,12.8-0.4,19.9"/>
		</g>
		<g>
			<path class="st12" d="M1185.2,619.3c0,0-1.2,3.3,0.7,6.3c1.9,3.1,11.8,8.9,11.8,6.6c0-2.4-4.9-5.6-5.2-7.3c-0.2-1.6-1.6-4-1.6-4
				S1187.4,616.5,1185.2,619.3z"/>
			<path class="st12" d="M1180.5,605.6c0,0-0.5,6.9,0.7,10.1c1.2,3.2,13.6,11.8,16.7,10.1c3.2-1.6-6.6-10.1-8.9-12.8
				C1186.7,610.3,1180.5,605.6,1180.5,605.6z"/>
			<path class="st12" d="M1180.5,597.2c0,0-0.9,6.8,0,10.1c0.9,3.3,12.7,12.7,16,11.3c3.3-1.4-5.9-10.6-8-13.4
				C1186.4,602.4,1180.5,597.2,1180.5,597.2z"/>
			<path class="st12" d="M1186.2,589.4c0,0-7.1-3.8-8.2,0.9c-1.2,4.7,4.2,9.6,9.2,13.6c4.9,4,7.1,3.3,7.1-0.5
				S1186.2,589.4,1186.2,589.4z"/>
		</g>
		<path class="st12" d="M1185.5,736.5c0,0-9.3,4.9-26.6,5.6c-17.3,0.6-31.5-8.6-23.5-16.1c8-7.4,20.4-11.7,31.5-9.9
			c11.1,1.9,27.8,6.2,27.8,6.2L1185.5,736.5z"/>
		<path class="st12" d="M1188,721c0.8,0.1,1.7,0.2,2.6,0.2c-5.7-1.4-16-3.8-23.6-5.1c-11.1-1.9-23.5,2.5-31.5,9.9
			c-4.1,3.8-2.4,8,2.5,11.2c-0.3-3.5,0.4-9.2,7.4-12.5C1155.9,719.8,1177.5,719.8,1188,721z"/>
		<g>
			<path class="st14" d="M1378.9,685.2c0,0-18.5,27.8-37.1,38.9c-18.5,11.1-103.2,12.4-120.5,12.4c-17.3,0-35.8,0-35.8,0v-13
				c0,0,56.8-8,88.3-25.9c31.5-17.9,48.2-37.7,72.9-45.7c24.7-8,46.3,5.6,45.7,38.9"/>
			<g>
				<path class="st17" d="M1366.4,706.5c-10,9.4-27.3,21.8-54,26.7"/>
				<path class="st17" d="M1378.6,691.4c0,0-1.5,3.1-5.2,7.6"/>
				<path class="st17" d="M1285,694.2c0,0-12,10.2-29.7,11.1"/>
			</g>
		</g>
		<path class="st14" d="M1174.6,658.8c-0.7-0.1-1.4-0.1-2-0.2"/>
		<path class="st12" d="M1348.6,739c0,0,15.4-5.6,28.4-7.4c13-1.9,23.5,0,27.2,8c3.7,8,1.2,17.9-11.7,20.4
			c-13,2.5-36.4-2.5-38.9-2.5c-2.5,0-6.2-1.9-6.2-1.9L1348.6,739z"/>
		<path class="st12" d="M1389.3,731.1c3.9,1.5,11.4,5.7,10,15.3c-1.9,13-17.3,13-27.8,13c-0.8,0-1.6,0.1-2.3,0.3
			c7.8,0.9,16.8,1.5,23.3,0.3c13-2.5,15.4-12.4,11.7-20.4C1401.8,734.3,1396.4,731.7,1389.3,731.1z"/>
		<g>
			<path class="st14" d="M1167.6,645.1c0,0-21-3.7-34.6,6.8c-13.6,10.5-11.7,21.6,1.2,37.7c13,16.1,46.3,44.5,118.6,57.5
				c72.3,13,94.5,8.6,94.5,8.6l1.2-16.7c0,0-45.1,2.5-86.5-27.8c-40.5-29.6-58.5-49.1-87.5-52.3"/>
			<path class="st17" d="M1166.5,659.1c-2.2,0.1-4.4,0.4-6.6,0.8"/>
			<path class="st17" d="M1339.7,738.7c0,0-42.6-0.9-90.8-38c-34.1-26.2-54.2-37.6-70.3-40.7"/>
		</g>
		<g>
			<path class="st12" d="M1339.3,469.3c-11.4,6-12.9-6-12.9-13.3c0.1-0.1,0.2-0.2,0.2-0.3c0.8-3.3,0-20-9.6-26.6
				c-8.4-5.9-19.6-10.9-30.1-11c-7.4,0-13.9,4.7-17.8,10.6c-4.7,7.1-4.3,15.3-4.7,23.5c-0.4,8.3-1.2,17.2,0.5,25.4
				c2.2,10.9,12.4,33.9,24.8,33.9c11.3,0,31.2-16.8,38.1-26.8c0.8-0.2,2.4-0.9,4.2-2.4C1334.5,480.2,1339.6,476.5,1339.3,469.3z"/>
			<path class="st7" d="M1289.7,462c0,0-5.1,15.7-4.7,17.5c0.4,1.8,6.6,0,6.6,0"/>
			<path class="st7" d="M1284.9,486c0,0,6.7,5.1,17.5-2.9"/>
			<path class="st7" d="M1301.4,467.4c0,0,3.6,7.7,15.3,3.3"/>
			<path class="st7" d="M1268.2,458.3c0,0,2.2,7.7,13.9,4.7"/>
			<path class="st7" d="M1288.8,452.5c0,0-4.1-14.9-17.8-7.3"/>
			
				<ellipse transform="matrix(0.3809 -0.9246 0.9246 0.3809 376.3537 1499.0908)" class="st7" cx="1307.6" cy="468.5" rx="14.6" ry="14.6"/>
			<circle class="st7" cx="1274" cy="462" r="14.6"/>
			<line class="st7" x1="1321.4" y1="471.4" x2="1333.4" y2="469.3"/>
			<line class="st7" x1="1259.8" y1="458.3" x2="1264.2" y2="455"/>
			<g>
				<path class="st14" d="M1274.2,423.6c0,0,12.9-7.9,17.5-0.4c4.6,7.5,25.3,57.2,47.6,46.1c22.3-11.1-0.2-47.8-21.8-59.4
					C1295.8,398.2,1277.5,408.2,1274.2,423.6z"/>
				<path class="st17" d="M1286.9,418c0,0-7.3-6.1-11.5-3.3c-4.2,2.8-4.2,6.4-4.2,6.4"/>
				<path class="st17" d="M1340.1,456.2c1.7,1,3.4,1.9,5.4,2.4"/>
				<path class="st17" d="M1283.9,402.7c0,0,12.7-14.1,26.9,7.8c9.3,14.4,14.6,28.8,21.6,38.2"/>
			</g>
			<path class="st17" d="M1304.7,450.4c0,0,10.2-5.5,19,2.9"/>
		</g>
		<path class="st7" d="M1285.7,592.1c0,0,14,17.5,37,17.5"/>
	</g>
</g>
<line class="st7" x1="952.5" y1="950.9" x2="1592.1" y2="950.9"/>
<g>
	<path class="st1" d="M203,342.7v105.9h-29.4v-42.5h-35.9v42.5h-29.4V342.7h29.4v39.8h35.9v-39.8H203z"/>
	<path class="st1" d="M219.7,383.6c3.2-6.5,7.5-11.5,12.9-15c5.5-3.5,11.5-5.3,18.3-5.3c5.8,0,10.8,1.2,15,3.5
		c4.2,2.3,7.5,5.4,9.8,9.3v-11.7h29.4v84.3h-29.4v-11.7c-2.3,3.9-5.6,7-9.8,9.3c-4.3,2.3-9.2,3.5-14.9,3.5c-6.7,0-12.8-1.8-18.3-5.3
		c-5.5-3.5-9.8-8.5-12.9-15.1c-3.2-6.6-4.7-14.2-4.7-22.9C215,397.7,216.6,390.1,219.7,383.6z M271.3,393.6c-3-3.1-6.6-4.7-10.9-4.7
		c-4.4,0-8.1,1.5-11,4.6c-2.9,3.1-4.4,7.3-4.4,12.8c0,5.4,1.5,9.7,4.4,12.8c2.9,3.2,6.6,4.7,11,4.7c4.3,0,7.9-1.6,10.9-4.7
		c3-3.1,4.4-7.4,4.4-12.9C275.7,401,274.2,396.8,271.3,393.6z"/>
	<path class="st1" d="M361.2,366.8c4.2-2.3,9.2-3.5,14.9-3.5c6.7,0,12.8,1.8,18.3,5.3c5.5,3.5,9.8,8.5,12.9,15
		c3.2,6.5,4.7,14.1,4.7,22.8c0,8.7-1.6,16.4-4.7,22.9c-3.2,6.6-7.5,11.6-12.9,15.1c-5.5,3.5-11.5,5.3-18.3,5.3
		c-5.7,0-10.6-1.2-14.8-3.5c-4.2-2.3-7.4-5.4-9.8-9.3v52H322V364.3h29.4v11.7C353.7,372.2,357,369.1,361.2,366.8z M377.6,393.6
		c-3-3.1-6.6-4.6-10.9-4.6c-4.3,0-7.9,1.6-10.9,4.7c-3,3.1-4.4,7.4-4.4,12.8c0,5.5,1.5,9.8,4.4,12.9c3,3.1,6.6,4.7,10.9,4.7
		c4.3,0,7.9-1.6,10.9-4.7c3-3.2,4.4-7.4,4.4-12.8C382.1,400.9,380.6,396.6,377.6,393.6z"/>
	<path class="st1" d="M463.4,366.8c4.2-2.3,9.2-3.5,14.9-3.5c6.7,0,12.8,1.8,18.3,5.3c5.5,3.5,9.8,8.5,12.9,15
		c3.2,6.5,4.7,14.1,4.7,22.8c0,8.7-1.6,16.4-4.7,22.9c-3.2,6.6-7.5,11.6-12.9,15.1c-5.5,3.5-11.5,5.3-18.3,5.3
		c-5.7,0-10.6-1.2-14.8-3.5c-4.2-2.3-7.4-5.4-9.8-9.3v52h-29.4V364.3h29.4v11.7C455.9,372.2,459.2,369.1,463.4,366.8z M479.8,393.6
		c-3-3.1-6.6-4.6-10.9-4.6c-4.3,0-7.9,1.6-10.9,4.7c-3,3.1-4.4,7.4-4.4,12.8c0,5.5,1.5,9.8,4.4,12.9c3,3.1,6.6,4.7,10.9,4.7
		c4.3,0,7.9-1.6,10.9-4.7c3-3.2,4.4-7.4,4.4-12.8C484.2,400.9,482.8,396.6,479.8,393.6z"/>
	<path class="st1" d="M617.1,364.3l-53.5,124.4h-32l20.1-43.7l-34.6-80.7h32.8l17.7,47.8l17.1-47.8H617.1z"/>
	<path class="st2" d="M137.6,606.4h32.9v22.5h-62.4V523h29.4V606.4z"/>
	<path class="st2" d="M262,592.7h-55.7c0.3,4.6,1.6,8,3.8,10.3s5.1,3.4,8.6,3.4c4.9,0,8.4-2.2,10.5-6.6h31.4
		c-1.3,5.8-3.8,11-7.6,15.6c-3.8,4.6-8.5,8.1-14.2,10.7c-5.7,2.6-12,3.9-18.9,3.9c-8.3,0-15.7-1.8-22.2-5.3
		c-6.5-3.5-11.5-8.5-15.2-15c-3.7-6.5-5.5-14.2-5.5-23c0-8.8,1.8-16.5,5.4-22.9c3.6-6.5,8.6-11.4,15.1-14.9
		c6.5-3.5,13.9-5.3,22.3-5.3c8.3,0,15.7,1.7,22.1,5.1c6.4,3.4,11.4,8.3,15,14.6c3.6,6.4,5.4,13.8,5.4,22.5
		C262.5,588.1,262.3,590.4,262,592.7z M232.4,578.5c0-3.6-1.2-6.4-3.6-8.5c-2.4-2.1-5.4-3.1-9-3.1s-6.6,1-8.9,2.9
		c-2.3,2-3.8,4.8-4.5,8.6H232.4z"/>
	<path class="st2" d="M274.4,563.9c3.2-6.5,7.5-11.5,12.9-15c5.5-3.5,11.5-5.3,18.3-5.3c5.8,0,10.8,1.2,15,3.5
		c4.2,2.3,7.5,5.4,9.8,9.3v-11.7h29.4v84.3h-29.4v-11.7c-2.3,3.9-5.6,7-9.8,9.3c-4.3,2.3-9.2,3.5-14.9,3.5c-6.7,0-12.8-1.8-18.3-5.3
		c-5.5-3.5-9.8-8.5-12.9-15.1c-3.2-6.6-4.7-14.2-4.7-22.9C269.7,578,271.3,570.4,274.4,563.9z M326,573.9c-3-3.1-6.6-4.7-10.9-4.7
		c-4.4,0-8.1,1.5-11,4.6c-2.9,3.1-4.4,7.3-4.4,12.8c0,5.4,1.5,9.7,4.4,12.8c2.9,3.2,6.6,4.7,11,4.7c4.3,0,7.9-1.6,10.9-4.7
		c3-3.1,4.4-7.4,4.4-12.9C330.4,581.3,328.9,577.1,326,573.9z"/>
	<path class="st2" d="M418.1,548.1c4.7-2.8,9.8-4.2,15.2-4.2v31.4h-8.3c-6.4,0-11.2,1.3-14.3,3.8c-3.1,2.5-4.7,6.9-4.7,13.1v36.8
		h-29.4v-84.3h29.4v14.9C409.4,554.7,413.4,550.9,418.1,548.1z"/>
	<path class="st2" d="M522.1,553.6c5.7,6.5,8.6,15.2,8.6,26.2v49.1h-29.4v-45.2c0-4.8-1.3-8.6-3.8-11.3c-2.5-2.8-5.9-4.1-10.1-4.1
		c-4.4,0-7.9,1.4-10.4,4.1c-2.5,2.8-3.8,6.5-3.8,11.3v45.2h-29.4v-84.3h29.4v12c2.6-3.8,6.1-6.9,10.5-9.2c4.4-2.4,9.5-3.5,15.2-3.5
		C508.7,543.9,516.4,547.1,522.1,553.6z"/>
	<path class="st2" d="M549.2,532.6c-3.2-2.9-4.7-6.4-4.7-10.7c0-4.4,1.6-8.1,4.7-11c3.2-2.9,7.3-4.4,12.5-4.4
		c5.1,0,9.2,1.5,12.4,4.4c3.2,2.9,4.7,6.6,4.7,11c0,4.3-1.6,7.9-4.7,10.7c-3.2,2.9-7.3,4.3-12.4,4.3
		C556.6,536.8,552.4,535.4,549.2,532.6z M576.4,544.6v84.3h-29.4v-84.3H576.4z"/>
	<path class="st2" d="M671.5,553.6c5.7,6.5,8.6,15.2,8.6,26.2v49.1h-29.4v-45.2c0-4.8-1.3-8.6-3.8-11.3c-2.5-2.8-5.9-4.1-10.1-4.1
		c-4.4,0-7.9,1.4-10.4,4.1c-2.5,2.8-3.8,6.5-3.8,11.3v45.2h-29.4v-84.3h29.4v12c2.6-3.8,6.1-6.9,10.5-9.2c4.4-2.4,9.5-3.5,15.2-3.5
		C658,543.9,665.8,547.1,671.5,553.6z"/>
	<path class="st2" d="M742.3,547.1c4.3,2.3,7.5,5.4,9.8,9.3v-11.7h29.4V628c0,7.9-1.5,15-4.5,21.4c-3,6.4-7.7,11.4-14,15.3
		c-6.4,3.8-14.4,5.7-24.1,5.7c-13,0-23.4-3.1-31.3-9.2c-7.8-6.1-12.3-14.4-13.4-24.9h29c0.6,2.7,2.1,4.8,4.5,6.3
		c2.4,1.5,5.5,2.3,9.3,2.3c10,0,15-5.6,15-16.8v-10.8c-2.3,3.9-5.6,7-9.8,9.3c-4.3,2.3-9.2,3.5-14.9,3.5c-6.7,0-12.8-1.8-18.3-5.3
		c-5.5-3.5-9.8-8.5-12.9-15.1c-3.2-6.6-4.7-14.2-4.7-22.9c0-8.7,1.6-16.3,4.7-22.8c3.2-6.5,7.5-11.5,12.9-15
		c5.5-3.5,11.5-5.3,18.3-5.3C733.1,543.6,738,544.8,742.3,547.1z M747.7,573.9c-3-3.1-6.6-4.7-10.9-4.7c-4.4,0-8.1,1.5-11,4.6
		c-2.9,3.1-4.4,7.3-4.4,12.8c0,5.4,1.5,9.7,4.4,12.8c2.9,3.2,6.6,4.7,11,4.7c4.3,0,7.9-1.6,10.9-4.7c3-3.1,4.4-7.4,4.4-12.9
		C752.1,581.3,750.7,577.1,747.7,573.9z"/>
	<path class="st2" d="M809.3,625.9c-3.2-2.9-4.7-6.5-4.7-10.9c0-4.4,1.6-8.1,4.7-11c3.2-2.9,7.3-4.4,12.5-4.4
		c5.1,0,9.2,1.5,12.4,4.4c3.2,2.9,4.7,6.6,4.7,11c0,4.3-1.6,7.9-4.7,10.8c-3.2,2.9-7.3,4.4-12.4,4.4
		C816.7,630.1,812.5,628.7,809.3,625.9z M837.8,517.6l-3.5,71.7h-25.1l-3.5-71.7H837.8z"/>
</g>
<g>
</g>
<g>
</g>
<g>
</g>
<g>
</g>
<g>
</g>
<g>
</g>
<g>
</g>
<g>
</g>
<g>
</g>
<g>
</g>
<g>
</g>
<g>
</g>
<g>
</g>
<g>
</g>
<g>
</g>
</svg>
