<?xml version="1.0" encoding="UTF-8"?><svg id="Layer_2" xmlns="http://www.w3.org/2000/svg" xmlns:xlink="http://www.w3.org/1999/xlink" viewBox="0 0 512 512"><defs><style>.cls-1{opacity:.37;}.cls-1,.cls-2{fill:#e9a425;}.cls-3{fill:#893783;}.cls-4,.cls-5{fill:none;}.cls-5{clip-path:url(#clippath);}</style><clipPath id="clippath"><rect class="cls-4" width="512" height="512"/></clipPath></defs><g id="Layer_1-2"><g class="cls-5"><path class="cls-1" d="m478.43,266.9c0,14.44-1.38,28.55-4,42.22-2.2,11.44-5.28,22.57-9.16,33.31-.35.97-.71,1.94-1.08,2.9-1.81,4.81-3.78,9.53-5.92,14.17-6.99,15.29-15.68,29.64-25.82,42.83-39.98,52.03-102.45,85.87-172.88,86.98-1.19.02-2.38.03-3.57.03s-2.38,0-3.57-.03c-70.43-1.11-132.9-34.96-172.88-86.99-10.14-13.19-18.83-27.53-25.82-42.82-2.14-4.64-4.11-9.36-5.92-14.17-.37-.96-.73-1.93-1.08-2.9-3.88-10.74-6.96-21.87-9.16-33.31-2.62-13.67-4-27.78-4-42.22,0-122.84,99.59-222.43,222.43-222.43s222.43,99.59,222.43,222.43Z"/><circle class="cls-2" cx="256" cy="156.53" r="64.38"/><circle class="cls-2" cx="256" cy="359.42" r="129.8"/><path class="cls-3" d="m458.27,359.5c-6.99,15.29-15.68,29.64-25.82,42.83-39.98,52.03-102.45,85.87-172.88,86.98-1.19.02-2.38.03-3.57.03s-2.38,0-3.57-.03c-70.43-1.11-132.9-34.96-172.88-86.99-10.14-13.19-18.83-27.53-25.82-42.82h404.54Z"/></g></g></svg>