<?xml version="1.0" encoding="UTF-8"?><svg id="Layer_2" xmlns="http://www.w3.org/2000/svg" viewBox="0 0 67 67"><defs><style>.cls-1{fill:#fff;stroke:#ccc;stroke-miterlimit:10;stroke-width:2px;}.cls-2{fill:#ffcd05;fill-rule:evenodd;}</style></defs><g id="Layer_1-2"><rect class="cls-1" x="1" y="1" width="65" height="65" rx="21.05" ry="21.05"/><g><path class="cls-2" d="M25.21,32.06c1.08-1.12,1.2-2.75,.28-3.64s-2.55-.71-3.63,.41-1.2,2.75-.28,3.64c.92,.89,2.55,.71,3.63-.41"/><path class="cls-2" d="M47.15,18.84c.91-1.71,.63-3.75-.62-4.56-1.25-.81-3-.08-3.92,1.63-.91,1.71-.63,3.75,.62,4.56s3,.08,3.92-1.63"/><path class="cls-2" d="M13.73,52.79c6.03,.4,9.53,.4,12.54-.43,8.3-2.29,11.53-13.28,18.91-13.62,2.5-.12,5.12,1.08,8.07,3.82,.18-4.18-.94-21.52-6.15-21.36-4.11,.14-7.79,10.72-9.91,14.3-.99,1.67-2.12,3.2-3.23,4.19-.71,.63-1.54,1.04-2.47,.82-2.89-.67-4.71-6.79-6.86-6.86-1.79-.06-3.71,2.77-5.28,5.8-1.38,2.67-2.49,5.49-3.01,6.64l-1.44,3.53-1.18,3.17Z"/></g></g></svg>