<?xml version="1.0" encoding="UTF-8"?><svg xmlns="http://www.w3.org/2000/svg" xmlns:xlink="http://www.w3.org/1999/xlink" viewBox="0 0 257.84 196.99"><defs><style>.cls-1{fill:url(#linear-gradient);mix-blend-mode:screen;}.cls-2{isolation:isolate;}</style><linearGradient id="linear-gradient" x1="166.35" y1="-88.81" x2="110.98" y2="233.24" gradientUnits="userSpaceOnUse"><stop offset="0" stop-color="#fff"/><stop offset="1" stop-color="#000"/></linearGradient></defs><g class="cls-2"><g id="Layer_2"><g id="Layer_1-2"><path class="cls-1" d="M118.92,183.9l-15.02-15.01,15.01-14.99c4.14-4.14,4.14-10.85,0-14.99-4.14-4.14-10.85-4.14-14.99,0l-15.01,14.99-14.96-14.98c-4.14-4.14-10.86-4.14-15,0s-4.14,10.85,0,14.99l14.97,14.98-14.98,14.99c-3.56,3.56-4.06,9.01-1.51,13.1h18.4l13.08-13.1,13.12,13.1h18.41c2.54-4.09,2.04-9.53-1.51-13.09ZM171.4,51.45c-6.9-6.9-18.09-6.9-24.99,0-6.9,6.9-6.9,18.09,0,24.99s18.09,6.9,24.99,0c6.9-6.9,6.9-18.09,0-24.99Zm14.99,54.98c-6.9-6.9-18.09-6.9-24.99,0-6.9,6.9-6.9,18.09,0,24.99s18.09,6.9,24.99,0c6.9-6.9,6.9-18.09,0-24.99ZM228.86,28.98c-38.65-38.64-101.31-38.64-139.95,0L28.98,88.91l-2.36,2.45C-.61,120.5-6.95,162.06,7.61,196.99H31.16c-16.67-29.63-12.4-67.85,12.82-93.08l59.93-59.93,2.26-2.17c30.5-28.18,78.08-27.45,107.71,2.17,30.36,30.37,30.36,79.59,0,109.95l-43.06,43.06h29.99l28.06-28.06,2.36-2.45c36.26-38.8,35.47-99.66-2.36-137.5ZM118.92,183.9l-15.02-15.01,15.01-14.99c4.14-4.14,4.14-10.85,0-14.99-4.14-4.14-10.85-4.14-14.99,0l-15.01,14.99-14.96-14.98c-4.14-4.14-10.86-4.14-15,0s-4.14,10.85,0,14.99l14.97,14.98-14.98,14.99c-3.56,3.56-4.06,9.01-1.51,13.1h18.4l13.08-13.1,13.12,13.1h18.41c2.54-4.09,2.04-9.53-1.51-13.09ZM171.4,51.45c-6.9-6.9-18.09-6.9-24.99,0-6.9,6.9-6.9,18.09,0,24.99s18.09,6.9,24.99,0c6.9-6.9,6.9-18.09,0-24.99Zm14.99,54.98c-6.9-6.9-18.09-6.9-24.99,0-6.9,6.9-6.9,18.09,0,24.99s18.09,6.9,24.99,0c6.9-6.9,6.9-18.09,0-24.99Zm-67.47,77.47l-15.02-15.01,15.01-14.99c4.14-4.14,4.14-10.85,0-14.99-4.14-4.14-10.85-4.14-14.99,0l-15.01,14.99-14.96-14.98c-4.14-4.14-10.86-4.14-15,0s-4.14,10.85,0,14.99l14.97,14.98-14.98,14.99c-3.56,3.56-4.06,9.01-1.51,13.1h18.4l13.08-13.1,13.12,13.1h18.41c2.54-4.09,2.04-9.53-1.51-13.09Zm67.47-77.47c-6.9-6.9-18.09-6.9-24.99,0-6.9,6.9-6.9,18.09,0,24.99s18.09,6.9,24.99,0c6.9-6.9,6.9-18.09,0-24.99Zm-14.99-54.98c-6.9-6.9-18.09-6.9-24.99,0-6.9,6.9-6.9,18.09,0,24.99s18.09,6.9,24.99,0c6.9-6.9,6.9-18.09,0-24.99Z"/></g></g></g></svg>