<?xml version="1.0" encoding="UTF-8"?><svg id="Layer_2" xmlns="http://www.w3.org/2000/svg" xmlns:xlink="http://www.w3.org/1999/xlink" viewBox="0 0 512 512"><defs><style>.cls-1{opacity:.43;}.cls-1,.cls-2,.cls-3,.cls-4,.cls-5,.cls-6,.cls-7,.cls-8,.cls-9,.cls-10,.cls-11,.cls-12,.cls-13{fill:none;}.cls-2{opacity:.67;}.cls-3{opacity:.18;}.cls-14{fill:#893783;}.cls-4{opacity:.84;}.cls-5{opacity:.34;}.cls-6{opacity:.51;}.cls-7{opacity:.59;}.cls-9{clip-path:url(#clippath);}.cls-10{opacity:.92;}.cls-15{fill:url(#linear-gradient);}.cls-11{stroke:#000;stroke-linecap:round;stroke-linejoin:round;stroke-width:32px;}.cls-12{opacity:.75;}.cls-13{opacity:.26;}</style><clipPath id="clippath"><rect class="cls-8" width="512" height="512"/></clipPath><linearGradient id="linear-gradient" x1="231.75" y1="225.52" x2="367.52" y2="225.52" gradientUnits="userSpaceOnUse"><stop offset="0" stop-color="#893783"/><stop offset="1" stop-color="#e9a425"/></linearGradient></defs><g id="Layer_1-2"><g class="cls-9"><path class="cls-11" d="m87.42,259.1c0-90.95,73.73-164.68,164.68-164.68s164.68,73.73,164.68,164.68-73.73,164.68-164.68,164.68"/><polyline class="cls-11" points="281.99 384.79 247.75 422.22 283.98 452.7"/><path class="cls-15" d="m351.52,295.72h-103.77c-8.84,0-16-7.16-16-16v-108.4c0-8.84,7.16-16,16-16s16,7.16,16,16v92.4h87.77c8.84,0,16,7.16,16,16s-7.16,16-16,16Z"/><circle class="cls-14" cx="87.42" cy="259.1" r="19.89"/><g class="cls-10"><circle class="cls-14" cx="87.04" cy="275.39" r="19.89"/></g><g class="cls-4"><circle class="cls-14" cx="88.52" cy="290.93" r="19.89"/></g><g class="cls-12"><circle class="cls-14" cx="91.71" cy="305.73" r="19.89"/></g><g class="cls-2"><circle class="cls-14" cx="96.48" cy="319.8" r="19.89"/></g><g class="cls-7"><circle class="cls-14" cx="102.71" cy="333.14" r="19.89"/></g><g class="cls-6"><circle class="cls-14" cx="110.25" cy="345.77" r="19.89"/></g><g class="cls-1"><circle class="cls-14" cx="118.96" cy="357.71" r="19.89"/></g><g class="cls-5"><circle class="cls-14" cx="128.73" cy="368.95" r="19.89"/></g><g class="cls-13"><circle class="cls-14" cx="139.4" cy="379.52" r="19.89"/></g><g class="cls-3"><circle class="cls-14" cx="150.85" cy="389.43" r="19.89"/></g></g></g></svg>