<?xml version="1.0" encoding="UTF-8"?><svg id="Layer_2" xmlns="http://www.w3.org/2000/svg" xmlns:xlink="http://www.w3.org/1999/xlink" viewBox="0 0 512 512"><defs><style>.cls-1{fill:#fff;}.cls-2{fill:#2d213f;}.cls-3{fill:#893783;}.cls-4,.cls-5{fill:none;}.cls-6{fill:#e9c88c;}.cls-7{fill:#e9a425;}.cls-5{clip-path:url(#clippath);}.cls-8{fill:#f2f2f2;}</style><clipPath id="clippath"><rect class="cls-4" width="512" height="512"/></clipPath></defs><g id="Layer_1-2"><g class="cls-5"><path class="cls-8" d="m444.42,262.9c0,22.59-3.97,44.25-11.26,64.33-1.59,4.4-3.35,8.72-5.26,12.96-29.51,65.64-95.48,111.35-172.12,111.35-104.18,0-188.63-84.46-188.63-188.64S151.6,74.27,255.78,74.27s188.64,84.46,188.64,188.63Z"/><path class="cls-3" d="m388.78,327.72c-7.36.09-14.69-.06-21.74,3.66-5.8,2.9-9.69,9.17-10.79,15.49-.67,2.86-.76,4.53-1.62,6.17-1.77.53-5.28.02-7.89-.38-9.51-1.45-29.74-4.24-39.48-5.56-3.99-.52-14.5-1.88-18.34-2.37-5.27-.63-10.9-.84-16.44,1.49-5.68,2.29-11.03,8.06-11.52,14.65-.34,2.66.32,5.81.66,8.18-1.11.25-2.5.37-3.67.51-35.2,4.14-70.88,3.63-106.22.42,34.2,11.32,71.02,15.81,107.36,14.35,2.51-.1,4.82-.12,7.57-.83,8.76-2.19,11.96-9.98,10.57-18.2-.11-1-.16-1.77-.14-2.21.02-.48.1-.46.09-.38.01.05.03.03.14-.08,2.34-1.99,5.97-1.18,9.32-.78l5.97.92c14.87,2.36,36.73,5.57,51.62,7.59,9.3,1.66,20.2,1.01,25.55-8.5,2.57-4.3,2.85-9.54,3.88-13.51.78-4.57,11.1-4.25,15.79-4.77,12.8-.95,25.63-2.03,38.45-3.39,1.91-4.24,3.67-8.56,5.26-12.96-15.01.18-29.97.33-44.38.49Zm-126.23,41.07s.08-.07.12-.09c.26-.15.21-.04-.12.09Z"/><path class="cls-2" d="m421.48,108.25c19.06,19.02,19.06,50.01,0,69.03l-166.66,166.66c-1.2,1.2-2.71,2.05-4.34,2.52l-90.88,24.75c-.85.23-1.7.35-2.56.35-2.56,0-5.08-1.01-6.93-2.87-2.48-2.48-3.45-6.12-2.52-9.49l24.75-90.84c.46-1.67,1.32-3.18,2.52-4.38l166.69-166.66c9.22-9.22,21.46-14.29,34.52-14.29s25.3,5.08,34.52,14.29l10.89,10.92Zm-9.3,49.04c6.43-11.2,4.96-25.65-4.57-35.18l-10.89-10.92c-5.54-5.5-12.86-8.56-20.65-8.56-5.23,0-10.23,1.39-14.61,3.95l50.71,50.71Zm-19.14,20.72l6.08-6.08-52.22-52.22-6.08,6.08,52.22,52.22Zm-146.86,146.82l132.99-132.99-7.13-7.09-129.54,129.54,3.68,10.54Zm-19.21-22.74l131.25-131.21-10.15-10.15-131.87,131.83,2.29,6.59,8.48,2.94Zm-21.73-26.27l128.96-128.96-7.24-7.24-132.45,132.45,10.73,3.76Zm22.78,56.4l-3.6-10.27-16.85-5.89c-2.83-.97-5.04-3.22-6-6l-5.89-16.81-8.95-3.14-13.67,50.24,5.38,5.38,49.59-13.52Z"/><path class="cls-3" d="m407.61,122.12c9.53,9.53,11,23.98,4.57,35.18l-50.71-50.71c4.38-2.56,9.37-3.95,14.61-3.95,7.79,0,15.11,3.06,20.65,8.56l10.89,10.92Z"/><path class="cls-7" d="m399.13,171.94l-6.08,6.08-52.22-52.22,6.08-6.08,52.22,52.22Z"/><path class="cls-7" d="m379.18,191.85l-132.99,132.99-3.68-10.54,129.54-129.55,7.13,7.09Z"/><path class="cls-3" d="m358.22,170.89l-131.25,131.21-8.48-2.94-2.29-6.59,131.87-131.83,10.15,10.15Z"/><path class="cls-7" d="m334.2,146.88l-128.96,128.96-10.73-3.76,132.45-132.45,7.24,7.24Z"/><path class="cls-6" d="m224.41,321.98l3.6,10.27-49.59,13.52-5.38-5.38,13.67-50.24,8.95,3.14,5.89,16.81c.97,2.79,3.18,5.04,6,6l16.85,5.89Z"/><path class="cls-1" d="m389.58,105.96c-4.13-2.16-8.72-3.32-13.5-3.32-5.23,0-10.23,1.39-14.61,3.95l37.35,37.35c-14.62-20.56-12.36-32.4-9.24-37.98Z"/></g></g></svg>