<?xml version="1.0" encoding="UTF-8"?><svg id="Layer_2" xmlns="http://www.w3.org/2000/svg" viewBox="0 0 2730 1660.52"><defs><style>.cls-1{fill:#adc8fe;}.cls-2{fill:#f8d36f;}.cls-3{fill:#ffeede;}.cls-4{fill:#fff;}.cls-5{fill:#82b378;}.cls-6{fill:#fcecdb;}.cls-7{fill:#568cdb;}.cls-8{fill:#f8c63e;}.cls-9{fill:#a8d29f;}.cls-10{fill:#2a3a6e;}.cls-11{fill:#8484a2;}.cls-12{fill:#fff0e3;}.cls-13{fill:#2e3552;}.cls-14{fill:#8eb3ef;}.cls-15{fill:#efcbab;}.cls-16{fill:#eac3a0;}.cls-17{stroke-dasharray:0 12;}.cls-17,.cls-18,.cls-19{fill:none;stroke:#e0dfd8;stroke-miterlimit:10;stroke-width:2px;}.cls-20{fill:#f3a36c;}.cls-21{fill:#b5453c;}.cls-22{fill:#020201;}.cls-23{fill:#f4d2b8;}.cls-24{fill:#5f5c41;}.cls-25{fill:#548ee2;}.cls-26{fill:#f9ddbf;}.cls-27{fill:#e8945b;}.cls-28{fill:#ed7d2b;}.cls-29{fill:#ffb27d;}.cls-30{fill:#fefbf1;}.cls-18{stroke-dasharray:0 0 12.03 12.03;}.cls-31{fill:#233862;}.cls-32{fill:#d7e6ff;}.cls-33{fill:#d39e7a;}.cls-34{fill:#699dee;}</style></defs><g id="_ëîé_1"><path class="cls-30" d="m2538.41,1656.95s182.92-232.2,89.95-863.02C2462.39-332.1,280.4-126.96,471.43,583.26c120.1,446.52-612.31,361.13-331.49,1074.34l2398.47-.65Z"/><rect class="cls-11" x="773.16" y="235.71" width="1129.62" height="754.53"/><path class="cls-16" d="m1923.47,1006.72H752.46V219.22h1171.01v787.5Zm-1150.32-16.48h1129.62V235.71H773.16v754.53Z"/><path class="cls-33" d="m746.7,982.85h1184.33c6.23,0,11.3,5.06,11.3,11.3v.64c0,6.23-5.06,11.3-11.3,11.3H746.7c-6.24,0-11.3-5.06-11.3-11.3v-.64c0-6.24,5.06-11.3,11.3-11.3Z"/><rect class="cls-4" x="1636.64" y="967.46" width="49.4" height="15.39" rx="7.48" ry="7.48"/><rect class="cls-4" x="1428.89" y="967.46" width="28.61" height="15.39" rx="5.69" ry="5.69"/><rect class="cls-4" x="1370.59" y="967.46" width="49.83" height="15.39" rx="7.48" ry="7.48"/><rect class="cls-16" x="2074.22" y="361.48" width="185.24" height="179.71" rx="13.25" ry="13.25"/><path class="cls-3" d="m2094.34,369.26h144.99c6.68,0,12.1,5.42,12.1,12.1v139.94c0,6.68-5.42,12.1-12.1,12.1h-144.99c-6.68,0-12.1-5.42-12.1-12.1v-139.94c0-6.68,5.42-12.1,12.1-12.1Z"/><path class="cls-16" d="m2163,385.67c0-2.12,1.72-3.84,3.84-3.84s3.84,1.72,3.84,3.84-1.72,3.84-3.84,3.84-3.84-1.72-3.84-3.84Z"/><path class="cls-16" d="m2193.96,391.09c1.03-1.85,3.37-2.52,5.22-1.49,1.85,1.03,2.52,3.37,1.49,5.22-1.03,1.85-3.37,2.52-5.22,1.49-1.85-1.03-2.52-3.37-1.49-5.22Z"/><path class="cls-16" d="m2220.49,412.16c1.78-1.15,4.16-.64,5.3,1.14,1.15,1.78.64,4.16-1.14,5.3-1.78,1.15-4.16.64-5.3-1.14-1.15-1.78-.64-4.16,1.14-5.3Z"/><path class="cls-16" d="m2233.62,444.78c2.12,0,3.84,1.72,3.84,3.84s-1.72,3.84-3.84,3.84-3.84-1.72-3.84-3.84,1.72-3.84,3.84-3.84Z"/><path class="cls-16" d="m2226.92,482.64c1.5,1.5,1.5,3.93,0,5.43-1.5,1.5-3.93,1.5-5.43,0-1.5-1.5-1.5-3.93,0-5.43,1.5-1.5,3.93-1.5,5.43,0Z"/><path class="cls-16" d="m2202.82,506.8c1.5,1.5,1.5,3.93,0,5.43-1.5,1.5-3.93,1.5-5.43,0-1.5-1.5-1.5-3.93,0-5.43,1.5-1.5,3.93-1.5,5.43,0Z"/><path class="cls-16" d="m2163,519.25c0-2.12,1.72-3.84,3.84-3.84s3.84,1.72,3.84,3.84-1.72,3.84-3.84,3.84-3.84-1.72-3.84-3.84Z"/><path class="cls-16" d="m2139.59,391.09c-1.03-1.85-3.37-2.52-5.22-1.49-1.85,1.03-2.52,3.37-1.49,5.22,1.03,1.85,3.37,2.52,5.22,1.49,1.85-1.03,2.52-3.37,1.49-5.22Z"/><path class="cls-16" d="m2113.06,412.16c-1.78-1.15-4.16-.64-5.3,1.14-1.15,1.78-.64,4.16,1.14,5.3,1.78,1.15,4.16.64,5.3-1.14,1.15-1.78.64-4.16-1.14-5.3Z"/><path class="cls-16" d="m2099.92,444.78c-2.12,0-3.84,1.72-3.84,3.84s1.72,3.84,3.84,3.84,3.84-1.72,3.84-3.84-1.72-3.84-3.84-3.84Z"/><path class="cls-16" d="m2106.63,482.64c-1.5,1.5-1.5,3.93,0,5.43,1.5,1.5,3.93,1.5,5.43,0,1.5-1.5,1.5-3.93,0-5.43-1.5-1.5-3.93-1.5-5.43,0Z"/><path class="cls-16" d="m2130.73,506.8c-1.5,1.5-1.5,3.93,0,5.43,1.5,1.5,3.93,1.5,5.43,0,1.5-1.5,1.5-3.93,0-5.43-1.5-1.5-3.93-1.5-5.43,0Z"/><path class="cls-16" d="m2165.8,448.62c0-2.12,1.72-3.84,3.84-3.84s3.84,1.72,3.84,3.84-1.72,3.84-3.84,3.84-3.84-1.72-3.84-3.84Z"/><rect class="cls-16" x="2169.11" y="400.68" width="1.05" height="47.94"/><rect class="cls-16" x="2165.71" y="437.01" width="32.31" height="3.14" transform="translate(194.75 1440.7) rotate(-38.13)"/><path class="cls-33" d="m662.64,1230.81v10.67c0,3.74-1.21,6.79-2.69,6.79h-389.45c-1.48,0-2.69-3.05-2.69-6.79v-10.67c0-3.73,1.21-6.79,2.69-6.79h389.45c1.48,0,2.69,3.06,2.69,6.79Z"/><path class="cls-15" d="m662.64,1230.81v10.67c0,3.74-1.11,6.79-2.46,6.79h-309.18c-1.35,0-2.46-3.05-2.46-6.79v-10.67c0-3.73,1.11-6.79,2.46-6.79h309.18c1.35,0,2.46,3.06,2.46,6.79Z"/><rect class="cls-16" x="287.59" y="1248.27" width="276.49" height="402.99"/><rect class="cls-26" x="365.07" y="1248.27" width="276.49" height="402.99"/><path class="cls-16" d="m626.7,1629.02h-246.77v-369.36h246.77v369.36Zm-244.11-2.66h241.44v-364.03h-241.44v364.03Z"/><rect class="cls-16" x="381.26" y="1381.84" width="244.11" height="2.66"/><rect class="cls-16" x="381.26" y="1506.41" width="244.11" height="2.67"/><path class="cls-16" d="m528.33,1283.48h-45.3c-2.2,0-4-1.8-4-4h0c0-2.2,1.8-4,4-4h45.3c2.2,0,4,1.8,4,4h0c0,2.2-1.8,4-4,4Z"/><path class="cls-16" d="m528.33,1405.29h-45.3c-2.2,0-4-1.8-4-4h0c0-2.2,1.8-4,4-4h45.3c2.2,0,4,1.8,4,4h0c0,2.2-1.8,4-4,4Z"/><path class="cls-16" d="m528.33,1532.28h-45.3c-2.2,0-4-1.8-4-4h0c0-2.2,1.8-4,4-4h45.3c2.2,0,4,1.8,4,4h0c0,2.2-1.8,4-4,4Z"/><path class="cls-16" d="m2174.81,1646.66h.48c2.83,0,5.1-2.33,5.03-5.15l-7.63-330.86-22.49-2.62,19.17,333.51c.17,2.88,2.55,5.13,5.43,5.13Z"/><path class="cls-16" d="m2305.84,1646.66h.48c2.83,0,5.1-2.33,5.03-5.15l-7.63-330.86-22.49-2.62,19.18,333.51c.17,2.88,2.55,5.13,5.43,5.13Z"/><path class="cls-16" d="m1944.26,1646.66h-.48c-2.83,0-5.1-2.33-5.03-5.15l7.63-330.86,22.49-2.62-19.18,333.51c-.17,2.88-2.55,5.13-5.43,5.13Z"/><path class="cls-15" d="m2320.74,1290.13v-226.72c0-39.89-32.34-72.23-72.23-72.23h-163.35c-39.89,0-72.23,32.34-72.23,72.23v235.39l307.82-8.66Z"/><path class="cls-16" d="m2005.35,1290.13h315.39v35.79h-337.08v-14.1c0-11.97,9.72-21.69,21.69-21.69Z" transform="translate(4304.4 2616.05) rotate(180)"/><path class="cls-26" d="m1945.87,1290.13h238.61c8.85,0,16.04,7.19,16.04,16.04v3.72c0,8.85-7.19,16.04-16.04,16.04h-238.61c-8.85,0-16.04-7.19-16.04-16.04v-3.72c0-8.85,7.19-16.04,16.04-16.04Z" transform="translate(4130.34 2616.05) rotate(180)"/><path class="cls-33" d="m2478.06,1653.58h.63c3.74,0,6.74-3.26,6.66-7.21l-10.09-463.25-29.74-3.67,25.36,466.96c.22,4.03,3.37,7.18,7.18,7.18Z"/><path class="cls-33" d="m1752.82,1653.58h-.63c-3.74,0-6.74-3.26-6.66-7.21l10.09-463.25,29.74-3.67-25.36,466.96c-.22,4.03-3.37,7.18-7.18,7.18Z"/><rect class="cls-33" x="1703.13" y="1159.27" width="842.46" height="32.37" rx="11.52" ry="11.52"/><path class="cls-6" d="m1777.38,1112.93h74.12c5.76,0,10.43,4.68,10.43,10.43v4.99c0,5.89-4.78,10.67-10.67,10.67h-73.89v-26.1h0Z"/><path class="cls-34" d="m1925,1123.67v3.93c0,2.1-.56,4.06-1.55,5.75-1.98,3.4-5.66,5.68-9.88,5.68h-138.45c-.92,0-1.66-.74-1.66-1.66v-.59c0-.91.74-1.66,1.66-1.66h84.4c.45-.55.85-1.15,1.18-1.78.79-1.49,1.24-3.19,1.24-4.99v-4.99c0-.92-.12-1.81-.34-2.66-.38-1.44-1.05-2.75-1.96-3.87h-84.52c-.92,0-1.66-.74-1.66-1.66v-.59c0-.92.74-1.66,1.66-1.66h139.15c4.9,0,9.04,3.29,10.32,7.78.27.94.41,1.93.41,2.96Z"/><path class="cls-25" d="m1924.59,1120.71h-62.99c-.38-1.44-1.05-2.75-1.96-3.87h-84.52c-.92,0-1.66-.74-1.66-1.66v-.59c0-.92.74-1.66,1.66-1.66h139.15c4.9,0,9.04,3.29,10.32,7.78Z"/><polygon class="cls-23" points="1777.38 1125.98 1787.63 1126.42 1777.38 1126.68 1777.38 1125.98"/><polygon class="cls-23" points="1777.38 1130.07 1801.77 1130.51 1777.38 1130.78 1777.38 1130.07"/><path class="cls-21" d="m1795,1159.27h78.66v-20.3h-79.29c-5.43,0-9.83,4.4-9.83,9.83h0c0,5.78,4.69,10.47,10.47,10.47Z"/><path class="cls-6" d="m1858.92,1138.97h89.52c5.64,0,10.22,4.58,10.22,10.22v.08c0,5.52-4.48,10-10,10h-89.74v-20.3h0Z" transform="translate(3817.58 2298.24) rotate(-180)"/><path class="cls-21" d="m1852.94,1159.27h108.82c.84,0,1.52-.68,1.52-1.52h0c0-.84-.68-1.52-1.52-1.52h-108.82c-.84,0-1.52.68-1.52,1.52h0c0,.84.68,1.52,1.52,1.52Z"/><path class="cls-21" d="m1852.94,1142.01h108.82c.84,0,1.52-.68,1.52-1.52h0c0-.84-.68-1.52-1.52-1.52h-108.82c-.84,0-1.52.68-1.52,1.52h0c0,.84.68,1.52,1.52,1.52Z"/><polygon class="cls-23" points="1958.66 1149.12 1946.57 1149.46 1958.66 1149.67 1958.66 1149.12"/><polygon class="cls-23" points="1958.66 1144.45 1929.89 1144.79 1958.66 1145 1958.66 1144.45"/><path class="cls-34" d="m1930.19,1144.72s1.23.87,1.64,2.31c.07.25.12.52.13.8.07,1.91,0,6.22,0,6.22l3.64-2.16,3.63,2.16v-5.84c0-1.1-.31-2.18-.89-2.88-.28-.34-.62-.6-1-.6h-7.14Z"/><path class="cls-7" d="m1930.19,1144.72s1.23.87,1.64,2.31l7.29.09s-.29-2.05-1.79-2.39h-7.14Z"/><path class="cls-8" d="m1888.61,1093.43h42.61c3.11,0,5.63,2.52,5.63,5.63v7.88c0,3.31-2.69,6-6,6h-42.24v-19.5h0Z"/><path class="cls-6" d="m1767.78,1093.43h132.47c5.14,0,9.31,4.17,9.31,9.31v.66c0,5.26-4.27,9.53-9.53,9.53h-132.25v-19.5h0Z"/><path class="cls-8" d="m1762.61,1110.01h156.19c.78,0,1.41.63,1.41,1.41v.1c0,.78-.63,1.41-1.41,1.41h-156.19c-.78,0-1.41-.63-1.41-1.41v-.1c0-.78.63-1.41,1.41-1.41Z"/><rect class="cls-8" x="1761.2" y="1093.43" width="159.01" height="2.92" rx="1.41" ry="1.41"/><polygon class="cls-16" points="2448.3 1146.05 2442.72 1146.05 2442.72 1049.9 2499.84 904.14 2397.85 825.1 2401.27 820.69 2506.57 902.29 2448.3 1050.96 2448.3 1146.05"/><path class="cls-16" d="m2386.32,835.17h0c-2.57-1.82-3.17-5.37-1.35-7.94l8.5-11.98c1.82-2.57,5.37-3.17,7.94-1.35h0c2.57,1.82,3.17,5.37,1.35,7.94l-8.49,11.98c-1.82,2.57-5.38,3.17-7.94,1.35Z"/><circle class="cls-16" cx="2501.93" cy="902.46" r="7.39"/><path class="cls-8" d="m2398.97,918.1c-.27.3-.53.6-.81.87l-.06.06c-.26.29-.52.57-.79.84-7.63,6.62-32.91-5.25-57.38-27.12-24.46-21.87-39.07-45.68-33.34-54,.24-.3.49-.59.75-.88l.06-.06c.25-.3.51-.6.78-.9,22.42-25.07,60.92-27.22,85.99-4.8,25.07,22.42,27.22,60.91,4.8,85.99Z"/><path class="cls-26" d="m2398.16,918.98l-.06.06c-.08.11-.17.21-.25.31-.17.2-.35.36-.54.53-7.62,6.62-32.92-5.24-57.37-27.12-24.46-21.86-39.07-45.67-33.35-53.99.15-.21.31-.42.47-.6.08-.1.17-.2.28-.28l.06-.07c5.19-4.91,19.29-.53,35.76,10.13,7.01,4.54,14.45,10.22,21.82,16.81,5.78,5.18,11.01,10.46,15.56,15.61,14.84,16.85,22.32,32.4,17.62,38.62Z"/><path class="cls-12" d="m2380.55,880.35c-4.31,3.56-9.86,5.68-15.9,5.68-13.86,0-25.1-11.24-25.1-25.1,0-4.76,1.33-9.21,3.62-13,7.01,4.54,14.45,10.22,21.82,16.81,5.78,5.18,11.01,10.46,15.56,15.61Z"/><path class="cls-16" d="m2426.76,1143.28h35.13c5.93,0,10.74,4.81,10.74,10.74v5.26h-56.19v-5.67c0-5.7,4.62-10.32,10.32-10.32Z"/><rect class="cls-16" x="2439.58" y="1056.71" width="11.8" height="89.34"/><path class="cls-29" d="m1147.84,1208.17c-23.54,146.51-42.94,304.39-34.54,387.51,6.92,23.27,28.3,31.03,47.2,34.05l-12.99,14.17-36.58,2.09-48.82-19.23s2.82-9.64,5.07-26.46c2.59-19.54-6.46-64.21-6.46-64.21,0,0-23.81-154.28-10.26-188.93,3.85-9.84,6.38-21.11,7.94-33.34h0c3.99-31.17,1.76-68.64-.87-105.05-2.84-39.56-6.15-77.87-2.41-105.53,17.06-126.23,17.26-235.4,17.26-235.4h95.79s27.14,77.11,14.49,143.22c-10.74,56.21-23.28,125.3-34.83,197.13Z"/><path class="cls-20" d="m1058.4,1313.79c3.99-31.16,1.76-68.62-.87-105.04l70.73-28.6,19.58,28.02c-3,3.68-55.63,65.76-89.44,105.62Z"/><path class="cls-29" d="m1333.6,771.02s10.85-11.47,18.62-17.14c7.77-5.67,29.57-11.35,31.78-1.83.99,4.24-6.67,13.6-12.19,16.94-5.51,3.34-6.37,7.58-12.24,13.56-5.86,5.97-20.2,6.27-20.2,6.27l-5.77-17.8Z"/><path class="cls-31" d="m1014.86,676.25c-4.56-8.8,99.57-40.5,101.22,46.37,0,0,195.07-4.8,101.93-113.52-32.24-37.64-28.93-68.76-27.96-97.73.98-28.97-20.08-113.18-92.29-104.7,0,0-18.91-7.69-42.51,4.55-53.66,27.84-173.88,297.07-40.39,265.03Z"/><path class="cls-1" d="m1150.14,779.62s6.9,13.67,19.42,29.37c15.09,18.9,38.35,40.73,67.56,45.04,13.95,2.06,27.6-.94,40.14-6.52.03-.01.05-.01.05-.01,35.48-15.75,62.15-51.96,62.15-51.96,6.25-17.06-3.98-28.62-3.98-28.62,0,0-71.63,16.11-78.46,12.7-6.82-3.41-46.62-118.06-56.09-132.47-9.48-14.41-41.77-21.89-41.77-21.89l-9.02,154.35Z"/><path class="cls-14" d="m1169.56,808.99c15.09,18.9,38.35,40.73,67.56,45.04,13.95,2.06,27.6-.94,40.14-6.52-1.39.18-36.82,4.56-50.94-20.71-14.41-25.78-29.98-66.71-51.38-53.07-9.23,5.89-8.82,20.52-5.38,35.25Z"/><path class="cls-29" d="m948.15,1652.6h-33.01c-9.59,0-20.52-7.35-23.19-24.67-2.66-17.32-22.39-26.77-26.65-40.94-2.93-9.74,3.99-16.69,10.55-22.04,3-2.46,5.93-4.58,7.79-6.46,6.71-6.77,13.05-36.04,13.05-36.04l34.81,18.32s-16.4,27.88-6.94,59.25c4.42,14.66,8.38,28.17,18.16,36.59,2.31,2,4.95,3.69,7.98,5.07,15.22,6.88-2.54,10.94-2.54,10.94Z"/><path class="cls-1" d="m973.42,722.62s-1.83,25.8,0,56.76c1.22,20.52,21.98,48.01,24.92,54.81,7.39,17.06,15.73,19.83,15.73,19.83l64.48,15.8,22.67,5.55,71.5-21.35s32.56-90.89,19.49-142.06c-13.08-51.17-33.05-86.7-33.05-86.7,0,0-82.2-21.38-145.88-2.78l-39.85,100.14Z"/><path class="cls-29" d="m1018.16,864.53s-54.01,72.47-59.04,121.45c-5.04,48.99,42.72,184.58,32,232.33-7.96,35.45-50.4,63.56-62.12,152.92-4.07,31.04-18.76,93.12-32.31,151.2l29.92,29.37c71.28-162.45,144.98-264.72,149.33-300.63,3.08-25.42,17.53-159.14,75.99-257.86,14.03-23.7-8.61-117.94-8.61-117.94l-125.16-10.84Z"/><path class="cls-2" d="m1186.02,1031.36c-7.94,96.76-17.29,178.27-17.29,178.27,0,0-45.12,30.4-108.97,34.27h-.01s-.01.01-.01.01c-29.17,1.76-62.24-2-96.71-16.73,0,0-13.14-233.68-4.78-270.9,8.37-37.22,45.4-88.44,45.4-88.44l166.6,6.44s23.7,60.32,15.76,157.09Z"/><path class="cls-28" d="m1173.83,850.81s-14.21,11.24-42.45,11.81c-33.73.68-117.3-8.6-117.3-8.6,0,0-3.71,10.38-3.56,21.33,0,0,102.07,25.75,161.22,3.76,0,0,7.63-14.35,2.1-28.3Z"/><path class="cls-4" d="m1124.08,874.27c0-9.61,6.9-17.42,15.39-17.42s15.39,7.81,15.39,17.42-6.9,17.42-15.39,17.42-15.39-7.81-15.39-17.42Zm5.1,0c0,6.79,4.62,12.32,10.29,12.32s10.29-5.53,10.29-12.32-4.62-12.32-10.29-12.32-10.29,5.53-10.29,12.32Z"/><rect class="cls-31" x="949.47" y="749.79" width="138.67" height="189.81" transform="translate(1232.44 2150.78) rotate(-138.95)"/><path class="cls-29" d="m1037.66,871.08s38.32,4.48,38.2,13.58c-.12,9.1-9.55,27.78-14.28,28.61-4.73.83-31.18-25.27-31.18-25.27l7.27-16.92Z"/><path class="cls-1" d="m1024.85,620.42s-51.16,3.59-70.77,51.26c-19.61,47.67-56.82,127.71-56.82,141.17s20.78,54.97,132.4,78.84c0,0,11.54-12.14,10.85-21.75,0,0-69.68-59.85-69.49-66.84.35-13.23,11.42-30.7,72.6-91.89,16.63-16.64-18.77-90.79-18.77-90.79Z"/><path class="cls-26" d="m1326.21,907.57l153.3-450.59c.71-2.05,1.65-4.01-.39-4.76l-1.86-.68c-2.09-.76-2.7.59-3.46,2.68l-163.41,444.11c-1.54,4.24.46,8.96,4.58,10.79l3.79,1.68c2.96,1.32,6.41-.18,7.46-3.24Z"/><path class="cls-29" d="m1347.04,768.82s6.96-.23,14.34-2.15c5.8-1.52,13.24-4.22,13.24-4.22,4.38,3.19-10.83,11.88-14.71,17.82-3.17,4.85-6.77,6.25-15.51,8.13l2.64-19.58Z"/><path class="cls-31" d="m1102.01,1651.3c21.31-2.64,15.69,2.8,45.56,2.98,29.87.18,40.09-9.77,41.5-14.05,1.26-3.8-13.15-6.87-28.57-10.5l-.55.39s-18.78,10.37-43.4,8.09c-20.07-1.85-40.59-10.06-54.43-11.45-.85,4.54-1.69,9.18-1.3,13.87,1.08,13.32,19.88,13.31,41.2,10.67Z"/><path class="cls-31" d="m948.15,1652.6h-33.01c-9.59,0-20.52-7.35-23.19-24.67-2.66-17.32-22.39-26.77-26.65-40.94-2.93-9.74,3.99-16.69,10.55-22.04,3.62,5.44,11.46,19.01,19.14,44.01,8.97,29.22,30.48,30.06,47.73,27.63,2.31,2,4.95,3.69,7.98,5.07,15.22,6.88-2.54,10.94-2.54,10.94Z"/><path class="cls-29" d="m1032.89,617.95c10.37-2.3,18.95-9.58,22.52-19.58,4.3-12.05,7.72-29.83,7.64-52.12l3.24.64,54.43,10.78s-1.24,17.13-1.28,33.27c0,.13,0,.27,0,.4-.07,14.02,9.13,26.39,22.59,30.27,6.88,1.98-32.78,54.2-37.32,53.17-9.44-2.14-75.11-56.1-71.82-56.83Z"/><path class="cls-27" d="m1120.72,557.66s-1.24,17.13-1.28,33.27c-30.46-.86-46.56-28.64-53.16-44.05l54.43,10.78Z"/><path class="cls-29" d="m1130.89,572.94s-72.07,1.19-72.12-43.7c-.05-44.89-9.38-74.97,36.63-77.63,46.01-2.66,54.97,14.46,58.63,29.44,3.66,14.98-4.4,90.42-23.14,91.89Z"/><path class="cls-31" d="m1128.23,450.51s-19.73,52.67-50.01,60.45c-30.28,7.79-43.42-.33-43.42-.33,0,0,23.23-18.45,28.05-50.66,0,0,50.5-34.53,65.38-9.46Z"/><path class="cls-31" d="m1123.34,454.79s14.63,5.47,20.65,16.14c5.89,10.44,10.91,24.26,9.74,41.21,0,0,14.87-35.8-1.84-56.05-17.72-21.47-28.56-1.31-28.56-1.31Z"/><path class="cls-4" d="m1116.81,546.29s1.25,5.29,14.41,4.47c0,0,11.05-.68,10.71-6.5,0,0-10.71-4.14-25.12,2.02Z"/><path class="cls-32" d="m1104.72,674.78s-48.74-52.07-50.57-73.35c0,0-12.43,3.45-27.05,17.68,0,0,11.71,29.35,25.7,39.03,0,0,10.18-1.43,18.2-4.73,0,0-5.09,8.44-9.12,13.48,0,0,22.09,12.53,42.85,7.9Z"/><path class="cls-32" d="m1121.8,603.42s19.23,35.14-17.08,71.36c0,0,22.79-4.36,34.5-20.42,0,0-3.63-8.62-6.72-10.62,0,0,6.84-2.72,11.14,1.27,0,0,2.61-18.84,0-24.58-2.61-5.74-16.19-17.19-21.83-17Z"/><path class="cls-31" d="m1101.09,674.78c0-2.01,1.63-3.63,3.63-3.63s3.63,1.63,3.63,3.63-1.63,3.63-3.63,3.63-3.63-1.63-3.63-3.63Z"/><path class="cls-31" d="m1120.45,726.25c0-2.01,1.63-3.63,3.63-3.63s3.63,1.63,3.63,3.63-1.63,3.63-3.63,3.63-3.63-1.63-3.63-3.63Z"/><path class="cls-31" d="m1124.08,786.61c0-2.01,1.63-3.63,3.63-3.63s3.63,1.63,3.63,3.63-1.63,3.63-3.63,3.63-3.63-1.63-3.63-3.63Z"/><path class="cls-8" d="m1186.02,1031.36c-7.94,96.76-17.29,178.27-17.29,178.27,0,0-45.12,30.4-108.97,34.27,1.13-.42,37.44-14.42,64.31-45.88,27.3-31.95,61.94-166.66,61.94-166.66Z"/><path class="cls-13" d="m3.21,1652.74h2723.59c1.77,0,3.21,1.44,3.21,3.21v1.37c0,1.77-1.44,3.21-3.21,3.21H3.21c-1.77,0-3.21-1.44-3.21-3.21v-1.37c0-1.77,1.44-3.21,3.21-3.21Z" transform="translate(2730 3313.27) rotate(180)"/><rect class="cls-21" x="2298.49" y="1053.01" width="6.54" height="77.03" transform="translate(-144.05 379.12) rotate(-9.13)"/><polygon class="cls-26" points="2293.5 1040.1 2292.43 1054.01 2298.88 1052.98 2293.5 1040.1"/><rect class="cls-21" x="2355.27" y="1059.35" width="6.54" height="77.03" transform="translate(240.16 -412.27) rotate(10.52)"/><polygon class="cls-15" points="2368.05 1046.66 2362.36 1059.4 2368.79 1060.59 2368.05 1046.66"/><rect class="cls-21" x="2347.12" y="1037.13" width="6.53" height="77.03" transform="translate(235.97 -411.15) rotate(10.52)"/><polygon class="cls-15" points="2359.9 1024.45 2354.21 1037.18 2360.64 1038.38 2359.9 1024.45"/><rect class="cls-8" x="2316.62" y="1085.08" width="51.48" height="74.19"/><rect class="cls-2" x="2290.88" y="1085.08" width="51.48" height="74.19"/><path class="cls-5" d="m445.97,1065.83s25.38-29.61,1.57-48.42c0,0-17.4-10.53-31.58-9.68,0,0,20.1,33.7,13.6,37.06-6.5,3.35-19.69-39.17-19.69-39.17,0,0-39.59-3.84-52.32,2.28,0,0,33.84,27.69,26.72,29.34-7.13,1.65-43.68-25.53-43.68-25.53,0,0-36.85,6.27-34.88,28.75,1.96,22.48,14.66,29.42,20.24,28.82,5.58-.6,38.22-13.06,38.93-8.49.71,4.57-18.94,19.51-32.7,20.21,0,0,25.98,28.65,43.24,20.38,17.26-8.27,18.74-21.37,29.5-26.29,10.76-4.92,19.95-4.9,15.51.11-4.44,5.01-23.92,9.88-30.07,20.77-6.15,10.89-11.68,18.23,6.19,15.54,17.86-2.69,46.9-15.76,48.17-30.72l1.27-14.97Z"/><path class="cls-5" d="m323.8,1041.07s100.07-3.86,122.17,24.76c0,0,4.89,14.64,19.93,27.97l2.34,6.39s-17.34-18.28-23.55-19.39c0,0,9.7-35.46-120.9-39.73Z"/><path class="cls-5" d="m465.9,1093.8s21.48,15.89,22.97,44.27l-3.9.35s-6.86-29.35-19.26-40.83c-12.4-11.48.19-3.79.19-3.79Z"/><path class="cls-9" d="m534.71,1028.59s-40.37-22.61-21.53-53.29c0,0,15.07-18.84,31.22-23.69,0,0-8.61,45.76,0,46.84,8.61,1.08,5.92-51.68,5.92-51.68,0,0,42.53-20.46,59.22-18.84,0,0-26.38,44.68-17.76,43.6,8.61-1.08,38.22-46.3,38.22-46.3,0,0,43.6-8.07,50.6,17.77,7,25.84-4.31,38.76-10.77,40.38-6.46,1.61-47.91,1.08-46.83,6.46,1.08,5.38,29.07,14,44.68,9.15,0,0-17.23,42.53-39.84,40.38-22.61-2.15-29.61-16.15-43.6-17.23-14-1.08-24.23,2.69-17.23,6.46,7,3.77,30.68,1.23,41.99,10.85,11.3,9.61,20.46,15.53-.54,19.84-21,4.31-58.68,1.62-66.22-14.54l-7.54-16.15Z"/><path class="cls-5" d="m660.68,951.07s-113.05,36.61-125.97,77.52c0,0,.54,18.3-10.77,39.3v8.08s11.84-27.45,18.3-31.22c0,0-25.3-35.53,118.43-93.67Z"/><path class="cls-5" d="m523.95,1067.89s-17.43,26.47-7.49,58.7l4.48-1.2s-4.35-35.5,4.77-53.35c9.12-17.85-1.76-4.15-1.76-4.15Z"/><path class="cls-9" d="m470.48,997.41s53.22-29.8,28.38-70.25c0,0-19.87-24.84-41.16-31.22,0,0,11.35,60.32,0,61.74-11.35,1.42-7.81-68.12-7.81-68.12,0,0-56.06-26.97-78.06-24.84,0,0,34.77,58.9,23.42,57.48-11.35-1.42-50.38-61.03-50.38-61.03,0,0-57.48-10.64-66.7,23.42-9.23,34.06,5.68,51.09,14.19,53.22,8.52,2.13,63.16,1.42,61.74,8.52-1.42,7.1-38.32,18.45-58.9,12.06,0,0,22.71,56.06,52.51,53.22,29.8-2.84,39.03-21.29,57.48-22.71,18.45-1.42,31.93,3.55,22.71,8.52-9.22,4.97-40.45,1.63-55.35,14.3-14.9,12.67-26.97,20.47.71,26.15,27.68,5.68,77.35,2.13,87.28-19.16l9.94-21.29Z"/><path class="cls-5" d="m304.43,895.22s149.02,48.25,166.05,102.19c0,0-.71,24.13,14.19,51.8v10.64s-15.61-36.19-24.13-41.16c0,0,33.35-46.83-156.12-123.47Z"/><path class="cls-5" d="m484.67,1049.21s22.98,34.9,9.88,77.38l-5.91-1.59s5.74-46.79-6.28-70.32c-12.02-23.53,2.32-5.47,2.32-5.47Z"/><path class="cls-8" d="m368.02,1114.46c0,57.58,46.68,104.25,104.25,104.25,12.02,0,23.57-2.03,34.31-5.78,40.72-14.19,69.94-52.92,69.94-98.47h-208.5Z"/><path class="cls-2" d="m436.64,1114.46c0,39.06,9.36,78.84,41.15,96.7,5.29,2.97,22.98-.25,28.79,1.78,40.72-14.19,69.94-52.92,69.94-98.47h-139.88Z"/><path class="cls-8" d="m366.58,1224.02h211.38c0-3.55-1.44-6.77-3.77-9.1-2.33-2.33-5.54-3.77-9.1-3.77h-185.66c-7.1,0-12.86,5.76-12.86,12.86Z"/><path class="cls-2" d="m465.62,1224.02h112.34c0-3.55-1.44-6.77-3.77-9.1-2.33-2.33-5.54-3.77-9.1-3.77h-86.62c-7.1,0-12.86,5.76-12.86,12.86Z"/><rect class="cls-21" x="365.65" y="1114.46" width="214.3" height="3.2" transform="translate(945.6 2232.12) rotate(180)"/><path class="cls-16" d="m1660.97,1652.74h-.48c-2.83,0-5.1-2.33-5.03-5.15l7.63-330.86,22.49-2.62-19.17,333.51c-.17,2.88-2.55,5.13-5.43,5.13Z"/><path class="cls-16" d="m1529.93,1652.74h-.48c-2.83,0-5.1-2.33-5.03-5.15l7.63-330.86,22.49-2.62-19.18,333.51c-.17,2.88-2.55,5.13-5.43,5.13Z"/><path class="cls-16" d="m1891.51,1652.74h.48c2.83,0,5.1-2.33,5.03-5.15l-7.63-330.86-22.49-2.62,19.18,333.51c.17,2.88,2.55,5.13,5.43,5.13Z"/><path class="cls-15" d="m1515.03,1296.21v-226.72c0-39.89,22.04-72.23,49.22-72.23h111.3c27.18,0,49.22,32.34,49.22,72.23v235.39s-209.73-8.66-209.73-8.66Z"/><path class="cls-16" d="m1515.03,1296.21h337.08v35.79h-315.39c-11.97,0-21.69-9.72-21.69-21.69v-14.1h0Z"/><path class="cls-26" d="m1723.87,1296.21h168.44c7.53,0,13.64,6.11,13.64,13.64v8.52c0,7.53-6.11,13.64-13.64,13.64h-168.44c-7.53,0-13.64-6.11-13.64-13.64v-8.52c0-7.53,6.11-13.64,13.64-13.64Z"/><g id="Layer_1-2"><path class="cls-2" d="m1578.82,281.05c.96-.21,1.95-.2,2.93-.2,90.67,0,181.36,0,272.03-.03,5.45,0,9.33,3.53,10.25,7.87.2.92.16,1.84.16,2.77v114.25c0,7.26-.18,14.52.06,21.77.17,5.26-3.43,10.69-10.42,10.74h-193.63c-.87,0-1.75.02-2.62.03-.14-.08-.3-.13-.41-.24-5.22-5.25-10.59-10.35-15.72-15.69-.58-.61-1.04-1.4-1.93-1.66-.87-.98-1.73-1.98-2.63-2.95-.94-1.02-.96-1.02-.03-2.04,1.19-1.32,2.61-2.43,3.69-3.86.17-.08.26-.19.18-.38.25-1.06-.16-1.85-.93-2.58-1.45-1.37-2.84-2.81-4.24-4.23-.4-.42-.94-.75-1.05-1.39.24-.43.44-.87.72-1.28,2.75-4.06,4.98-8.42,6.85-12.94,2.43-5.9,4.24-11.99,5.07-18.34.41-.55.31-1.19.29-1.82,0-.17.02-.34.03-.52.34-.57.33-1.18.18-1.81v-.48c.71-2.96.4-5.95.31-8.93.08-1.45-.01-2.89-.22-4.31.05-.09.04-.16-.03-.23-.06-.81-.1-1.62-.18-2.43-.31-3.07-.91-6.1-1.58-9.11.02-.03.05-.08.05-.1-.04-.05-.1-.1-.14-.14-.86-3.88-2.16-7.61-3.6-11.3-1.26-3.22-3.13-6.09-4.64-9.16-1.34-2.72-3.05-5.22-4.8-7.69-.85-1.19-2.1-2.01-2.78-3.33-.05-.14-.1-.3-.17-.44-.97-1.67-2.59-2.75-3.86-4.14-4.41-4.83-9.4-8.98-14.96-12.45-3.92-2.44-8.08-4.39-12.3-6.23-3.03-1.32-6.24-2.09-9.41-3-3.45-.98-6.93-1.71-10.5-2.01h0Zm118.68,67.57c.05.29.27.32.46.22.2-.11.25-.33.14-.55,0-2.61,0-5.23,0-7.85.08-.26-.07-.3-.27-.28-.37.02-.41.29-.4.56.03,2.63-.12,5.27.08,7.9h0Zm-2.25,18.94c.69.16.73.16.72-.53-.02-2.18-.08-4.36-.12-6.54,0-.16,0-.33-.05-.48-.11-.31-.27-.62-.68-.55-.42.08-.25.41-.25.65.1,2.4.22,4.79.33,7.18-.03.03-.08.07-.08.08.03.07.08.12.11.18h0Zm2.36-8.08c-.44-.1-.75-.03-.73.52.1,2.54.19,5.08.28,7.62,0,.18.11.28.29.25.16-.03.25-.15.19-.33.1-2.69.21-5.38-.05-8.07.01-.03.03-.05.04-.08-.17.14.01-.12,0,.1h0Zm146.67-11.21c-.1.2-.08.43.1.53.18.11.38.04.39-.24.19-2.7.45-5.4.3-8.12.08-.23-.02-.31-.24-.29-.55-.12-.6.17-.6.63.03,2.49.03,4.99.04,7.48h0Zm-.91,11.2c-.01-.25-.18-.34-.4-.3-.15.03-.25.14-.23.31-.17,2.68-.13,5.37-.02,8.06.23.55.48.55.78.05.09-2.7.12-5.41-.13-8.11h0Zm-143.97,20.93c-.26-.49-.47-.42-.65.05-.14,2.81-.14,5.62.01,8.43.33.59.64.51.93-.05.08-2.48.03-4.97-.17-7.45.03-.04.08-.08.08-.11-.02-.08-.07-.16-.11-.25-.03-.21-.06-.42-.09-.63h0Zm145.03,8.44c.19-2.82.18-5.63.03-8.45-.28-.46-.53-.46-.76.04-.16,2.8-.12,5.6-.02,8.4.24.55.49.53.75.01h0Zm-134.84,34.84c-.03-.59-.09-1.19-.09-1.79-.01-1.74-.03-3.48,0-5.22.01-.72-.27-.94-.97-.93-.63.01-1.02.1-1.02.87.03,2.72.03,5.44,0,8.16,0,.68.32.81.9.8,1.69-.02,3.37-.03,5.06,0,.66.01.88-.26.82-.86-.03-.27-.09-.53-.13-.79-.28-.36-.68-.25-1.04-.25-1.18-.01-2.36,0-3.54,0h0Zm-40.98-5.97c.03,2.29.08,4.57.07,6.85,0,.77.22,1.04,1.01,1.04.79,0,1.03-.24,1.02-1.02-.02-2.29.03-4.57.06-6.85.91-.2,1.9.29,2.76-.31.11-1.63.11-1.64-1.41-1.65-1.84,0-3.68.02-5.52-.01-.63,0-.91.21-.85.84.03.27.05.53.08.81.87.61,1.86.13,2.76.31h0Zm154.26-.29c.05-.16.13-.31.13-.46.02-1.16.02-1.18-1.13-1.19-1.69-.01-3.37.01-5.05-.01-.6,0-.89.16-.89.82.02,2.77.01,5.54,0,8.31,0,.46.16.7.66.7,2.01,0,4.02-.01,6.03,0,.5,0,.69-.21.66-.68-.02-.32-.05-.64-.09-.97-.33-.42-.79-.25-1.19-.26-1.34-.03-2.68-.03-4.03-.03-.02-.69-.04-1.37-.06-2.06.08-.04.11-.1.08-.18,1.25-.03,2.5-.08,3.75-.08.59,0,.9-.14.88-.81-.01-.64-.25-.87-.88-.83-.81.04-1.63.01-2.45,0-1.42-.01-1.43-.01-1.38-1.43,0-.21.08-.42.13-.63.9.02,1.81.1,2.7.04.7-.04,1.47.3,2.12-.25v.02Zm-102.44,3.99c1.25-.03,2.5-.08,3.75-.08.59,0,.9-.14.88-.81-.01-.64-.25-.87-.88-.83-.81.04-1.63.01-2.45,0-1.42-.01-1.43-.01-1.38-1.43,0-.21.08-.42.13-.63.9.02,1.8.1,2.7.04.7-.04,1.47.3,2.12-.25.05-.16.13-.31.13-.46.02-1.16.02-1.18-1.13-1.19-1.69-.01-3.37.01-5.05-.01-.59,0-.89.16-.89.82.02,2.77.01,5.54,0,8.31,0,.46.16.7.66.7,2.01,0,4.02-.01,6.03,0,.5,0,.69-.21.66-.67-.02-.32-.05-.64-.09-.97-.33-.42-.79-.25-1.19-.26-1.34-.03-2.68-.03-4.03-.03-.02-.69-.04-1.37-.06-2.06.08-.04.11-.1.08-.18h0Zm114.17-4.01c.02-.32.05-.65.07-.97.03-.51-.25-.66-.7-.66h-5.71c-.45,0-.72.15-.72.65v8.49c0,.48.23.68.69.68h6.62c.19-.64.16-1.12.07-1.6-.36-.5-.89-.26-1.34-.29-1.34-.08-2.7.12-4.04-.14,0-.32-.03-.64-.02-.96.02-1.24.02-1.24,1.22-1.26.81-.01,1.61,0,2.42,0,1.1-.02,1.1-.03,1.13-1.3-.1-.56-.56-.38-.89-.39-1.27-.03-2.54-.03-3.82-.04-.08-.62-.1-1.25.01-1.87,1.34-.01,2.69-.01,4.03-.04.35,0,.77.16,1-.29v-.02Zm-47.46-1.3c-.83-.55-1.29-.55-2.04.02-.05,2.18-.1,4.35.05,6.53.13,1.85.61,2.43,2.48,2.95.93.42,1.85.4,2.77,0,1.2-.62,2.4-1.25,2.42-2.86.03-2.06.03-4.12.05-6.19,0-.27-.01-.56-.28-.72-.77-.44-1.73.12-1.74,1.03-.02,1.74.03,3.47-.02,5.22-.03,1.28-.51,1.79-1.56,1.88-1.37.13-2.05-.42-2.09-1.82-.05-2.01-.03-4.02-.04-6.03h0Zm-90.38,1.3c.02-.32.05-.65.07-.97.03-.51-.25-.66-.7-.66h-5.71c-.45,0-.72.15-.72.65v8.49c0,.48.23.68.69.68h6.62c.19-.64.16-1.12.07-1.6-.36-.5-.89-.26-1.34-.29-1.34-.08-2.7.12-4.04-.14,0-.32-.03-.64-.02-.96.02-1.24.02-1.24,1.22-1.26.81-.01,1.61,0,2.42,0,1.1-.02,1.1-.03,1.13-1.3-.1-.56-.56-.38-.89-.39-1.27-.03-2.54-.03-3.82-.04-.08-.62-.1-1.25.01-1.87,1.34-.01,2.69-.01,4.03-.04.35,0,.77.16,1-.29v-.02Zm-17.29,2.07c-.3-.79-.12-1.62-.14-2.43-.05-1.24-.03-1.24-1.26-1.26-.16,0-.33.03-.49.04-.18,0-.31.03-.2.25,0,2.88,0,5.76-.03,8.64-.01.76.35.89,1,.89.63,0,1.06-.12.98-.88-.02-.21,0-.44,0-.65.02-2.98.02-2.95,3.03-2.75.68.04.83.32.81.89-.01.92-.01,1.85,0,2.77.01.79.63.58,1.07.6.42.02.92.1.92-.58v-8.48c0-.83-.58-.74-1.13-.76-.59-.02-.91.16-.88.83.03.92-.02,1.84-.03,2.77-1.22.03-2.43.07-3.65.11h.01Zm101.45,2.18c.22-3.9-.74-5.3-4.2-6.06-2.05-.45-4.14.79-4.79,2.89-.43,1.39-.47,2.81,0,4.18.48,1.43,1.28,2.64,2.94,2.91,1.03.46,2.05.38,3.07-.04,1.37-.86,2.72-1.73,2.89-3.56.14-.08.16-.2.1-.33h0Zm58.4-5.84c-.18,0-.31.03-.2.25,0,2.01-.05,4.03-.01,6.05.02,1.13-.5,2.57.28,3.28.69.63,2.09.15,3.17.18.75.02,1.48,0,2.21-.35,2.12-1.04,2.63-2.89,2.57-4.98-.09-3.12-1.59-4.48-4.75-4.48-1.09,0-2.18.03-3.26.04h0Zm-97.11.25c0,2.01-.05,4.03-.01,6.05.02,1.13-.5,2.57.28,3.28.69.63,2.09.15,3.17.18.75.02,1.48.01,2.21-.35,2.1-1.04,2.64-2.88,2.57-4.98-.1-3.12-1.59-4.48-4.76-4.48-1.09,0-2.18.03-3.26.04-.18,0-.31.03-.2.25h0Zm-77.64-15.88c.51.3,1.06.14,1.6.14,59.52,0,119.04,0,178.56,0,.52,0,1.09.2,1.57-.18.15-.52.38-1.05-.2-1.47-.48-.38-1.05-.19-1.58-.19-59.47,0-118.94,0-178.41,0-.53,0-1.09-.2-1.57.2-.21.51-.22,1.01.03,1.5Zm180.84-104.12c.25-.5.24-1,.03-1.5-.59-.41-1.27-.2-1.9-.2-59.35-.01-118.7-.01-178.05-.01h-1.31c-.23,0-.43.02-.56.24-.13.48-.18.97.05,1.44.48.38,1.05.18,1.57.18,59.52,0,119.04,0,178.56,0,.53,0,1.09.16,1.6-.14h0Zm-39.62,16.35c0,7.54-.01,15.08-.01,22.62,0,.27.05.53.09.81-.04.32.2.33.4.33,1.62,0,3.24,0,4.87,0,.27,0,.55,0,.63-.35.02-.59.06-1.19.06-1.79.01-7.23.02-14.47.03-21.69,2.33-.02,4.67-.02,7-.07.5-.01,1.09.28,1.48-.31.12-1.53.21-3.07-.05-4.59-.27-.52-.76-.3-1.16-.3-6.89-.01-13.78-.01-20.68,0-.33,0-.66,0-.98.04-.33.05-.42.29-.36.6l.03,4.21c.32.69.94.35,1.41.37,2.41.1,4.83-.14,7.24.15h0Zm-92.86-4.72c.47-.56.04-.63-.37-.63-1.88-.01-3.77,0-5.66,0-.23,0-.42.06-.55.26-1.71,2.51-3.01,5.28-4.57,7.88-.23.39-.31.92-.87,1.1-.29-.53-.57-1.06-.87-1.58-1.42-2.44-2.6-5-4.15-7.37-.58-.58-1.31-.27-1.97-.29-1.5-.05-3-.02-4.51,0-.4,0-.85.05-.39.63,2.49,4.01,4.94,8.05,7.49,12.02.74,1.16.8,2.03.02,3.23-2.7,4.14-5.27,8.35-7.89,12.53-.44.44-.27.68.27.69,2,.01,4.01,0,6.01-.03.12,0,.25-.17.37-.26,1.88-3.13,3.77-6.27,5.74-9.54,1.85,3.26,3.61,6.38,5.37,9.49.08.23.26.34.49.34,2.07,0,4.13,0,6.2,0,.23,0,.42-.08.46-.34-.12-.61-.54-1.05-.85-1.56-2.5-4.01-4.99-8.03-7.54-12.01-.55-.85-.53-1.47.01-2.32,2.62-4.06,5.17-8.16,7.75-12.26h0Zm18.4,17.73c1.55,0,3-.44,4.36-1.15,1.97-1.02,3.01-2.76,3.41-4.84.35-1.83.42-3.67.09-5.58-.42-2.45-1.6-4.22-3.69-5.42-1.39-.79-2.91-1.15-4.51-1.18-.2-.07-.4-.2-.59-.2-4.05-.01-8.09-.01-12.14-.01-.27,0-.54.02-.65.34-.02,4.08-.06,8.16-.06,12.24,0,5.39.03,10.78.05,16.16.04.25.2.36.44.36h5.13c.24,0,.39-.14.42-.38.02-.81.05-1.62.07-2.44.05-2.55-.12-5.1.09-7.65,1.95,0,3.9.01,5.86,0,.59,0,1.2.1,1.73-.27h0Zm32.66-2.03c.02-1.36.03-2.72.08-4.08.03-.65-.24-.88-.86-.83-.33.03-.66,0-.98,0h-10.94c-1.13,0-1.14-.03-1.15-1.17-.01-1.19-.01-2.4,0-3.59q.01-1.41,1.43-1.42h1.15c3.86,0,7.73-.02,11.6.01.76,0,1.08-.2,1.03-1.01-.08-1.3-.07-2.61-.09-3.91-.32-.56-.87-.32-1.31-.32-6.13-.02-12.27-.01-18.4,0-.42,0-.88-.15-1.22.25-.03.38-.09.76-.09,1.13v26.27c0,.38.06.76.09,1.13,0,.44.34.33.57.33h20.25c.3,0,.68.09.8-.35.09-1.62.14-3.25-.03-4.87-.27-.53-.76-.31-1.15-.31-4.84,0-9.67,0-14.51.01-.18-2.31-.18-4.61,0-6.93,4.21,0,8.42.02,12.62,0,.39,0,.88.21,1.13-.33v-.02Zm-78.07,7.59c-.42-.67-1.09-.34-1.63-.34-4.74-.05-9.48-.06-14.21-.08v-6.77c.59-.01,1.19-.04,1.79-.04,3.58,0,7.15.01,10.72-.02.48,0,1.11.33,1.42-.37,0-1.51.02-3.01.03-4.52.07-.23-.03-.32-.26-.3-.55-.01-1.09-.04-1.63-.04-3.7,0-7.4-.02-11.1.01-.78,0-1.06-.23-1.02-1.02.05-1.25,0-2.51.01-3.75,0-1.43.01-1.43,1.4-1.44h13.22c.39,0,.63-.18.61-.58-.08-1.45.25-2.91-.19-4.35-.18-.39-.53-.3-.84-.3h-19.2c-.31,0-.67-.08-.82.33-.03.59-.07,1.19-.07,1.79,0,5.94,0,11.87,0,17.81,0,2.94.03,5.88.05,8.82.15.54.61.36.94.36,6.62.01,13.24.01,19.86,0,.34,0,.79.16.93-.39.09-1.6.14-3.2-.02-4.8h0Zm146.48,5.54c1.55.46,3.1.47,4.64,0,1.77-.05,3.43-.57,4.94-1.47,2.3-1.37,3.88-3.29,4.23-6.05.03-.03.1-.07.1-.1,0-.09-.03-.18-.05-.27.53-4.04-1.48-7.07-5.02-8.22-1.44-.46-2.89-.87-4.35-1.25-2.1-.55-4.23-.94-6.27-1.69-1.09-.4-1.88-1.1-1.94-2.36s.48-2.2,1.57-2.82c.76-.44,1.59-.68,2.47-.75.78.12,1.56.12,2.34,0,2.42.29,4.18,1.35,4.62,3.95.05.25.22.35.45.35h4.82c.24,0,.39-.13.42-.38.01-.82-.12-1.62-.36-2.4-1.24-3.93-4.23-5.67-8.01-6.41-.29-.25-.61-.35-.98-.2-1.74-.16-3.46-.1-5.19.2-4.72.81-8.55,4.65-7.61,10.42.38,2.31,1.53,3.99,3.59,5.12,1.38.76,2.86,1.15,4.37,1.5,2.21.53,4.46.91,6.63,1.63,1.09.36,2.16.77,2.66,1.96-.09.25,0,.46.14.68-.12,1.94-1.33,2.86-3.07,3.3-1.39.35-2.81.42-4.21.27-2.28-.24-4.3-.95-4.82-3.58-.12-.6-.47-.63-.94-.63-1.36,0-2.72.02-4.08,0-.6-.01-.89.15-.86.82.11,2.49,1.25,4.46,3.15,5.97,1.93,1.53,4.17,2.29,6.63,2.41h-.02Zm-61.31-29.08c-.02.33-.05.65-.05.98v26.22c0,.38.05.76.08,1.13,0,.25.14.4.39.4h5.02c.24,0,.4-.13.44-.38.02-.7.05-1.41.06-2.11.03-2.87.05-5.75.08-8.62,2.3-.03,4.59-.05,6.89-.08,1.74.07,2.72,1.04,3.13,2.67-.16.35-.04.67.14.98,0,1.13-.01,2.27.01,3.41.03,1.3.14,2.59.66,3.8.3.58.85.33,1.29.35,1.56.03,3.13.02,4.7,0,.7,0,1.02-.26.53-.95-.74-.74-1.02-1.62-1.01-2.66.02-1.3,0-2.61-.03-3.92-.07-2.56-.68-4.85-3.18-6.17-.03-.01-.03-.1-.05-.2,3.17-1.58,4.14-4.33,3.97-7.67-.11-2.03-1.15-3.65-2.42-5.12-.63-.74-1.52-1.13-2.44-1.52-1.3-.56-2.61-.63-3.96-.63-.13-.2-.33-.27-.55-.27h-13.15c-.23,0-.57-.05-.53.38h0Zm50.18,41.5c7,0,13.99.01,20.99,0,.44,0,.99.25,1.3-.33v-8.51h-30.6c-2.08,0-1.81-.25-1.82,1.83,0,15.1,0,30.2,0,45.29,0,.55.04,1.09.06,1.63.08.35.35.35.62.36.87,0,1.74,0,2.61,0,8.98,0,17.95,0,26.93-.02.51,0,1.15.34,1.55-.32.12-2.84.18-5.68-.03-8.51-.23-.45-.66-.3-1.01-.3-6.86,0-13.72.01-20.58.03-.29-1.17-.14-2.38-.12-3.56.03-2.87-.16-5.75.1-8.61,1.63,0,3.26.01,4.89.01,4.83,0,9.67.01,14.51-.02.46,0,1.12.4,1.38-.4.08-2.72.23-5.43-.11-8.14-.21-.35-.56-.27-.87-.27-6.59,0-13.18.02-19.78.03-.25-3.4-.2-6.81-.02-10.21h0Zm-127.22,18.59c.14-2.16-.09-4.31-.14-6.46,0-.12-.01-.23-.02-.35-.08-.49.08-1.09-.58-1.33-.5-.52-1.13-.26-1.69-.26-5.87-.04-11.74-.05-17.62-.07v-10.06c.66-.01,1.31-.03,1.96-.03,6.21,0,12.43,0,18.64-.02.55,0,1.2.31,1.65-.31.2-2.61.05-5.22.09-7.83,0-.47-.17-.72-.66-.7-.38.01-.76,0-1.15,0h-28.75c-.55,0-1.09.04-1.63.06-.21,0-.31.07-.19.29-.01.66-.04,1.3-.04,1.96v38.58c0,2.61.02,5.23.03,7.84.16.63.69.38,1.05.38,10.36.01,20.7.01,31.06,0,.4,0,.89.18,1.19-.3.23-.1.32-.27.31-.5-.03-2.68.12-5.35-.08-8.03-.33-.55-.87-.31-1.32-.31-2.28-.03-4.57,0-6.85-.01-5.11-.01-10.21-.03-15.32-.05v-12.03c1.09-.01,2.16-.03,3.25-.03,5.15,0,10.29,0,15.43-.02.45,0,1.11.4,1.37-.4h.01Zm39.52-27.14c-.29-.29-.63-.31-1-.16-1.04-.03-2.07-.1-3.11-.11-6.21,0-12.42-.01-18.64,0-2.08,0-1.82-.24-1.82,1.82,0,15.1,0,30.19,0,45.29,0,.55.03,1.09.05,1.63.15.54.61.36.95.36,6.86,0,13.73,0,20.59,0,.38,0,.77.03,1.09-.23,5.8-.27,10.44-2.68,13.78-7.46,2.57-3.68,3.97-7.81,4.5-12.25.03-.03.1-.07.1-.1,0-.09-.03-.18-.05-.27.3-1.05.21-2.14.29-3.21.17-.14.19-.29.02-.45.2-3.93-.27-7.75-1.35-11.55-1.29-4.54-3.81-8.12-7.65-10.79-2.32-1.62-5.03-2.12-7.75-2.53h0Zm67.4,22.65c-.22-.46-.65-.31-1-.31-6.08,0-12.16-.01-18.23,0-.33,0-.79-.19-.97.32-.03,2.45-.03,4.9-.08,7.35-.01.63.23.85.85.85,2.12-.02,4.25-.03,6.38,0,1.3.01,2.6-.11,3.89.08-.14,3.83-3.53,8.1-6.94,9.38-1.95.74-3.98,1.17-6.07.96-5.28-.51-9.28-2.91-11.38-7.96-.81-1.96-1.15-4.03-1.24-6.16-.14-3.26-.14-6.51.78-9.68.5-1.74,1.02-3.44,2.16-4.95,2.28-3.02,5.17-4.92,8.96-5.35,1,.11,1.99.11,2.99,0,4.59.53,8.06,2.55,9.53,7.2.18.57.48.76,1.06.75,1.86-.03,3.71,0,5.56,0h3.38c.24-1.16,0-2.11-.28-3.04-.21-.7-.65-1.32-.96-1.98-.9-1.88-1.8-3.78-3.31-5.31-3.86-3.93-8.61-5.78-14.04-6.06-1.62-.41-3.24-.45-4.87,0-.77-.1-1.48.23-2.22.31-5.29.63-9.62,3.07-13.09,7.04-3.06,3.5-4.92,7.57-5.67,12.16-.5,3.06-.76,6.13-.41,9.22-.18.17-.14.32.03.46.02,2.11.41,4.15,1.07,6.15,2.44,7.36,7.09,12.53,14.62,14.88,2.79.87,5.67,1,8.58.8.59.12,1.17.12,1.7-.25,1.37.01,2.61-.51,3.84-1,1.84-.73,3.67-1.59,4.94-3.16.71-.88,1.49-1.65,2.34-2.36.17.03.34.05.51.08.17,1.82.33,3.63.88,5.38.09.31.33.39.62.39,1.88,0,3.77,0,5.65,0,.23,0,.41-.09.48-.33.02-.32.07-.65.07-.97v-23.76c0-.38-.06-.75-.1-1.13h0Zm8.6,58.95c-.11.02-.21.04-.32.06-.62-1.08-1.24-2.16-1.86-3.24-.48-.85-.97-1.7-1.46-2.55-.48-.81-1.26-.48-1.92-.44-.64.05-.41.67-.41,1.05-.02,2.61.01,5.22-.03,7.84,0,.75.31.89.97.89.74.01.95-.31.91-.98-.03-.65-.01-1.3,0-1.96.01-.99.04-1.98.07-3.22.41.35.65.46.7.63.35,1.26,1.34,2.18,1.81,3.39.25.62.76,1.13,1.16,1.69.53.72,1.3.48,1.95.35.57-.1.31-.73.32-1.11.03-2.56,0-5.11.02-7.67,0-.68-.18-.96-.91-.98-.81-.01-1.03.29-1.01,1.05.04,1.73.01,3.45.01,5.18h0Zm-71.52,3.61c-.69-3.11-1.88-5.94-2.84-8.85-.24-.73-.61-1.02-1.4-.99-.77.03-1.28.1-1.58.98-.89,2.67-1.9,5.3-2.86,7.95-.09.25-.15.51-.04.78,1.61.2,1.79.23,2.08-.78.29-1,.85-1.12,1.69-1.05.43.03.87.05,1.3,0,.86-.1,1.36.21,1.43,1.1.05.7.46.91,1.11.88.32-.02.65,0,1.13,0v-.02Zm30.14-9.73c-1.45-.1-2.44.43-2.97,1.6-.35.76-.72,1.52-1.22,2.57-.62-1.28-1.1-2.23-1.55-3.19-.34-.73-.76-1.29-1.7-1.07-.3.07-.64-.11-.94.2.09.59.48,1.06.76,1.58,1.25,2.32,2.96,4.49,2.41,7.4-.09.48.22.63.68.66,1.16.07,1.38-.02,1.28-1.22-.16-1.77.37-3.29,1.26-4.77.7-1.15,1.27-2.39,1.98-3.75h0Zm77.05-31.12h-.05c0,1.19,0,2.39,0,3.59,0,.36-.07.83.53.79.44-.04.44-.41.44-.74v-7.34c0-.34-.03-.67-.51-.63-.35.03-.41.3-.41.58v3.75h0Zm-145.48-44.51c-.69,1.05-.7,7.43,0,8.52.12-2.84.13-5.68,0-8.52Zm144.84,27.52s.14,0,.14-.02c.32-2.66.09-5.32.13-7.99,0-.21-.07-.44-.37-.43-.3.01-.33.26-.33.46.03,2.56.07,5.13.12,7.69,0,.14.09.33.31.3h0Zm-143.53,12.53c-.18.03-.38.04-.38.07-.25,2.84.33,5.65.38,8.49v-8.56h0Zm145.15-39.95c-.15-.03-.31-.06-.46-.09,0,1.67-.05,3.34-.2,5-.1.98-.08,1.96-.1,2.94,0,.26-.02.62.31.65.48.04.44-.38.44-.69,0-2.6,0-5.21,0-7.81h0Z"/><path class="cls-10" d="m1647.74,352.8c.2,1.43.3,2.87.22,4.31-.34.48-.19,1.04-.2,1.57-.03,1.72-.07,3.45-.02,5.17.02.74-.51,1.45-.1,2.2v.48c-.33.57-.27,1.19-.18,1.8,0,.17-.02.34-.03.52-.45.55-.36,1.19-.29,1.82-.83,6.35-2.63,12.44-5.07,18.34-1.86,4.53-4.09,8.87-6.85,12.94-.27.4-.48.85-.72,1.28-1.41-.38-2.45.11-3.47,1.15-4.82,4.9-9.7,9.74-14.55,14.6-1.26,1.26-2.59,2.45-3.85,3.71-.94.94-1.61,1.88-1.63,3.22-.72.64-1.67.86-2.48,1.34-2.97,1.75-6.03,3.32-9.24,4.59-2.56,1.02-5.12,1.98-7.78,2.75-2.89.84-5.8,1.58-8.77,2.1-.51-.07-1.02-.11-1.45.28-.28.02-.56.04-.84.06-.66-.06-1.3-.1-1.89.29-1.77.23-3.54.44-5.32.4-2.96,0-5.93-.01-8.89-.03-.48-.02-.95-.05-1.43-.07-.81-.42-1.66-.32-2.51-.27-.15-.01-.3-.03-.45-.04-.54-.44-1.16-.27-1.76-.25-.29-.03-.57-.06-.85-.1-.45-.42-.99-.31-1.52-.27-6.03-.98-11.84-2.7-17.44-5.13-7.46-3.23-14.33-7.41-20.48-12.77-6.32-5.5-11.77-11.75-16.06-18.94-5.77-9.67-9.46-20.09-10.74-31.33-.03-1.41-.06-2.81-.44-4.18-.25-5.95-.1-11.88.85-17.78.7-4.36,1.82-8.59,3.16-12.78.93-2.89,2.15-5.67,3.43-8.42,2.9-6.22,6.67-11.88,11.11-17.09.21,0,.31-.11.3-.32.12-.14.24-.28.35-.42.48,1.35.2,2.66-.25,3.96-.34.98-.77,1.92-1.19,2.86-.89,1.98-1.84,3.93-2.53,5.99-.19.56-.38,1.11.14,1.7.59-.42,1.08-.87,1.44-1.41.87-1.32,1.88-2.53,2.83-3.79,3.47-4.64,7.58-8.7,11.88-12.53,2.09-1.85,4.42-3.45,6.75-5.04,3.02-2.07,6.19-3.88,9.47-5.45,5.86-2.81,12.04-4.76,18.41-6.03,5.35-1.06,10.74-1.49,16.22-1.11,4.53.32,8.96.96,13.35,2.05,7.14,1.77,13.78,4.72,20.06,8.53,3.4,2.06,6.66,4.31,9.65,6.95,2.99,2.63,5.83,5.43,8.49,8.38,2.66,2.94,5.14,6.04,7.3,9.38.2.31.51.57.79.83.21.19.48.29.73.08.21-.18.06-.4-.01-.59-.62-1.68-1.22-3.37-1.88-5.04-.76-1.93-1.6-3.82-2.33-5.74-.42-1.11-.15-1.69.85-2.18.68,1.32,1.93,2.14,2.78,3.33,1.75,2.47,3.46,4.96,4.8,7.69,1.51,3.07,3.39,5.95,4.64,9.16,1.44,3.7,2.74,7.43,3.6,11.3-.05.12-.03.2.1.23.68,3.01,1.28,6.03,1.58,9.11.08.81.12,1.62.18,2.43-.03.02-.06.05-.1.07.04.05.09.1.13.16h0Zm-90.05,76.06c.02.23.12.33.35.27h.14l.13-.05c.67-.05,1.34.22,2.01.06.32.03.64.05.96.08.62.41,1.3.33,1.99.25.54.03,1.08.05,1.62.08,2.41.57,4.85.23,7.28.26.53,0,1.09.07,1.58-.26.43-.02.87-.04,1.3-.05.68.08,1.37.17,1.99-.23.42-.03.85-.07,1.28-.1.48.09.94.12,1.34-.23.31-.03.63-.07.95-.1.48.1.94.07,1.33-.28.2-.02.41-.04.61-.07.48.08.93,0,1.34-.27,2.32-.56,4.71-.94,6.94-1.74,2.31-.83,4.58-1.8,6.84-2.78,2.83-1.24,5.56-2.55,8.14-4.25,2.85-1.87,5.67-3.79,8.33-5.9,1.66-1.32,3.32-2.73,4.72-4.38.84-.99,1.95-1.74,2.79-2.72,1.32-1.54,2.51-3.21,3.78-4.8,1.48-1.84,2.64-3.92,4.09-5.8.79-1.03,1.09-2.45,1.9-3.47,1.36-1.73,1.93-3.81,2.7-5.75.97-2.44,2.1-4.81,2.73-7.43.81-3.35,1.49-6.73,2.31-10.08.46-1.85.45-3.79.57-5.68.52-7.81-.27-15.5-2.42-23.05-1.08-3.77-2.44-7.42-4.11-11-.96-2.03-1.94-4.05-3.04-5.99-3.88-6.79-8.88-12.69-14.81-17.79-7.18-6.17-15.26-10.76-24.3-13.62-3.73-1.18-7.53-2.08-11.41-2.66-.39-.38-.85-.37-1.34-.27-.32-.01-.64-.03-.97-.05-.72-.44-1.52-.37-2.3-.29-.33-.01-.65-.03-.98-.04-1.42-.48-2.89-.31-4.34-.31-1.72,0-3.46-.2-5.15.31-.33.01-.65.03-.98.04-.79-.06-1.58-.18-2.31.27-.32.02-.64.04-.96.06-.58-.08-1.15-.14-1.66.27-.95.16-1.91.28-2.85.47-3.71.74-7.34,1.78-10.89,3.06-6.85,2.47-13.15,5.97-18.88,10.48-9.37,7.36-16.62,16.4-21.39,27.35-1.3,2.97-2.5,5.96-3.29,9.13-.81,3.26-1.56,6.51-2.01,9.84-.24,1.73-.18,3.49-.63,5.18-.42.2-.43.42-.03.66.2.48.09.97.08,1.45-.29,7.95.85,15.71,3.09,23.31.96,3.26,2.32,6.4,3.83,9.47,3.51,7.17,8.02,13.63,13.67,19.25,6.19,6.16,13.08,11.14,23.5,15.71,2.72,1.19,5.57,1.9,8.36,2.85,1.69.57,3.54.34,5.15,1.22.44.03.88.05,1.32.09l.02.03h0Z"/><path class="cls-22" d="m1611.02,425.9c.02-1.34.69-2.28,1.63-3.22,1.26-1.26,2.59-2.45,3.85-3.71,4.86-4.86,9.74-9.7,14.55-14.6,1.02-1.04,2.06-1.52,3.47-1.15.12.64.65.98,1.05,1.39,1.39,1.43,2.79,2.86,4.24,4.23.77.73,1.18,1.52.93,2.58-.17.08-.22.2-.18.38-1.08,1.43-2.49,2.54-3.69,3.86-.94,1.02-.91,1.02.03,2.04.89.97,1.75,1.97,2.63,2.95.08.86-.47,1.09-1.13.91-1.17-.31-2.38-.17-3.54-.51-.5-.14-.97-.18-1.28.37-.29.51-.43,1.06-.02,1.52.86.98,1.44,2.15,2.38,3.09,8.86,8.8,17.68,17.65,26.51,26.47.58.58,1.15,1.16,1.75,1.72.79.73,1.66.86,2.72.53.97-.3,1.5-1.05,2.17-1.67.56-.51,1.03-1.15,1.91-1.09,1.26.96,2.29,2.16,3.46,3.22.6.54.59.94,0,1.44-.32.27-.69.54-.85.97-2.68,2.32-5.02,4.98-7.58,7.43-.66.63-1.31,1.29-1.93,1.89-.56-.18-.8-.57-1.1-.87-8.29-8.28-16.58-16.57-24.87-24.85-4.16-4.16-8.33-8.32-12.5-12.48-.87-.86-.88-.85-1.76.01-1.09,1.07-2.14,2.18-3.24,3.23-1.21,1.16-2.42,1.2-3.58.07-2.05-2.02-4.14-4.01-6.06-6.16h0Zm22.1-18.66c-.39,0-.56-.01-.72,0-.83.1-1.38.68-1.32,1.37.06.7.71,1.2,1.51,1.18.57-.01,1.06-.25,1.49-.6.73-.61.63-1.42-.23-1.81-.29-.13-.63-.12-.73-.14h0Z"/><path class="cls-11" d="m1630.02,309.31c-1,.48-1.27,1.07-.85,2.18.74,1.93,1.58,3.82,2.33,5.74.66,1.67,1.26,3.36,1.88,5.04.08.2.23.42.01.59-.25.21-.52.12-.73-.08-.28-.25-.58-.51-.79-.83-2.16-3.34-4.65-6.44-7.3-9.38-2.66-2.94-5.5-5.74-8.49-8.38-3-2.64-6.25-4.88-9.65-6.95-6.27-3.81-12.92-6.75-20.06-8.53-4.39-1.09-8.83-1.73-13.35-2.05-5.48-.39-10.87.04-16.22,1.11-6.37,1.27-12.55,3.23-18.41,6.03-3.28,1.57-6.44,3.38-9.47,5.45-2.33,1.59-4.66,3.19-6.75,5.04-4.31,3.83-8.41,7.88-11.88,12.53-.94,1.26-1.96,2.46-2.83,3.79-.35.55-.85.98-1.44,1.41-.52-.59-.33-1.14-.14-1.7.7-2.06,1.65-4.01,2.53-5.99.42-.94.85-1.88,1.19-2.86.45-1.3.73-2.6.25-3.96.85-1.39,1.99-2.51,3.15-3.63,1.79-1.72,3.55-3.46,5.47-5.04,4.25-3.51,8.77-6.61,13.64-9.17,4.02-2.12,8.17-3.93,12.52-5.28,4.87-1.52,9.78-2.76,14.88-3.3,4.45-.46,8.89-.73,13.35-.51,1.82.09,3.69.03,5.48.56.13.04.31-.07.46-.11,3.57.3,7.05,1.03,10.5,2.01,3.17.91,6.38,1.67,9.41,3,4.22,1.84,8.39,3.77,12.3,6.23,5.56,3.47,10.55,7.63,14.96,12.45,1.28,1.39,2.89,2.47,3.86,4.14.08.14.12.29.17.44h0Z"/><path class="cls-2" d="m1611.02,425.9c1.91,2.16,4,4.14,6.06,6.16,1.15,1.13,2.37,1.09,3.58-.07,1.11-1.05,2.16-2.16,3.24-3.23.87-.87.89-.87,1.76-.01,4.17,4.16,8.34,8.31,12.5,12.48,8.29,8.29,16.57,16.57,24.87,24.85.3.3.54.68,1.1.87.61-.61,1.26-1.26,1.93-1.89,2.55-2.45,4.9-5.1,7.58-7.43.17.13.37.23.51.39.96,1.04.97,1.06-.04,2.08-2.91,2.94-5.84,5.86-8.77,8.79-.19.19-.5.29-.63.5-.52.79-1.11.53-1.6.06-.87-.82-1.75-1.65-2.48-2.59-1.28-1.64-2.86-2.96-4.27-4.46-1.99-2.12-4.44-3.76-6.21-6.14-.72-.97-1.66-1.84-2.73-2.54-1.15-.74-1.67-2.1-2.76-2.97-1.89-1.52-3.39-3.48-5.16-5.1-2.38-2.16-4.6-4.47-6.9-6.7-.59-.57-1.22-.77-2.04-.77-13.09.03-26.19.03-39.29,0-1.83,0-3.54.55-5.28.93-3.24.71-6.49,1.12-9.78,1.47-3.26.35-6.53.38-9.78.25-2.25-.09-4.49-.25-6.74-.56-2.9-.4-5.79-.81-8.64-1.47-3.97-.93-7.82-2.25-11.61-3.76-3.28-1.31-6.43-2.87-9.48-4.63-4.14-2.39-8.08-5.13-11.71-8.23-3.58-3.05-6.85-6.41-9.83-10.08-1.48-1.82-2.55-3.98-4.38-5.52-.72-2.06-2.38-3.58-3.27-5.57-.57-1.28-1.34-2.48-1.95-3.76-1.18-2.48-2.36-4.96-3.32-7.54-.9-2.41-1.56-4.89-2.33-7.33-.7-2.25-1.04-4.56-1.49-6.85s-.72-4.6-.8-6.94l.12.02.08-.1c1.28,11.23,4.97,21.65,10.74,31.33,4.29,7.19,9.74,13.43,16.06,18.94,6.15,5.35,13.02,9.54,20.48,12.77,5.6,2.42,11.41,4.14,17.43,5.13.47.29.98.36,1.52.27.29.03.57.06.85.1.55.35,1.15.32,1.77.25.15.01.3.03.45.04.81.33,1.66.37,2.52.27.48.02.95.05,1.43.07,1.66.4,3.34.3,5.02.29,1.29-.01,2.61.19,3.87-.26,1.79.04,3.56-.18,5.32-.4.66.09,1.3.12,1.89-.29.28-.02.56-.04.84-.06.52.1,1,0,1.45-.28,2.96-.52,5.86-1.25,8.77-2.1,2.66-.77,5.22-1.73,7.78-2.75,3.22-1.28,6.27-2.85,9.24-4.59.81-.48,1.76-.7,2.48-1.34v.02Z"/><path class="cls-24" d="m1671.02,452.02c-.88-.05-1.35.58-1.91,1.09-.67.61-1.2,1.37-2.17,1.67-1.06.33-1.93.2-2.72-.53-.6-.55-1.17-1.14-1.75-1.72-8.83-8.83-17.65-17.67-26.51-26.47-.95-.94-1.52-2.11-2.38-3.09-.41-.46-.27-1.01.02-1.52.31-.55.78-.51,1.28-.37,1.15.33,2.37.19,3.54.51.66.18,1.2-.05,1.13-.91.89.26,1.34,1.05,1.93,1.66,5.13,5.34,10.5,10.44,15.72,15.69.11.11.27.16.41.24-.01.54.51.65.79.94,4.05,4.08,8.12,8.13,12.18,12.19.18.18.43.34.46.64h0Z"/><path class="cls-11" d="m1491.08,368.54l-.08.1-.12-.02c-.14-1.42-.45-2.83-.23-4.26.38,1.37.4,2.78.44,4.18h0Z"/><path class="cls-11" d="m1509.5,307.96c.02.22-.09.32-.3.32,0-.19.1-.31.3-.32Z"/><path class="cls-22" d="m1781.95,339.11c5.43.28,10.18,2.14,14.04,6.06,1.5,1.53,2.41,3.43,3.31,5.31.31.66.75,1.28.96,1.98.28.94.52,1.88.28,3.04h-3.38c-1.86,0-3.71-.02-5.56,0-.58,0-.88-.19-1.06-.75-1.47-4.65-4.94-6.66-9.53-7.2-1-.4-1.99-.41-2.99,0-3.8.42-6.68,2.32-8.96,5.35-1.14,1.5-1.66,3.2-2.16,4.95-.91,3.17-.91,6.42-.78,9.68.09,2.12.43,4.2,1.24,6.16,2.1,5.05,6.1,7.45,11.38,7.96,2.09.2,4.12-.23,6.07-.96,3.41-1.29,6.8-5.55,6.94-9.38-1.29-.19-2.59-.07-3.89-.08-2.12-.02-4.25-.02-6.38,0-.63,0-.87-.21-.85-.85.05-2.45.06-4.9.08-7.35,6.74,0,13.47,0,20.21-.01.03.38.1.75.1,1.13v23.76c0,.32-.05.65-.07.97-2.25-.01-4.5-.03-6.74-.05-.55-1.75-.71-3.56-.88-5.38.05-.18,0-.33-.18-.35-.18-.02-.29.1-.33.27-.85.72-1.63,1.48-2.34,2.36-1.27,1.57-3.1,2.43-4.94,3.16-1.23.48-2.48,1.01-3.84,1-.59-.06-1.17-.14-1.7.25-2.9.2-5.78.08-8.58-.8-7.52-2.34-12.17-7.52-14.62-14.88-.66-2.01-1.06-4.04-1.07-6.15-.01-.16-.02-.31-.03-.46-.35-3.1-.09-6.16.41-9.22.75-4.59,2.61-8.66,5.67-12.16,3.47-3.98,7.8-6.41,13.09-7.04.74-.09,1.45-.41,2.22-.31h4.87,0Z"/><path class="cls-22" d="m1749.93,369.27c-.53,4.44-1.93,8.57-4.5,12.25-3.34,4.78-7.99,7.19-13.78,7.46-.53-.18-1.08-.08-1.62-.09-7-.02-14.01-.03-21.01-.05-.02-.55-.05-1.09-.05-1.63v-45.29c0-2.06-.27-1.82,1.82-1.82,6.21,0,12.42,0,18.64,0,1.04,0,2.07.07,3.1.11.29.29.64.26,1,.16,2.72.41,5.43.91,7.75,2.53,3.84,2.67,6.36,6.25,7.65,10.79,1.08,3.8,1.55,7.63,1.35,11.55,0,.15-.01.3-.01.45-.08,1.07,0,2.16-.29,3.21-.12.11-.14.24-.05.38h0Zm-10.3-10.53c-.37-1.69-.72-3.37-1.39-4.99-1.06-2.55-2.97-4.07-5.58-4.77-.78-.21-1.6-.29-2.4-.42-.19-.08-.39-.24-.58-.24-3.34-.02-6.7-.02-10.04-.03-.33,0-.66.03-.74.44,0,.27.01.55.01.82v29.6c0,1.65-.08,1.54,1.47,1.54,2.56,0,5.13-.02,7.69,0,4.85.05,8.14-2.23,10.08-6.63.82-1.86,1.22-3.83,1.59-5.81.08-.09.1-.19.03-.29.27-2.75.21-5.5,0-8.25.08-.34.09-.67-.13-.97h-.01Z"/><path class="cls-22" d="m1663.92,388.83c-.01-2.61-.03-5.23-.03-7.84v-38.58c0-.66.03-1.3.04-1.96.06-.1.13-.19.19-.29.55-.02,1.09-.06,1.63-.06h28.75c.38,0,.76.01,1.15,0,.49-.02.67.23.66.7-.05,2.61.12,5.22-.09,7.83-6.87,0-13.73,0-20.61.01-.55,0-1.22-.29-1.65.35v10.06c.2.46.62.37.98.37,6.11,0,12.22-.03,18.33-.04.66.25.5.84.58,1.33-.03.03-.1.08-.09.1.02.08.08.16.11.24.05,2.15.29,4.3.14,6.46-.59.03-1.19.09-1.78.09-5.54,0-11.08,0-16.62.02-.55,0-1.21-.29-1.65.35v12.03c.42.66,1.09.35,1.63.36,7.28.03,14.57.02,21.86.02.2,2.68.05,5.35.08,8.03,0,.23-.09.41-.31.5-10.39,0-20.78-.01-31.18-.02-.7,0-1.41-.04-2.12-.06h-.01Z"/><path class="cls-22" d="m1841.91,359.39c.33,2.71.19,5.43.11,8.14-.65.03-1.3.08-1.95.09-5.82,0-11.64,0-17.46.02-.46,0-1.02-.29-1.37.29-.26,2.87-.08,5.74-.1,8.61-.01,1.19-.16,2.38.12,3.56.38.45.91.28,1.38.28h20.22c.21,2.84.15,5.67.03,8.51-4.14,0-8.28.01-12.42,0-6.43,0-12.86-.02-19.29-.03-.02-.55-.06-1.09-.06-1.63v-45.29c0-2.08-.26-1.82,1.82-1.83,9.65,0,19.3,0,28.94,0h1.66v8.51c-6.97,0-13.94,0-20.92.03-.46,0-1.02-.28-1.37.29-.18,3.41-.23,6.81.02,10.21.23.31.57.28.89.28,6.59-.01,13.17-.03,19.76-.04h0Z"/><path class="cls-22" d="m1771.08,335.76c-.03-.38-.08-.76-.08-1.13v-26.22c0-.33.03-.65.05-.98.66-.02,1.3-.06,1.96-.06,4.09-.02,8.18-.03,12.26-.05,1.35,0,2.66.07,3.96.63.92.4,1.81.79,2.44,1.52,1.26,1.47,2.31,3.09,2.42,5.12.18,3.34-.79,6.09-3.97,7.67.03.1.03.19.05.2,2.5,1.32,3.11,3.6,3.18,6.17.03,1.3.06,2.61.03,3.92-.02,1.04.27,1.93,1,2.66-.07.7-.59.63-1.07.62-1.81,0-3.62-.02-5.43-.03-.53-1.22-.63-2.5-.66-3.8-.03-1.13-.01-2.27-.01-3.41.09-.34.1-.68-.14-.98-.4-1.64-1.38-2.6-3.13-2.67-2.26-.44-4.53-.34-6.79-.04-.04,0-.07.08-.1.12-.03,2.87-.05,5.75-.08,8.62,0,.7-.04,1.41-.06,2.11-1.95.1-3.9.14-5.85-.02h0Zm13.2-15.84c2.88-.4,3.65-1.73,3.72-3.4.1-2.12-.92-3.62-3.05-4.31-.2-.2-.46-.26-.74-.26h-6.44c-.28,0-.53.06-.69.32-.14,2.51-.13,5.03,0,7.54.46.56,1.1.32,1.65.3,1.85-.07,3.72.27,5.56-.19h0Z"/><path class="cls-22" d="m1836.97,306.68c3.78.74,6.79,2.48,8.01,6.41.25.77.38,1.58.36,2.4-1.9.12-3.8.09-5.69.02-.44-2.6-2.2-3.66-4.62-3.95-.78-.4-1.56-.39-2.34,0-.87.08-1.71.31-2.47.75-1.09.62-1.63,1.56-1.57,2.82.06,1.26.85,1.95,1.94,2.36,2.03.75,4.18,1.14,6.27,1.69,1.46.38,2.91.79,4.35,1.25,3.54,1.14,5.54,4.18,5.02,8.22-.12.11-.14.23-.05.37-.35,2.76-1.93,4.68-4.23,6.05-1.51.9-3.17,1.41-4.94,1.47h-4.64c-2.46-.12-4.71-.87-6.63-2.41-1.9-1.51-3.04-3.47-3.15-5.97-.03-.67.27-.83.86-.82,1.36.03,2.72.01,4.08,0,.46,0,.81.03.94.63.52,2.63,2.53,3.34,4.82,3.58,1.41.14,2.83.09,4.21-.27,1.74-.44,2.95-1.36,3.07-3.3.1-.25.08-.48-.14-.68-.49-1.19-1.56-1.59-2.66-1.96-2.16-.72-4.42-1.11-6.63-1.63-1.51-.35-2.99-.74-4.37-1.5-2.06-1.13-3.22-2.81-3.59-5.12-.94-5.77,2.89-9.61,7.61-10.42,1.73-.29,3.45-.37,5.19-.2.28.3.62.28.98.2h.01Z"/><path class="cls-22" d="m1684.01,318.83c0,1.51-.02,3.01-.03,4.52-.59.02-1.19.05-1.78.05-3.56,0-7.13,0-10.69.01-.5,0-1.1-.25-1.47.36v6.77c.42.68,1.09.36,1.63.37,4.74.04,9.48.04,14.21.05.16,1.6.12,3.2.02,4.8-7.24.13-14.49.08-21.74.02-.02-2.94-.05-5.88-.05-8.82,0-5.94,0-11.87,0-17.81,0-.59.05-1.19.07-1.79,6.95-.01,13.91-.02,20.85-.03.44,1.43.12,2.89.19,4.35.02.4-.22.58-.61.58h-13.22c-1.39,0-1.39.01-1.4,1.44,0,1.25.04,2.51-.01,3.75-.03.79.24,1.02,1.02,1.02,3.7-.03,7.4-.01,11.1-.01.55,0,1.09.03,1.63.04.09.1.17.2.26.3v.02Z"/><path class="cls-22" d="m1765.88,330.95c.17,1.62.12,3.25.03,4.87-7.21,0-14.42,0-21.63.01-.03-.38-.09-.76-.09-1.13v-26.27c0-.38.06-.76.09-1.13.66.02,1.3.07,1.96.07,6.32,0,12.65.01,18.97.02.03,1.3.01,2.61.09,3.91.05.81-.27,1.02-1.03,1.01-3.86-.03-7.73-.01-11.6-.01h-1.15c-1.41.01-1.41.01-1.43,1.42,0,1.19-.01,2.4,0,3.59.01,1.15.03,1.17,1.15,1.17,3.65.01,7.3,0,10.94,0,.33,0,.66.03.98,0,.62-.05.88.18.86.83-.05,1.36-.05,2.72-.08,4.08-4.02,0-8.03,0-12.06.03-.57,0-1.21-.23-1.69.29-.19,2.31-.18,4.61,0,6.93.48.53,1.13.28,1.69.29,4.66.03,9.32.01,13.98.02h0Z"/><path class="cls-22" d="m1730.95,307.27c1.6.03,3.13.39,4.51,1.18,2.1,1.2,3.28,2.97,3.69,5.42.33,1.9.27,3.74-.09,5.58-.4,2.08-1.43,3.82-3.41,4.84-1.37.7-2.81,1.13-4.36,1.15-2.3-.01-4.6-.03-6.9-.05-.27,0-.53.06-.7.31-.2,2.55-.03,5.1-.09,7.65-.02.81-.05,1.62-.07,2.44-1.99.13-3.99.1-5.99.02-.02-5.39-.05-10.78-.05-16.16,0-4.08.04-8.16.06-12.24,2.12,0,4.25,0,6.37-.03,2.33-.03,4.68.13,7.01-.1h0Zm-1,4.94c-2.04-.44-4.09-.35-6.14-.05-.04,0-.07.08-.11.12-.15,2.74-.14,5.47,0,8.21,2.07.57,4.15.41,6.23.07,2.52-.55,3.5-1.8,3.45-4.35-.04-2.42-.94-3.46-3.43-4Z"/><path class="cls-22" d="m1706.38,335.82c-1.76-3.11-3.52-6.23-5.37-9.49-1.97,3.27-3.86,6.41-5.74,9.54-1.72,0-3.45,0-5.17-.03-.51,0-1.1.18-1.48-.37,2.62-4.18,5.19-8.4,7.89-12.53.78-1.19.72-2.07-.02-3.23-2.55-3.97-5-8.01-7.49-12.02.42-.52,1-.29,1.51-.31,1.78-.03,3.56-.02,5.35-.03,1.55,2.36,2.74,4.93,4.15,7.37.3.51.57,1.04.87,1.58.57-.18.64-.71.87-1.1,1.56-2.61,2.85-5.37,4.57-7.88,1.69.02,3.37.02,5.06.07.52.01,1.11-.21,1.52.31-2.58,4.09-5.13,8.2-7.75,12.26-.55.85-.56,1.47-.01,2.32,2.55,3.98,5.04,7.99,7.54,12.01.31.5.73.95.85,1.56-2.38,0-4.77,0-7.15,0v-.03Z"/><path class="cls-22" d="m1820.26,307.36c.26,1.53.16,3.06.05,4.59-2.34,0-4.68-.01-7.01.01-.5,0-1.11-.26-1.47.37,0,7.23-.01,14.47-.03,21.69,0,.59-.04,1.19-.06,1.79-1.97,0-3.93.01-5.9.02-.03-.27-.09-.53-.09-.81,0-7.54,0-15.08.01-22.62-.26-.75-.9-.44-1.38-.44-2.42-.05-4.85-.05-7.27-.07,0-1.4-.02-2.81-.03-4.21.56-.47,1.24-.32,1.88-.32,7.1,0,14.2,0,21.3-.01h0Z"/><path class="cls-10" d="m1845.41,294.56c.21.51.22,1.01-.03,1.5-.7-.03-1.41-.09-2.12-.09h-178.15c-.49,0-.98.03-1.47.05-.23-.47-.18-.96-.05-1.43.16,0,.33.02.49.02h179.69c.55,0,1.09-.03,1.63-.04h0Z"/><path class="cls-10" d="m1846.08,398.67c.58.42.35.95.2,1.47-.32-.01-.65-.05-.98-.05h-179.12c-.54,0-1.09.05-1.62.09-.25-.5-.24-1-.03-1.5.6.01,1.19.04,1.8.04h177.8c.66,0,1.3-.03,1.96-.05h0Z"/><path class="cls-24" d="m1664.55,400.17c.54-.03,1.09-.09,1.62-.09h179.12c.33,0,.65.03.98.05-.48.38-1.05.18-1.57.18-59.52,0-119.04,0-178.56,0-.53,0-1.09.16-1.6-.14h0Z"/><path class="cls-11" d="m1845.41,294.56c-.55.01-1.09.04-1.63.04h-179.69c-.16,0-.33-.01-.49-.02.13-.22.34-.24.56-.24h1.31c59.35,0,118.7,0,178.05.01.63,0,1.3-.21,1.9.2Z"/><path class="cls-24" d="m1663.66,296.02c.49-.01.98-.05,1.47-.05h178.15c.7,0,1.41.05,2.12.09-.51.3-1.06.14-1.6.14-59.52,0-119.04,0-178.56,0-.52,0-1.09.2-1.57-.18h0Z"/><path class="cls-11" d="m1846.08,398.67c-.66.02-1.3.05-1.96.05h-177.8c-.6,0-1.19-.03-1.8-.04.48-.4,1.05-.2,1.57-.2,59.47-.01,118.94-.01,178.41,0,.53,0,1.09-.18,1.58.2h0Z"/><path class="cls-10" d="m1809.54,421.96c0-1.73.03-3.45-.01-5.18-.02-.76.2-1.06,1.01-1.05.73.01.92.3.91.98-.03,2.56,0,5.11-.02,7.67,0,.39.25,1.01-.32,1.11-.65.12-1.42.37-1.95-.35-.4-.55-.92-1.07-1.16-1.69-.47-1.21-1.45-2.13-1.81-3.39-.05-.16-.29-.27-.7-.63-.03,1.25-.05,2.23-.07,3.22,0,.66-.03,1.3,0,1.96.03.67-.17.99-.91.98-.66-.01-.98-.15-.97-.89.03-2.61,0-5.22.03-7.84,0-.38-.23-1,.41-1.05.65-.05,1.44-.38,1.92.44.49.85.98,1.7,1.46,2.55.62,1.08,1.24,2.16,1.86,3.24.11-.02.21-.04.32-.06h0Zm-4.02-2.97s-.06-.08-.1-.12c-.04.08-.1.16-.12.25,0,.03.05.08.08.12.04-.08.08-.16.12-.25h0Z"/><path class="cls-10" d="m1742.39,415.8c1.09-.01,2.18-.04,3.26-.04,3.16,0,4.66,1.37,4.76,4.48.07,2.1-.47,3.93-2.57,4.98-.73.36-1.45.37-2.21.35-1.09-.03-2.48.46-3.17-.18-.78-.72-.26-2.16-.28-3.28-.03-2.01,0-4.03.01-6.05.16-.01.18-.13.2-.26Zm1.73,7.71c.85.59,1.53.61,2.84.11,1.6-.97,1.41-2.53,1.32-4.04-.05-.94-.44-1.67-1.43-1.94-.91-.33-1.82-.53-2.7.11l-.03,5.75h0Z"/><path class="cls-10" d="m1839.31,415.8c1.09-.01,2.18-.04,3.26-.04,3.16,0,4.66,1.37,4.75,4.48.06,2.08-.46,3.94-2.57,4.98-.73.35-1.46.37-2.21.35-1.09-.03-2.48.46-3.17-.18-.78-.72-.25-2.16-.28-3.28-.03-2.01,0-4.03.01-6.05.16-.01.18-.13.2-.26h0Zm4.57,7.82c1.6-.97,1.41-2.53,1.32-4.04-.05-.94-.44-1.67-1.43-1.94-.91-.33-1.82-.53-2.7.11-.01,1.92-.02,3.84-.03,5.75.85.59,1.53.61,2.84.11h0Z"/><path class="cls-10" d="m1774.85,425.57c-1.67-.28-2.46-1.48-2.94-2.91-.46-1.37-.42-2.81,0-4.18.65-2.1,2.74-3.34,4.79-2.89,3.45.76,4.42,2.16,4.2,6.06-.15.08-.2.18-.1.34-.18,1.82-1.52,2.7-2.89,3.56-1.02.01-2.04.03-3.07.04h0Zm2.12-8.25c-.49-.38-.98-.38-1.46.01-1.13.38-1.64,1.23-1.82,2.34-.04.03-.11.05-.11.08,0,.09.02.17.03.26-.14.77.02,1.52.25,2.24.35,1.08,1.22,1.66,2.33,1.69,1.21.03,2.06-.55,2.48-1.7.3-.83.35-1.69.21-2.57.02-.04.08-.1.06-.12-.04-.08-.1-.14-.16-.2-.24-1-.79-1.73-1.82-2.03h0Z"/><path class="cls-10" d="m1677.57,415.8c.16-.01.33-.04.49-.04,1.22.02,1.21.02,1.26,1.26.03.81-.15,1.64.14,2.43,1.23.33,2.45.53,3.65-.11.01-.92.06-1.85.03-2.77-.02-.67.29-.85.88-.83.55.01,1.13-.08,1.13.76v8.48c0,.68-.5.6-.92.58-.44-.02-1.06.19-1.07-.6-.01-.92-.02-1.85,0-2.77,0-.57-.14-.85-.81-.89-3.01-.2-3.01-.23-3.03,2.75,0,.22-.02.44,0,.65.08.76-.35.88-.98.88s-1.01-.12-1-.89c.04-2.88.03-5.76.03-8.64.16-.01.18-.13.2-.26h-.01Z"/><path class="cls-10" d="m1691.72,417.72c-.12.62-.1,1.25-.01,1.87.35.5.87.29,1.33.31,1.12.06,2.25-.1,3.37.12-.03,1.27-.03,1.28-1.13,1.3-.81.01-1.61,0-2.42,0-1.19.02-1.19.03-1.22,1.26,0,.32.01.64.02.96.18.59.69.39,1.07.4,1.44.03,2.87.02,4.31.02.1.48.13.96-.07,1.6h-6.62c-.46,0-.69-.18-.69-.68,0-2.83,0-5.66,0-8.49,0-.5.27-.65.72-.65h5.71c.45,0,.74.15.7.66-.02.32-.05.65-.07.97-1.34,0-2.69,0-4.03.01-.35,0-.77-.12-1,.31v.02Z"/><path class="cls-10" d="m1787.63,425.58c-1.87-.52-2.34-1.1-2.48-2.95-.16-2.18-.11-4.35-.05-6.53.68-.19,1.36-.16,2.04-.02.01,2.01-.01,4.02.04,6.03.03,1.41.72,1.95,2.09,1.82,1.05-.1,1.53-.61,1.56-1.88.05-1.73,0-3.47.02-5.22,0-.91.98-1.48,1.74-1.03.27.16.28.44.28.72-.01,2.06-.02,4.12-.05,6.19-.02,1.61-1.22,2.24-2.42,2.86-.92,0-1.85,0-2.78,0h0Z"/><path class="cls-10" d="m1834.89,423.97c.1.48.13.96-.07,1.6h-6.62c-.46,0-.69-.18-.69-.68,0-2.83,0-5.66,0-8.49,0-.5.27-.65.72-.65h5.71c.45,0,.74.15.7.66-.02.32-.05.65-.07.97-1.34,0-2.69,0-4.03.01-.35,0-.77-.12-1,.31-.12.62-.1,1.25-.01,1.87.35.5.87.29,1.33.31,1.12.06,2.25-.1,3.37.12-.03,1.27-.03,1.28-1.13,1.3-.81.01-1.61,0-2.42,0-1.19.02-1.19.03-1.22,1.26,0,.32.01.64.02.96.18.59.69.39,1.07.4,1.44.03,2.87.02,4.31.02v.02Z"/><path class="cls-10" d="m1720.34,421.59c.02.69.04,1.37.06,2.06.25.42.66.3,1.02.3,1.4,0,2.81,0,4.21,0,.03.32.07.64.09.97.03.46-.16.68-.66.67-2.01-.02-4.02-.01-6.03,0-.49,0-.66-.23-.66-.7,0-2.77.01-5.54,0-8.31,0-.66.29-.83.89-.82,1.69.02,3.37,0,5.05.01,1.15.01,1.15.03,1.13,1.19,0,.16-.09.31-.13.46-1.6.08-3.24-.27-4.83.2-.04.21-.12.42-.13.63q-.04,1.42,1.38,1.43c.82,0,1.64.03,2.45,0,.63-.03.87.2.88.83.01.68-.29.81-.88.81-1.25,0-2.5.05-3.75.08-.11-.04-.17,0-.17.11,0,.03.05.05.09.08h0Z"/><path class="cls-10" d="m1817.91,421.59c.02.69.04,1.37.06,2.06.25.42.66.3,1.02.3,1.4,0,2.81,0,4.21,0,.03.32.07.64.09.97.03.46-.16.68-.66.68-2.01-.02-4.02-.01-6.03,0-.49,0-.66-.23-.66-.7,0-2.77.01-5.54,0-8.31,0-.66.29-.83.89-.82,1.69.02,3.37,0,5.05.01,1.15.01,1.15.03,1.13,1.19,0,.16-.09.31-.13.46-1.6.08-3.24-.27-4.83.2-.04.21-.12.42-.13.63q-.04,1.42,1.38,1.43c.82,0,1.64.03,2.45,0,.63-.03.87.2.88.83.01.68-.29.81-.88.81-1.25,0-2.5.05-3.75.08-.11-.04-.17,0-.17.11,0,.03.05.05.09.08v-.02Z"/><path class="cls-10" d="m1738.01,425.57c-.48,0-.81-.01-1.13,0-.63.03-1.05-.18-1.11-.88-.07-.88-.57-1.2-1.43-1.1-.43.05-.87.04-1.3,0-.83-.07-1.4.05-1.69,1.05-.29,1.01-.46.98-2.08.78-.11-.27-.05-.53.04-.78.96-2.65,1.97-5.28,2.86-7.95.29-.88.81-.96,1.58-.98.79-.03,1.16.26,1.4.99.96,2.91,2.15,5.75,2.84,8.85v.02Zm-3.23-3.97c-.4-1.04-.48-2.18-1.18-3.32-.43,1.19-.87,2.23-1.07,3.36.76.53,1.51.62,2.25-.05h0Z"/><path class="cls-10" d="m1768.15,415.85c-.71,1.36-1.28,2.59-1.98,3.75-.9,1.48-1.42,3-1.26,4.77.1,1.19-.12,1.28-1.28,1.22-.46-.03-.77-.17-.68-.66.54-2.91-1.17-5.08-2.41-7.4-.28-.52-.67-.99-.76-1.58.3-.31.65-.13.94-.2.94-.22,1.36.34,1.7,1.07.45.97.93,1.93,1.55,3.19.5-1.05.87-1.81,1.22-2.57.54-1.17,1.53-1.7,2.97-1.6h0Z"/><path class="cls-10" d="m1665.83,417.4c-.03-.27-.05-.54-.08-.81-.06-.63.22-.85.85-.84,1.84.03,3.68,0,5.52.01,1.52,0,1.52,0,1.41,1.65-.91.15-1.91-.36-2.77.31-.03,2.29-.08,4.57-.06,6.85,0,.79-.24,1.02-1.02,1.02s-1.02-.27-1.01-1.04c.02-2.29-.04-4.57-.07-6.85-.86-.66-1.85-.16-2.77-.31h0Z"/><path class="cls-10" d="m1714.17,423.93c.05.27.1.53.13.79.06.6-.15.87-.82.86-1.69-.04-3.37-.03-5.06,0-.58,0-.91-.12-.9-.8.02-2.72.03-5.44,0-8.16,0-.77.39-.86,1.02-.87.69-.01.98.21.97.93-.03,1.74-.02,3.48,0,5.22,0,.59.06,1.19.09,1.79.27.37.68.27,1.04.27,1.18,0,2.36-.01,3.54-.02h0Z"/><path class="cls-24" d="m1663.92,388.83c.7.02,1.41.06,2.12.06,10.39,0,20.78.01,31.18.02-.29.48-.78.3-1.19.3-10.36,0-20.7.01-31.06,0-.36,0-.89.25-1.05-.38h0Z"/><path class="cls-24" d="m1811.16,388.86c6.43.01,12.86.03,19.29.03,4.14,0,8.28,0,12.42,0-.4.66-1.04.31-1.55.32-8.98.03-17.95.02-26.93.02h-2.61c-.27,0-.55,0-.62-.36h0Z"/><path class="cls-22" d="m1845.2,384.73v-3.75c0-.28.05-.55.41-.58.48-.04.51.29.51.63v7.34c0,.32,0,.7-.44.74-.6.05-.53-.42-.53-.79-.01-1.19,0-2.39,0-3.59h.05,0Z"/><path class="cls-22" d="m1843.68,388.82c-.1-2.8-.14-5.6.02-8.4.25-.01.51-.03.76-.04.15,2.82.16,5.64-.03,8.45-.25,0-.5-.01-.75-.01h0Z"/><path class="cls-22" d="m1699.52,381.38c.2,2.48.25,4.96.17,7.45-.31.01-.61.03-.93.05-.16-2.81-.16-5.62-.01-8.43.22-.01.44-.03.65-.05.03.21.06.42.09.63.01.12.02.24.03.35h0Z"/><path class="cls-22" d="m1842.72,367.54c-.11-2.68-.14-5.37.02-8.06.2,0,.42,0,.62-.01.25,2.7.22,5.41.13,8.11-.26-.01-.52-.03-.78-.05h0Z"/><path class="cls-24" d="m1697.45,380.38c-7.28,0-14.57,0-21.86-.02-.55,0-1.22.3-1.63-.36,5.11.02,10.21.04,15.32.05,2.28,0,4.57-.01,6.85.01.44,0,.99-.23,1.32.31h0Z"/><path class="cls-24" d="m1820.26,307.36c-7.1,0-14.2,0-21.3.01-.63,0-1.31-.15-1.88.32-.05-.31.04-.55.36-.6s.65-.04.98-.04c6.89,0,13.78,0,20.68,0,.4,0,.89-.21,1.16.3Z"/><path class="cls-24" d="m1709.03,388.85c7,.01,14.01.03,21.01.05.54,0,1.09-.09,1.62.09-.33.26-.72.23-1.09.23-6.86,0-13.73,0-20.59,0-.34,0-.79.18-.95-.36h0Z"/><path class="cls-24" d="m1821.23,348.94c.35-.58.91-.29,1.37-.29,6.97-.03,13.94-.03,20.92-.03-.31.58-.86.33-1.3.33-7,.01-13.99,0-20.99,0h0Z"/><path class="cls-24" d="m1673.96,348.99c.44-.63,1.1-.35,1.65-.35,6.87-.02,13.73-.01,20.61-.01-.45.62-1.11.31-1.65.31-6.21.03-12.43.01-18.64.02-.66,0-1.31.03-1.96.03h0Z"/><path class="cls-24" d="m1744.28,335.84c7.21,0,14.42,0,21.63-.01-.12.44-.5.35-.8.35h-20.25c-.23,0-.57.1-.57-.33h0Z"/><path class="cls-24" d="m1664.18,335.81c7.24.06,14.49.1,21.74-.02-.14.55-.59.39-.93.39-6.62,0-13.24,0-19.86,0-.33,0-.79.17-.94-.36h0Z"/><path class="cls-24" d="m1842.85,380.36c-6.74,0-13.48.01-20.22,0-.46,0-.99.17-1.38-.28,6.86-.01,13.72-.03,20.58-.03.35,0,.78-.15,1.01.3h0Z"/><path class="cls-22" d="m1845.06,340.44c.15,2.72-.11,5.41-.3,8.12-.16-.1-.33-.2-.49-.29-.01-2.49-.01-4.99-.04-7.48,0-.46.05-.74.6-.63.08.1.16.2.24.29h0Z"/><path class="cls-24" d="m1821.23,367.92c.35-.58.91-.29,1.37-.29,5.82-.02,11.64-.01,17.46-.02.65,0,1.3-.05,1.95-.09-.27.79-.92.4-1.38.4-4.83.03-9.67.02-14.51.02-1.63,0-3.26,0-4.89-.01h-.01Z"/><path class="cls-24" d="m1765.21,307.38c-6.32,0-12.65,0-18.97-.02-.66,0-1.3-.04-1.96-.07.34-.4.81-.24,1.22-.25,6.13,0,12.27-.01,18.4,0,.44,0,.99-.24,1.31.32h0Z"/><path class="cls-24" d="m1685.05,307.36c-6.95.01-13.91.02-20.85.03.15-.41.51-.33.82-.33h19.2c.31,0,.67-.09.84.3Z"/><path class="cls-24" d="m1841.91,359.39c-6.59.01-13.17.03-19.76.04-.32,0-.66.03-.89-.28,6.59-.01,13.18-.02,19.78-.03.31,0,.66-.08.87.27h0Z"/><path class="cls-24" d="m1800.93,363.02c-6.74,0-13.47,0-20.21.01.19-.51.63-.32.97-.32,6.08-.01,12.16-.01,18.23,0,.35,0,.78-.16,1,.31h0Z"/><path class="cls-24" d="m1673.96,367.97c.43-.63,1.09-.35,1.65-.35,5.54-.02,11.08-.01,16.62-.02.59,0,1.19-.05,1.78-.09-.25.8-.91.4-1.37.4-5.15.03-10.29.02-15.43.02-1.09,0-2.16.03-3.25.03h0Z"/><path class="cls-22" d="m1697.15,367.61c-.1-2.54-.19-5.08-.28-7.62-.02-.55.29-.62.73-.52h-.03c.27,2.68.16,5.37.05,8.06-.16.03-.32.05-.48.08h0Z"/><path class="cls-22" d="m1695.22,367.28c-.11-2.4-.23-4.79-.33-7.18-.01-.24-.17-.57.25-.65s.57.23.68.55c.05.15.05.32.05.48.04,2.18.1,4.36.12,6.54,0,.69-.03.69-.72.53.05-.1.03-.18-.03-.27Z"/><path class="cls-24" d="m1693.27,359.38c-6.11.01-12.22.03-18.33.04-.36,0-.79.1-.98-.37,5.87.02,11.74.03,17.62.07.57,0,1.2-.25,1.69.26Z"/><path class="cls-24" d="m1699.73,340.22c.12,2.84.12,5.68,0,8.52-.7-1.09-.69-7.47,0-8.52Z"/><path class="cls-22" d="m1844.56,367.73c-.23.03-.31-.16-.31-.29-.05-2.56-.09-5.13-.12-7.69,0-.2.03-.44.33-.46s.37.22.37.43c-.04,2.66.19,5.33-.13,7.99,0,.01-.09.01-.14.02h0Z"/><path class="cls-22" d="m1698.1,340.43c0,2.61,0,5.23,0,7.85-.2.11-.4.22-.6.33-.2-2.63-.05-5.26-.08-7.9,0-.27.03-.54.4-.56.09.1.18.18.27.28Z"/><path class="cls-24" d="m1685.88,330.98c-4.74-.01-9.48-.01-14.21-.05-.55,0-1.22.31-1.63-.37,4.74.02,9.48.03,14.21.08.54,0,1.21-.32,1.63.34Z"/><path class="cls-24" d="m1765.88,330.95c-4.66,0-9.32,0-13.98-.02-.57,0-1.2.24-1.69-.29,4.84,0,9.67-.02,14.51-.01.4,0,.89-.21,1.15.31h0Z"/><path class="cls-24" d="m1785.27,307.32c-4.09.01-8.18.03-12.26.05-.66,0-1.3.04-1.96.06-.05-.44.29-.38.53-.38h13.15c.23,0,.42.07.55.27h0Z"/><path class="cls-24" d="m1701.03,380.27v8.56c-.04-2.83-.61-5.65-.38-8.49,0-.03.19-.03.38-.07h0Z"/><path class="cls-24" d="m1670.05,323.79c.36-.61.97-.36,1.47-.36,3.56-.02,7.13,0,10.69-.01.59,0,1.19-.03,1.78-.05-.32.7-.94.37-1.42.37-3.58.03-7.15.01-10.72.02-.59,0-1.19.03-1.79.05h0Z"/><path class="cls-24" d="m1750.22,323.72c.48-.53,1.13-.29,1.69-.29,4.02-.03,8.03-.02,12.06-.03-.25.55-.74.33-1.13.33-4.21.01-8.42,0-12.62,0h0Z"/><path class="cls-24" d="m1730.95,307.27c-2.33.23-4.68.06-7.01.1-2.12.03-4.25.02-6.37.03.1-.32.38-.34.65-.34,4.05,0,8.09,0,12.14.01.2,0,.4.13.59.2h0Z"/><path class="cls-24" d="m1846.18,340.31v7.81c0,.31.03.73-.44.69-.33-.03-.31-.39-.31-.65.02-.98,0-1.97.1-2.94.16-1.66.2-3.33.2-5,.15.03.31.06.46.09h0Z"/><path class="cls-24" d="m1647.65,366.05c-.41-.75.12-1.45.1-2.2-.05-1.72,0-3.45.02-5.17,0-.53-.14-1.08.2-1.57.08,2.98.39,5.97-.31,8.93h0Z"/><path class="cls-24" d="m1797.11,311.9c2.42.02,4.85.02,7.27.07.48,0,1.12-.31,1.38.44-2.41-.29-4.83-.04-7.24-.15-.48-.02-1.09.32-1.41-.37h0Z"/><path class="cls-24" d="m1811.82,312.34c.35-.63.97-.36,1.47-.37,2.33-.03,4.68-.01,7.01-.01-.39.59-.98.31-1.48.31-2.33.05-4.67.05-7,.07h0Z"/><path class="cls-24" d="m1723.7,325.69c.16-.25.42-.31.7-.31,2.3.01,4.6.03,6.9.05-.53.37-1.15.27-1.73.27-1.95.01-3.9,0-5.86,0h0Z"/><path class="cls-24" d="m1787.9,335.82c1.81,0,3.62.02,5.43.03.48,0,1,.08,1.07-.62.51.69.18.94-.53.95-1.56.01-3.13.03-4.7,0-.44,0-.99.24-1.29-.35h0Z"/><path class="cls-24" d="m1695.86,307.36c-1.78,0-3.56,0-5.35.03-.51,0-1.09-.21-1.51.31-.46-.57-.01-.62.39-.63,1.5-.01,3-.04,4.51,0,.66.02,1.39-.29,1.97.29h0Z"/><path class="cls-24" d="m1712.9,307.69c-.42-.53-1-.3-1.52-.31-1.69-.04-3.37-.05-5.06-.07.14-.19.33-.26.55-.26,1.88,0,3.77,0,5.66,0,.41,0,.84.08.37.63h0Z"/><path class="cls-24" d="m1688.61,335.47c.39.55.97.36,1.48.37,1.72.03,3.45.02,5.17.03-.12.09-.25.26-.37.26-2,.03-4.01.04-6.01.03-.53,0-.71-.25-.27-.69h0Z"/><path class="cls-24" d="m1706.38,335.82c2.38,0,4.77,0,7.15,0-.05.25-.23.34-.46.34-2.07,0-4.13,0-6.2,0-.23,0-.41-.11-.49-.34h0Z"/><path class="cls-24" d="m1794.21,388.82c2.25.01,4.5.03,6.74.05-.07.24-.25.33-.48.33-1.88,0-3.77,0-5.65,0-.28,0-.53-.08-.62-.39Z"/><path class="cls-24" d="m1777.07,325.04s.07-.12.1-.12c2.27-.3,4.53-.4,6.79.04-2.3.03-4.59.05-6.89.08Z"/><path class="cls-24" d="m1805.84,335.84c1.97,0,3.93-.01,5.9-.02-.08.35-.36.35-.63.35-1.62,0-3.24,0-4.87,0-.2,0-.44-.01-.4-.33Z"/><path class="cls-24" d="m1717.55,335.8c1.99.07,3.99.11,5.99-.02-.03.25-.18.38-.42.38h-5.13c-.23,0-.4-.11-.44-.36h0Z"/><path class="cls-24" d="m1771.08,335.76c1.95.16,3.9.12,5.85.02-.04.25-.2.38-.44.38h-5.02c-.25,0-.38-.15-.39-.4h0Z"/><path class="cls-24" d="m1839.66,315.51c1.9.06,3.8.1,5.69-.02-.03.25-.18.38-.42.38h-4.82c-.23,0-.4-.11-.45-.35h0Z"/><path class="cls-11" d="m1834.89,423.97c-1.44,0-2.87,0-4.31-.02-.38,0-.89.19-1.07-.4,1.34.26,2.7.05,4.04.14.46.03.98-.21,1.34.29h0Z"/><path class="cls-11" d="m1697.05,423.97c-1.44,0-2.87,0-4.31-.02-.38,0-.89.19-1.07-.4,1.34.26,2.7.05,4.04.14.46.03.98-.21,1.34.29h0Z"/><path class="cls-11" d="m1691.72,417.72c.23-.43.65-.31,1-.31,1.34-.01,2.69-.01,4.03-.01-.23.45-.66.28-1,.29-1.34.03-2.69.03-4.03.04h0Z"/><path class="cls-11" d="m1829.55,417.72c.23-.43.65-.31,1-.31,1.34-.01,2.69-.01,4.03-.01-.23.45-.66.28-1,.29-1.34.03-2.69.03-4.03.04h0Z"/><path class="cls-11" d="m1725.62,423.94c-1.4,0-2.81.02-4.21,0-.36,0-.77.11-1.02-.3,1.34,0,2.68,0,4.03.03.41,0,.87-.16,1.19.26Z"/><path class="cls-11" d="m1823.19,423.94c-1.4,0-2.81.02-4.21,0-.36,0-.77.11-1.02-.3,1.34,0,2.68,0,4.03.03.41,0,.87-.16,1.19.26Z"/><path class="cls-11" d="m1834.23,420.02c-1.12-.22-2.25-.05-3.37-.12-.46-.03-.98.19-1.33-.31,1.27.01,2.55,0,3.82.04.33,0,.78-.17.89.39h0Z"/><path class="cls-11" d="m1818.04,417.62c1.59-.47,3.22-.12,4.83-.2-.65.55-1.41.2-2.12.25-.89.05-1.8-.02-2.7-.04h0Z"/><path class="cls-11" d="m1696.4,420.02c-1.12-.22-2.25-.05-3.37-.12-.46-.03-.98.19-1.33-.31,1.27.01,2.55,0,3.82.04.33,0,.78-.17.89.39h0Z"/><path class="cls-24" d="m1781.95,339.11h-4.87c1.62-.45,3.24-.41,4.87,0Z"/><path class="cls-11" d="m1720.47,417.62c1.59-.47,3.22-.12,4.83-.2-.65.55-1.41.2-2.12.25-.89.05-1.8-.02-2.7-.04h0Z"/><path class="cls-24" d="m1832.36,336.52h4.64c-1.55.47-3.1.46-4.64,0Z"/><path class="cls-11" d="m1714.17,423.93c-1.18,0-2.36.03-3.54.02-.36,0-.76.1-1.04-.27,1.18,0,2.36-.01,3.54,0,.36,0,.76-.11,1.04.25h0Z"/><path class="cls-11" d="m1683.11,419.35c-1.2.64-2.42.44-3.65.11,1.22-.03,2.43-.07,3.65-.11Z"/><path class="cls-11" d="m1774.85,425.57c1.02-.01,2.04-.03,3.07-.04-1.02.42-2.03.5-3.07.04Z"/><path class="cls-11" d="m1670.76,417.72c.86-.68,1.85-.16,2.77-.31-.87.6-1.86.12-2.77.31Z"/><path class="cls-11" d="m1787.63,425.58c.93,0,1.85,0,2.78,0-.93.41-1.85.42-2.78,0Z"/><path class="cls-11" d="m1665.83,417.4c.91.16,1.91-.34,2.77.31-.91-.18-1.9.31-2.77-.31Z"/><path class="cls-24" d="m1778.03,347.58c1-.42,1.99-.41,2.99,0-1,.12-1.99.11-2.99,0Z"/><path class="cls-24" d="m1832.7,311.55c.78-.38,1.56-.4,2.34,0-.78.11-1.56.12-2.34,0Z"/><path class="cls-11" d="m1787.13,416.09c-.68-.14-1.36-.17-2.04.02.75-.57,1.21-.57,2.04-.02Z"/><path class="cls-24" d="m1647.14,370.67c-.07-.63-.16-1.27.29-1.82.01.62.12,1.26-.29,1.82Z"/><path class="cls-24" d="m1779.99,390.14c.52-.39,1.11-.31,1.7-.25-.53.37-1.11.37-1.7.25Z"/><path class="cls-24" d="m1647.47,368.34c-.1-.61-.15-1.23.18-1.8.16.62.16,1.23-.18,1.8Z"/><path class="cls-24" d="m1698.76,388.88c.31-.01.61-.03.93-.05-.28.55-.59.63-.93.05Z"/><path class="cls-24" d="m1787.09,327.64c.23.3.23.63.14.98-.18-.31-.29-.63-.14-.98Z"/><path class="cls-24" d="m1733.54,340.37c-.36.1-.71.13-1-.16.37-.14.7-.12,1,.16Z"/><path class="cls-24" d="m1697.5,348.61c.2-.11.4-.22.6-.33.11.23.07.44-.14.55-.2.1-.41.07-.46-.22h0Z"/><path class="cls-24" d="m1844.45,380.38c-.25.01-.51.03-.76.04.23-.49.48-.51.76-.04Z"/><path class="cls-24" d="m1836.97,306.68c-.35.08-.7.09-.98-.2.38-.15.69-.04.98.2Z"/><path class="cls-24" d="m1843.36,359.47c-.2,0-.42,0-.62.01-.03-.18.08-.29.23-.31.22-.03.38.05.4.3h0Z"/><path class="cls-24" d="m1844.28,348.27c.16.1.33.2.49.29,0,.28-.2.35-.39.24-.18-.1-.19-.33-.1-.53h0Z"/><path class="cls-24" d="m1843.68,388.82c.25,0,.5.01.75.01-.26.51-.51.53-.75-.01Z"/><path class="cls-24" d="m1699.39,380.4c-.22.01-.44.03-.65.05.18-.47.4-.54.65-.05Z"/><path class="cls-24" d="m1842.72,367.54c.26.01.52.03.78.05-.29.51-.55.51-.78-.05Z"/><path class="cls-24" d="m1792.81,383.37c.05-.17.15-.3.33-.27.19.03.23.18.18.35-.17-.03-.34-.05-.51-.08h0Z"/><path class="cls-24" d="m1697.15,367.61c.16-.03.32-.05.48-.08.06.18-.03.3-.19.33-.17.03-.27-.07-.29-.25h0Z"/><path class="cls-24" d="m1840.44,327.3c.21.19.24.42.14.68-.13-.2-.23-.42-.14-.68Z"/><path class="cls-24" d="m1697.58,359.46h.03c.02-.2-.16.05,0-.08-.01.03-.03.05-.04.08h0Z"/><path class="cls-24" d="m1698.1,340.43c-.09-.1-.18-.18-.27-.28.2-.02.35.02.27.28Z"/><path class="cls-11" d="m1817.91,421.59s-.09-.05-.09-.08c0-.12.06-.15.17-.11.03.09,0,.15-.08.19Z"/><path class="cls-24" d="m1684.01,318.83c-.09-.1-.17-.2-.26-.3.23-.02.33.07.26.3Z"/><path class="cls-11" d="m1677.57,415.8c-.02.12-.05.24-.2.26-.11-.23.02-.27.2-.26Z"/><path class="cls-24" d="m1640.56,411.82c-.03-.18.01-.31.18-.38.08.2-.01.31-.18.38Z"/><path class="cls-11" d="m1720.34,421.59s-.09-.05-.09-.08c0-.12.06-.15.17-.11.03.09,0,.15-.08.19Z"/><path class="cls-24" d="m1846.18,329c-.08-.14-.07-.26.05-.37.02.09.05.18.05.27,0,.03-.06.07-.1.1Z"/><path class="cls-11" d="m1742.39,415.8c-.02.12-.05.24-.2.26-.11-.23.02-.27.2-.26Z"/><path class="cls-24" d="m1664.13,340.16c-.06.1-.13.19-.19.29-.12-.22-.02-.29.19-.29Z"/><path class="cls-24" d="m1699.52,381.38c-.01-.12-.02-.24-.03-.35.04.08.08.16.11.25,0,.03-.05.08-.08.11h0Z"/><path class="cls-24" d="m1750.28,365.69c0-.15.01-.3.01-.45.18.16.16.31-.01.45Z"/><path class="cls-24" d="m1845.06,340.44c-.08-.1-.16-.2-.24-.29.22-.01.31.07.24.29Z"/><path class="cls-24" d="m1645.94,341.04c-.12-.04-.16-.12-.1-.23.05.05.1.09.14.14,0,.01-.03.06-.05.1h0Z"/><path class="cls-24" d="m1693.87,361.06c-.04-.08-.09-.16-.11-.24,0-.03.06-.07.09-.1,0,.12.01.23.02.35h0Z"/><path class="cls-24" d="m1647.74,352.8c-.04-.05-.09-.1-.13-.16.03-.02.06-.05.1-.07.08.06.1.14.03.23Z"/><path class="cls-24" d="m1695.22,367.28c.07.08.08.17.03.27-.04-.06-.08-.12-.11-.18,0-.01.05-.05.08-.08h0Z"/><path class="cls-11" d="m1839.31,415.8c-.02.12-.05.24-.2.26-.11-.23.02-.27.2-.26Z"/><path class="cls-24" d="m1749.93,369.27c-.08-.14-.07-.27.05-.38.02.09.05.18.05.27,0,.03-.07.07-.1.1h0Z"/><path class="cls-24" d="m1755.7,367.84c.01.16.02.31.03.46-.18-.14-.21-.3-.03-.46Z"/><path class="cls-11" d="m1780.81,421.98c-.11-.15-.06-.26.1-.34.07.14.05.26-.1.34Z"/><path class="cls-4" d="m1580.61,428.8c-.31.03-.63.07-.95.1-.48-.13-.93-.05-1.34.23-.42.03-.85.07-1.28.1-.69-.12-1.35-.08-1.99.23-.43.02-.87.04-1.3.05h-8.87c-.54-.03-1.08-.05-1.62-.08-.63-.34-1.3-.34-1.99-.25-.32-.03-.64-.05-.96-.08-.66-.27-1.32-.64-2.01-.06l-.13.05h-.14c-.12-.09-.24-.18-.35-.27l-.02-.03c-.41-.48-.85-.57-1.32-.09-1.6-.88-3.46-.64-5.15-1.22-2.79-.95-5.64-1.66-8.36-2.85-10.42-4.57-17.32-9.55-23.5-15.71-5.65-5.62-10.16-12.08-13.67-19.25-1.5-3.07-2.87-6.21-3.83-9.47-2.24-7.6-3.38-15.37-3.09-23.31.02-.48.12-.98-.08-1.45.27-.2.39-.42.03-.66.45-1.7.4-3.45.63-5.18.46-3.33,1.2-6.58,2.01-9.84.79-3.16,1.99-6.16,3.29-9.13,4.78-10.96,12.03-19.99,21.39-27.35,5.73-4.5,12.03-8,18.88-10.48,3.56-1.28,7.19-2.31,10.89-3.06.94-.19,1.9-.31,2.85-.47.58.09,1.15.09,1.66-.27.32-.02.64-.04.96-.06.79.07,1.57.1,2.31-.27.33-.01.65-.03.98-.04h9.49c.33.01.65.03.98.04.73.38,1.52.34,2.31.29.32.01.64.03.97.05.4.31.86.33,1.34.27,3.88.57,7.67,1.47,11.41,2.66,9.04,2.86,17.12,7.44,24.3,13.62,5.93,5.1,10.94,11,14.81,17.79,1.11,1.93,2.09,3.96,3.04,5.99,1.67,3.58,3.03,7.22,4.11,11,2.16,7.54,2.94,15.24,2.42,23.05-.12,1.89-.12,3.83-.57,5.68-.82,3.34-1.5,6.72-2.31,10.08-.63,2.62-1.76,5-2.73,7.43-.77,1.94-1.34,4.02-2.7,5.75-.81,1.02-1.1,2.44-1.9,3.47-1.44,1.88-2.61,3.95-4.09,5.8-1.28,1.59-2.46,3.26-3.78,4.8-.84.98-1.96,1.73-2.79,2.72-1.4,1.65-3.05,3.07-4.72,4.38-2.66,2.11-5.48,4.03-8.33,5.9-2.58,1.7-5.32,3.01-8.14,4.25-2.26.99-4.53,1.95-6.84,2.78-2.23.81-4.62,1.17-6.94,1.74-.48-.06-.96-.17-1.34.27-.2.02-.41.04-.61.07-.48-.08-.94-.05-1.33.28h0Zm-29.11-91.35c-1.1-.56-2.2-.54-3.29.01-.7.15-1.32.48-1.95.81-2.38,1.23-3.57,3.49-4.48,5.78-.46,1.16-.23,2.67-.1,4.03.12,1.15.67,1.93,1.59,2.44,1.52.85,3.18,1.07,4.84.59,3.6-1.03,6.7-5.27,6.51-9.03-.11-2.08-.86-3.91-3.13-4.62h0Zm45.52-38.27c-2.18.64-4.08,1.63-5.47,3.55-2.01,2.77-2.56,5.84-2.26,9.15-.12.2-.01.31.14.42,0,.27-.33.42-.22.74.82,2.18,1.98,4.03,4.5,4.51.99.5,1.99.49,2.98,0,1.54-.29,2.87-1.02,3.94-2.14,3.1-3.22,4.3-7.08,3.47-11.45-.46-2.44-1.88-4.25-4.48-4.81-.87-.46-1.73-.4-2.6.02Zm4.54,30.39c.77,0,1.54.02,2.31.03,1.31.4,2.48,1.01,3.33,2.16.96,1.3,1.19,2.76,1.19,4.33-.01,11.02,0,22.04-.03,33.06,0,1.06.29,1.63,1.26,2.16,2.95,1.58,5.51,3.71,7.86,6.09.31.32.57.76,1.19.96v-1.08c-.04-6.33-.4-12.64-.96-18.95-.54-6.12-1.49-12.17-2.68-18.19-.97-4.92-2.31-9.72-4.21-14.37-.78-1.91-1.57-3.81-3.14-5.28-2.05-1.91-4.94-2.23-7.32-.81-.91.55-1.6,1.19-2.16,2.09-.53.87-1.33,1.57-1.82,2.46-1.08,1.97-1.99,4.03-2.94,6.07-.89,1.93-1.62,3.92-2.36,5.9-.75,2.03-1.42,4.11-2.52,5.97-.79,1.33-1.33,2.78-1.91,4.16-.68,1.6-1.36,3.24-2.06,4.82-.98,2.2-1.98,4.43-2.87,6.65-1.62,3.99-3.84,7.52-6.57,10.79-.69.83-1.68,1.4-2.32,2.25-.8,1.06-1.79,1.69-3.02,2.03-.76,0-1.52,0-2.28-.01-2.08-.63-3.62-1.95-4.75-3.77-.74-1.2-1.46-2.42-2.18-3.65-1.49-2.53-2.93-5.11-4.66-7.49-1.12-1.54-2.26-3.02-4.21-3.74-1.12-.41-2.06-.49-3.09.02-1.44.72-2.51,1.88-3.45,3.13-3.65,4.78-6.03,10.25-8.42,15.71-.93,2.12-1.69,4.33-2.52,6.49-.8,2.08-1.68,4.13-2.39,6.24-1.27,3.76-2.36,7.58-3.67,11.32-1.22,3.5-2.63,6.93-3.97,10.38-.43.78.25.65.59.66,2.59.02,5.19,0,7.79,0,.23,0,.42-.08.55-.27.79-1.17.84-2.6,1.46-3.86.78-1.58,1.27-3.3,1.81-4.99.38-1.19.33-1.21,1.62-.91.23.29.4.65.87.63.7-.03,1.4-.03,2.1-.05h1.65c.57.09,1.15.18,1.67-.21,2.88-.34,5.5-1.5,8.14-2.59,1.86-.77,3.71-1.55,5.56-2.31.47-.19.77-.11.98.46.33.86.29,1.82.68,2.63.98,2.05,1.1,4.37,2.15,6.38,3.22-2.12,6.2-4.7,8.71-7.8,1.44-1.77,2.85-3.57,4.29-5.35,3.75-4.61,7.56-9.17,11.63-13.51,2.81-3,5.82-5.76,9.72-7.3.55-.22.75-.55.7-1.12-.03-.38,0-.76,0-1.15,0-10.36,0-20.72,0-31.09,0-3.41,1.49-5.35,4.67-6.17h-.01Z"/><path class="cls-11" d="m1574.07,288.69h-9.49c1.69-.51,3.43-.3,5.15-.31,1.45,0,2.92-.17,4.34.31h0Z"/><path class="cls-24" d="m1573.23,437.72c-1.26.45-2.58.25-3.87.26-1.68.01-3.37.12-5.02-.29,2.97,0,5.93.01,8.89.03Z"/><path class="cls-11" d="m1564.89,429.52h8.87c-.48.33-1.05.27-1.58.26-2.43-.03-4.87.32-7.28-.26Z"/><path class="cls-24" d="m1562.91,437.62c-.86.1-1.71.06-2.52-.27.85-.05,1.71-.15,2.52.27Z"/><path class="cls-11" d="m1577.35,289.01c-.79.06-1.57.09-2.31-.29.79-.08,1.58-.16,2.31.29Z"/><path class="cls-11" d="m1563.61,288.73c-.74.37-1.52.35-2.31.27.72-.46,1.52-.34,2.31-.27Z"/><path class="cls-24" d="m1559.94,437.31c-.61.07-1.22.1-1.77-.25.61-.03,1.23-.19,1.77.25Z"/><path class="cls-11" d="m1575.06,429.47c.63-.31,1.3-.35,1.99-.23-.63.41-1.31.31-1.99.23Z"/><path class="cls-11" d="m1561.29,429.21c.68-.1,1.36-.1,1.99.25-.68.09-1.37.16-1.99-.25Z"/><path class="cls-11" d="m1558.32,429.08c.69-.58,1.34-.2,2.01.06-.68.16-1.34-.11-2.01-.06Z"/><path class="cls-11" d="m1560.34,289.06c-.51.36-1.08.35-1.66.27.5-.4,1.08-.34,1.66-.27Z"/><path class="cls-24" d="m1580.44,437.03c-.58.4-1.23.38-1.89.29.59-.38,1.24-.35,1.89-.29Z"/><path class="cls-24" d="m1557.32,436.97c-.54.09-1.05.01-1.52-.27.53-.04,1.08-.14,1.52.27Z"/><path class="cls-11" d="m1582.56,428.45c.38-.44.87-.33,1.34-.27-.41.27-.86.35-1.34.27Z"/><path class="cls-11" d="m1498.71,354.83c.36.23.25.45-.03.66-.4-.24-.4-.45.03-.66Z"/><path class="cls-11" d="m1556.35,428.74c.48-.48.91-.4,1.32.09-.44-.03-.89-.05-1.32-.09Z"/><path class="cls-11" d="m1580.61,428.8c.4-.32.85-.36,1.33-.28-.39.34-.85.38-1.33.28Z"/><path class="cls-11" d="m1578.33,429.12c.41-.29.86-.36,1.34-.23-.4.35-.87.32-1.34.23Z"/><path class="cls-24" d="m1582.74,436.69c-.44.29-.93.38-1.45.28.43-.39.94-.35,1.45-.28Z"/><path class="cls-11" d="m1579.66,289.32c-.48.08-.94.05-1.34-.27.48-.1.95-.12,1.34.27Z"/><path class="cls-11" d="m1557.7,428.86c.12.09.24.18.35.27-.23.06-.34-.04-.35-.27Z"/><path class="cls-24" d="m1633.12,407.24c.1.01.44.01.73.14.87.39.96,1.19.23,1.81-.42.35-.91.59-1.49.6-.8.01-1.45-.48-1.51-1.18-.06-.7.48-1.27,1.32-1.37.16-.02.33,0,.72,0h0Z"/><path class="cls-2" d="m1730.27,348.56c.8.14,1.61.22,2.4.42,2.61.7,4.51,2.22,5.58,4.77.68,1.61,1.02,3.3,1.39,4.99-.18.35-.05.66.13.97.22,2.75.27,5.5,0,8.25-.03.03-.09.05-.08.08,0,.08.03.14.05.22-.37,1.98-.77,3.95-1.59,5.81-1.93,4.4-5.22,6.68-10.08,6.63-2.56-.03-5.13,0-7.69,0-1.56,0-1.47.11-1.47-1.54v-29.6c0-.27,0-.55-.01-.82.63-.2,1.29-.12,1.94-.12,3.14-.03,6.29-.04,9.43-.06h.01Z"/><path class="cls-24" d="m1730.27,348.56c-3.14.02-6.29.03-9.43.06-.65,0-1.3-.08-1.94.12.08-.42.41-.44.74-.44,3.34,0,6.7,0,10.04.03.2,0,.39.16.58.24h0Z"/><path class="cls-24" d="m1739.76,359.71c-.18-.31-.31-.61-.13-.97.22.3.21.63.13.97Z"/><path class="cls-24" d="m1739.73,368.26c-.02-.08-.05-.14-.05-.22,0-.03.05-.05.08-.08.06.11.05.2-.03.29h0Z"/><path class="cls-2" d="m1784.94,312.22c2.13.68,3.14,2.18,3.05,4.31-.08,1.67-.84,3-3.72,3.4-2.4-.23-4.81-.05-7.21-.11-.12-2.51-.13-5.03,0-7.54,2.63-.02,5.25-.04,7.87-.05h0Z"/><path class="cls-24" d="m1784.94,312.22c-2.62.02-5.25.04-7.87.05.16-.26.42-.32.69-.32h6.44c.27,0,.53.07.74.26h0Z"/><path class="cls-24" d="m1777.06,319.82c2.4.06,4.81-.13,7.21.11-1.84.46-3.71.12-5.56.19-.55.02-1.19.26-1.65-.3Z"/><path class="cls-2" d="m1723.7,320.48c-.14-2.74-.15-5.47,0-8.21,2.08-.02,4.16-.05,6.25-.07,2.5.53,3.39,1.57,3.43,4,.05,2.55-.94,3.8-3.45,4.35-2.08-.02-4.15-.05-6.23-.07Z"/><path class="cls-24" d="m1729.95,312.2c-2.08.02-4.16.05-6.25.07.03-.04.07-.11.11-.12,2.05-.3,4.1-.39,6.14.05Z"/><path class="cls-24" d="m1723.7,320.48c2.08.02,4.15.05,6.23.07-2.08.34-4.16.5-6.23-.07Z"/><path class="cls-11" d="m1805.51,418.99c-.04.08-.08.16-.12.25-.03-.04-.1-.09-.08-.12.03-.09.08-.16.12-.25.03.04.06.08.1.12h0Z"/><path class="cls-2" d="m1746.86,417.65c.98.27,1.37,1,1.43,1.94.09,1.51.28,3.07-1.32,4.04-.95,0-1.9.2-2.84-.11.01-1.92.02-3.84.03-5.75.9-.03,1.8-.08,2.7-.12h0Z"/><path class="cls-11" d="m1746.86,417.65c-.9.04-1.8.08-2.7.12.87-.65,1.78-.44,2.7-.12Z"/><path class="cls-11" d="m1744.13,423.51c.94.31,1.89.11,2.84.11-1.31.51-1.99.48-2.84-.11Z"/><path class="cls-2" d="m1841.04,423.51c.01-1.92.02-3.84.03-5.75.9-.03,1.8-.08,2.7-.12.98.27,1.37,1,1.43,1.94.09,1.51.28,3.07-1.32,4.04-.95,0-1.9.2-2.84-.11h0Z"/><path class="cls-11" d="m1841.04,423.51c.94.31,1.89.11,2.84.11-1.31.51-1.99.48-2.84-.11Z"/><path class="cls-11" d="m1843.77,417.65c-.9.04-1.8.08-2.7.12.87-.65,1.78-.44,2.7-.12Z"/><path class="cls-2" d="m1773.7,419.67c.18-1.11.7-1.97,1.82-2.34.48,0,.98,0,1.46-.01,1.02.31,1.57,1.04,1.82,2.03-.01.04-.05.09-.03.12.03.08.09.14.14.2.14.87.09,1.73-.21,2.57-.41,1.15-1.27,1.73-2.48,1.7-1.11-.03-1.97-.61-2.33-1.69-.23-.72-.39-1.47-.25-2.24.13-.09.14-.2.08-.34h0Z"/><path class="cls-11" d="m1776.98,417.32c-.49,0-.98.01-1.46.01.48-.39.97-.39,1.46-.01Z"/><path class="cls-11" d="m1773.7,419.67c.07.14.05.25-.08.34-.01-.09-.04-.18-.03-.26,0-.03.08-.05.11-.08h0Z"/><path class="cls-11" d="m1778.89,419.68c-.05-.07-.1-.13-.14-.2-.01-.03.02-.08.03-.12.05.07.12.13.16.2.01.02-.04.08-.06.12h0Z"/><path class="cls-2" d="m1732.54,421.64c.19-1.13.63-2.16,1.07-3.36.7,1.13.78,2.28,1.18,3.32-.74.16-1.49.14-2.25.05h0Z"/><path class="cls-11" d="m1732.54,421.64c.75.09,1.5.12,2.25-.05-.74.66-1.49.57-2.25.05Z"/><path class="cls-10" d="m1542.65,398.7h-1.65c-.96-.38-1.99-.38-2.98-.58-1.29-.29-1.24-.28-1.62.91-.54,1.69-1.03,3.41-1.81,4.99-.61,1.26-.67,2.69-1.46,3.86-2.48-.01-4.96-.01-7.44-.04-.51,0-1.09.22-1.49-.34,1.33-3.46,2.74-6.89,3.97-10.38,1.31-3.74,2.4-7.56,3.67-11.32.71-2.11,1.59-4.16,2.39-6.24.83-2.16,1.59-4.37,2.52-6.49,2.39-5.46,4.77-10.92,8.42-15.71.96-1.25,2.02-2.4,3.45-3.13,1.03-.52,1.97-.43,3.09-.02,1.95.71,3.09,2.2,4.21,3.74,1.73,2.38,3.16,4.96,4.66,7.49.72,1.22,1.43,2.44,2.18,3.65,1.13,1.82,2.67,3.15,4.75,3.77.76.4,1.52.45,2.28.01,1.24-.34,2.22-.98,3.02-2.03.64-.85,1.63-1.43,2.32-2.25,2.73-3.26,4.96-6.79,6.57-10.79.89-2.22,1.89-4.44,2.87-6.65.7-1.58,1.39-3.22,2.06-4.82.58-1.38,1.13-2.83,1.91-4.16,1.1-1.86,1.77-3.94,2.52-5.97.74-1.99,1.47-3.97,2.36-5.9.94-2.04,1.86-4.1,2.94-6.07.48-.89,1.28-1.59,1.82-2.46.55-.9,1.25-1.55,2.16-2.09,2.38-1.42,5.28-1.11,7.32.81,1.57,1.47,2.36,3.36,3.14,5.28,1.88,4.65,3.23,9.45,4.21,14.37,1.19,6.02,2.14,12.08,2.68,18.19.56,6.31.91,12.62.96,18.95v1.08c-.63-.2-.88-.63-1.19-.96-2.35-2.38-4.92-4.5-7.86-6.09-.97-.52-1.26-1.09-1.26-2.16.04-11.02.02-22.04.03-33.06,0-1.56-.24-3.03-1.19-4.33-.85-1.15-2.01-1.75-3.33-2.16-.76-.44-1.54-.46-2.31-.03-3.17.83-4.67,2.77-4.67,6.17-.01,10.36,0,20.72,0,31.09,0,.38-.03.76,0,1.15.05.57-.16.9-.7,1.12-3.9,1.54-6.91,4.31-9.72,7.3-4.07,4.34-7.88,8.89-11.63,13.51-1.44,1.77-2.85,3.57-4.29,5.35-2.51,3.1-5.49,5.67-8.71,7.8-1.05-2.01-1.17-4.33-2.15-6.38-.39-.82-.35-1.77-.68-2.63-.22-.57-.52-.66-.98-.46-1.86.76-3.71,1.54-5.56,2.31-2.64,1.09-5.26,2.26-8.14,2.59-.58-.12-1.13-.05-1.67.21h.02Zm2.94-11.77c1.64.57,3.28.59,4.92,0,1.13-.22,2.17-.68,3.2-1.16.8-.37,1.06-.81.91-1.76-.79-4.85-2.52-9.4-4.39-13.9-.25-.6-.55-1.19-.87-1.75-.23-.41-.46-1.04-.98-.96-.59.1-.46.76-.51,1.23-.11,1.08-.29,2.15-.53,3.21-.81,3.48-2.41,6.62-4.14,9.71-.66,1.18-1.36,2.34-2.05,3.54,1.37,1.02,2.85,1.58,4.46,1.83h-.01Z"/><path class="cls-10" d="m1589.28,311.88c-.3-3.31.25-6.38,2.26-9.15,1.4-1.92,3.3-2.91,5.47-3.55.87,0,1.73-.01,2.6-.02,2.6.57,4.02,2.38,4.48,4.81.83,4.37-.37,8.23-3.47,11.45-1.07,1.11-2.4,1.85-3.94,2.14-1,0-1.99,0-2.98,0-2.52-.48-3.68-2.33-4.5-4.51-.12-.31.22-.47.22-.74.05-.17.03-.32-.14-.42Z"/><path class="cls-10" d="m1551.5,337.45c2.27.71,3.02,2.55,3.13,4.62.19,3.76-2.9,8-6.51,9.03-1.66.48-3.32.25-4.84-.59-.92-.51-1.47-1.29-1.59-2.44-.14-1.37-.36-2.87.1-4.03.9-2.29,2.09-4.55,4.48-5.78.63-.32,1.25-.65,1.95-.81,1.1,0,2.19,0,3.29-.01h0Z"/><path class="cls-11" d="m1524.22,407.49c.39.55.98.33,1.49.34,2.48.03,4.96.03,7.44.04-.13.2-.32.27-.55.27-2.59,0-5.19.01-7.79,0-.34,0-1.02.12-.59-.66h0Z"/><path class="cls-11" d="m1538.03,398.12c.99.2,2.02.2,2.98.58-.7.01-1.4.02-2.1.05-.47.02-.64-.33-.87-.63h0Z"/><path class="cls-11" d="m1551.5,337.45c-1.1,0-2.2,0-3.29.01,1.09-.55,2.19-.57,3.29-.01Z"/><path class="cls-11" d="m1593.71,317.55c1,0,1.99,0,2.98,0-1,.48-1.99.49-2.98,0Z"/><path class="cls-11" d="m1599.61,299.16c-.87,0-1.73.01-2.6.02.86-.42,1.73-.48,2.6-.02Z"/><path class="cls-11" d="m1569.82,372.85c-.76.44-1.52.39-2.28-.01.76,0,1.52,0,2.28.01Z"/><path class="cls-11" d="m1601.56,329.58c.78-.44,1.55-.4,2.31.03-.77,0-1.54-.02-2.31-.03Z"/><path class="cls-11" d="m1542.65,398.7c.53-.27,1.09-.34,1.67-.21-.51.39-1.09.3-1.67.21Z"/><path class="cls-11" d="m1589.28,311.88c.17.1.2.25.14.42-.16-.1-.26-.23-.14-.42Z"/><path class="cls-4" d="m1545.59,386.93c-1.6-.26-3.09-.81-4.46-1.83.7-1.19,1.39-2.36,2.05-3.54,1.73-3.09,3.33-6.23,4.14-9.71.25-1.06.42-2.13.53-3.21.05-.46-.08-1.13.51-1.23.53-.09.75.54.98.96.32.57.61,1.15.87,1.75,1.87,4.51,3.61,9.04,4.39,13.9.16.96-.11,1.39-.91,1.76-1.04.48-2.08.94-3.2,1.16-1.64.11-3.28.08-4.92,0h.01Z"/><path class="cls-11" d="m1545.59,386.93c1.64.1,3.28.12,4.92,0-1.64.59-3.28.56-4.92,0Z"/></g><path class="cls-19" d="m1435.63,894.93c-.27-1.98-.53-3.96-.79-5.95"/><path class="cls-18" d="m1433.36,877.04c-4.19-36.27-5.63-73.06,2.37-108.55,9.32-41.34,33.19-81.15,70.69-100.89,19.18-10.1,40.87-14.51,62.43-16.79,24.25-2.57,49.23-2.51,72.45,4.95,18.72,6.02,35.62,16.63,51.59,28.1,29.7,21.34,56.98,46.04,81.15,73.49,14,15.9,27.52,34.15,28.79,55.29,1.34,22.42-12.19,44.11-31.08,56.26-18.89,12.15-42.3,15.73-64.7,14.06-16.16-1.2-32.74-5.29-45.21-15.64-19.29-16.01-24.76-44.72-17.75-68.78,7.02-24.07,24.58-43.84,44.56-58.97,17.75-13.44,37.71-23.88,54.62-38.36,11.13-9.54,20.75-20.69,30.06-32.01,7.43-9.04,14.87-18.54,18.04-29.8,5.08-18.04-1.7-37.41-11.46-53.41-10.24-16.8-24.46-31.94-42.76-39.16-29.58-11.68-62.76-.79-92.65,10.08-15.04,5.47-30.48,11.18-42.4,21.85-1.41,1.26-2.87,2.89-2.61,4.76.27,1.93,2.23,3.1,3.98,3.95,16.63,8.13,34.41,14.54,52.88,15.77,18.47,1.23,37.77-3.12,52.27-14.64,9.98-7.93,17.21-18.76,26.27-27.72,12.31-12.17,28.08-20.8,44.96-24.61,6.06-1.37,12.68-2.06,18.27.65,1.91.93,3.61,2.38,4.89,4.11"/><path class="cls-19" d="m1805.39,546.48c.33,1.98.08,4-.91,5.82"/><circle class="cls-17" cx="1791.72" cy="784.91" r="34.61"/><circle class="cls-17" cx="1439.72" cy="927.22" r="34.61"/><circle class="cls-17" cx="1807.51" cy="564.06" r="15.06"/></g></svg>